<svg xmlns="http://www.w3.org/2000/svg" width="117" height="32" viewBox="0 0 117 32">
    <path fill="#7C5CD1" fill-rule="evenodd" d="M16.852 1.51h-3.184l-3.625 8.94c-.407 1.002-.813 2.21-1.118 3.176a56 56 0 0 0-1.084-3.175L4.216 1.51H.93l6.504 14.428v9.285h2.846v-9.147l6.572-14.566zm12.191 15.292c0-4.28-1.389-9.354-6.504-9.354-4.878 0-6.369 4.901-6.369 9.043 0 4.28 1.39 9.182 6.437 9.182 4.912 0 6.436-4.694 6.436-8.871zm-2.981.138c0 1.519-.102 2.83-.406 3.935-.44 1.622-1.491 2.554-2.982 2.554-1.22 0-2.303-.621-2.811-1.622-.576-1.14-.847-3.555-.847-5.695 0-1.83.203-3.521.677-4.66.475-1.14 1.559-1.83 2.812-1.83 1.22 0 2.338.656 2.913 2.071.475 1.174.644 3.107.644 5.247zm18.221-7.249l-1.49-1.864c-.712.553-1.39.76-2.169.76-1.558 0-2.032-.967-4.302-.967-3.252 0-5.623 2.278-5.623 5.834 0 2.243 1.389 4.21 3.354 4.936-1.931.725-2.643 1.691-2.643 2.934 0 1.553 1.05 2.45 2.88 2.45.779 0 1.287.035 2.303.035 2.033 0 3.523.173 3.523 2.658 0 1.795-1.118 3.14-3.489 3.14-2.066 0-3.659-.69-3.659-2.864 0-.518.136-1.14.34-1.519l-2.643.207c-.203.69-.305 1.243-.305 1.864 0 2.347 1.66 4.384 6.436 4.384 4.235 0 6.098-2.485 6.098-5.592 0-3.106-2.202-4.556-5.013-4.556h-2.575c-.678 0-1.389-.138-1.389-.863 0-.449.373-.967 1.626-1.657 4.1 0 6.267-2.52 6.267-5.799a5.023 5.023 0 0 0-.88-2.865c.169.07.61.173.982.173.847 0 1.524-.138 2.371-.829zm-5.42 3.625c0 2.209-.711 3.486-2.575 3.486-1.998 0-2.71-1.312-2.71-3.417 0-2.278.746-3.556 2.676-3.556 2.033 0 2.609 1.243 2.609 3.487zM56.71 23.912c-.948-.62-1.185-1.139-1.185-2.899 0-.587.135-5.764.135-7.766 0-.898-.034-2.071-.339-2.969-.61-1.795-2.1-2.761-4.234-2.761-2.168 0-4.302.76-6.233 2.243l1.287 1.933c.982-1 2.947-1.933 4.607-1.933 1.084 0 1.762.553 2.033 1.243.17.414.27 1.243.27 2.21v1.449c-.27-.035-.812-.035-1.016-.035-4.844 0-7.656 2.21-7.656 6.04 0 2.417 1.118 5.006 4.743 5.006 1.694 0 2.88-.656 4.2-2.21.272 1.07.983 1.9 2.067 2.417l1.321-1.968zm-3.794-2.83c-.61 1.484-1.93 2.45-3.32 2.45-1.592 0-2.405-1.138-2.405-3.071 0-2.451 1.558-3.935 4.777-3.935.237 0 .779.034 1.016.069l-.068 4.487zM70.8 25.224V12.108c0-1.14-.237-2.244-.948-3.107a3.894 3.894 0 0 0-3.015-1.415c-1.592 0-3.049.621-4.607 2.209a5.06 5.06 0 0 0-.508-2.244l-2.507.656c.44 1.415.542 2.796.542 3.832v13.185h2.574v-13.22c1.084-1.277 2.71-2.106 3.795-2.106.643 0 1.22.277 1.524.69.407.553.542 1.14.542 2.866v11.77h2.608zm15.715-8.422c0-4.28-1.39-9.354-6.505-9.354-4.878 0-6.368 4.901-6.368 9.043 0 4.28 1.389 9.182 6.436 9.182 4.912 0 6.437-4.694 6.437-8.871zm-2.981.138c0 1.519-.102 2.83-.407 3.935-.44 1.622-1.49 2.554-2.981 2.554-1.22 0-2.304-.621-2.812-1.622-.576-1.14-.847-3.555-.847-5.695 0-1.83.204-3.521.678-4.66.474-1.14 1.558-1.83 2.812-1.83 1.22 0 2.337.656 2.913 2.071.474 1.174.644 3.107.644 5.247zm15.646 3.245c0-2.59-2.066-4.039-4.099-4.764l-1.355-.483c-1.728-.621-2.405-1.415-2.405-2.9 0-1.311 1.016-2.52 2.608-2.52 1.288 0 2.304.519 3.591 1.243l.983-2.036c-1.288-.863-2.948-1.38-4.608-1.38-3.116 0-5.318 2.174-5.318 5.35 0 2.416 1.728 3.865 3.93 4.66l1.32.482c1.423.518 2.643 1.278 2.643 2.796 0 1.692-1.118 2.934-2.812 2.934-1.592 0-3.184-.586-4.64-1.657L88 23.947c1.558 1.105 3.59 1.795 5.488 1.795 3.387 0 5.691-2.14 5.691-5.557zm11.702-7.39c-.043-.854-.19-1.426-.493-1.792-.339-.414-.915-.725-1.626-.725-1.288 0-2.812.69-3.998 2.382v12.564h-2.608V4.1c0-1.105-.102-2.417-.373-3.59l2.609-.483c.237 1.139.372 2.657.372 4.107v3.728c0 .794-.034 1.415-.101 2.106 1.253-1.381 2.947-2.175 4.81-2.175 1.321 0 2.473.518 3.15 1.38.712.933.881 2.382.881 3.521v12.457c.231.857.762 1.175 1.753 1.175.643 0 .88-.069 1.287-.31l.474 1.69c-.914.484-1.693.726-2.744.726-.779 0-1.355-.208-1.964-.484-1.017-.448-1.525-1.691-1.525-3.486V12.795h.096z"/>
</svg>
