<svg xmlns="http://www.w3.org/2000/svg" width="145" height="15" viewBox="0 0 145 15">
    <path fill="#9270EF" fill-rule="evenodd" d="M1.134 1.13c1.068-.072 2.682-.108 4.842-.108.18 0 .333.063.459.189a.625.625 0 0 1 .189.459c0 .18-.063.333-.189.459a.625.625 0 0 1-.459.189 116.1 116.1 0 0 0-3.402.036c.144 1.236.264 2.472.36 3.708.924-.036 2.172-.054 3.744-.054.18 0 .333.063.459.189a.625.625 0 0 1 .189.459c0 .18-.063.333-.189.459a.625.625 0 0 1-.459.189c-1.56 0-2.778.018-3.654.054.096 1.668.156 3.318.18 4.95h1.458c1.14-.012 2.04.024 2.7.108.18.024.324.108.432.252a.64.64 0 0 1 .126.486.622.622 0 0 1-.252.432.64.64 0 0 1-.486.126c-.624-.084-1.464-.12-2.52-.108H3.024a.603.603 0 0 1-.468.198.584.584 0 0 1-.504-.252h-.054a.601.601 0 0 1-.441-.225.655.655 0 0 1 0-.846.672.672 0 0 1 .351-.207 112.355 112.355 0 0 0-.18-4.86H1.71a.608.608 0 0 1-.468-.162.644.644 0 0 1-.216-.45.608.608 0 0 1 .162-.468.644.644 0 0 1 .45-.216 98.314 98.314 0 0 0-.36-3.69h-.072a.612.612 0 0 1-.459-.162.623.623 0 0 1-.225-.441.624.624 0 0 1 .162-.468.63.63 0 0 1 .45-.225zm12.69 2.124c-.036-.36-.141-.66-.315-.9-.174-.24-.363-.39-.567-.45-.396-.12-.684.096-.864.648a5.465 5.465 0 0 0-.189 1.071c-.03.378-.042.879-.036 1.503.006.624.009 1.044.009 1.26-.012.732-.024 1.398-.036 1.998a27.52 27.52 0 0 1 1.8-.414.628.628 0 0 1 .495.099.641.641 0 0 1 .162.9.573.573 0 0 1-.405.261c-.276.06-.966.222-2.07.486-.024 1.32-.036 2.538-.036 3.654 0 .18-.063.333-.189.459a.625.625 0 0 1-.459.189.625.625 0 0 1-.459-.189.625.625 0 0 1-.189-.459c0-1.032.006-2.148.018-3.348a10.7 10.7 0 0 1-1.71.198.673.673 0 0 1-.468-.18.583.583 0 0 1-.198-.45c0-.18.06-.336.18-.468a.583.583 0 0 1 .45-.198 8.93 8.93 0 0 0 1.764-.234c.012-.684.03-1.464.054-2.34 0-.084-.006-.471-.018-1.161-.012-.69.003-1.266.045-1.728a5.99 5.99 0 0 1 .261-1.305c.192-.624.519-1.071.981-1.341.462-.27.957-.321 1.485-.153.48.156.885.456 1.215.9.33.444.525.972.585 1.584a.646.646 0 0 1-.594.693.596.596 0 0 1-.468-.144.681.681 0 0 1-.234-.441zm7.2 0c-.036-.36-.141-.66-.315-.9-.174-.24-.363-.39-.567-.45-.396-.12-.684.096-.864.648a5.465 5.465 0 0 0-.189 1.071c-.03.378-.042.879-.036 1.503.006.624.009 1.044.009 1.26-.012.732-.024 1.398-.036 1.998a27.52 27.52 0 0 1 1.8-.414.628.628 0 0 1 .495.099.641.641 0 0 1 .162.9.573.573 0 0 1-.405.261c-.276.06-.966.222-2.07.486-.024 1.32-.036 2.538-.036 3.654 0 .18-.063.333-.189.459a.625.625 0 0 1-.459.189.625.625 0 0 1-.459-.189.625.625 0 0 1-.189-.459c0-1.032.006-2.148.018-3.348a10.7 10.7 0 0 1-1.71.198.673.673 0 0 1-.468-.18.583.583 0 0 1-.198-.45c0-.18.06-.336.18-.468a.583.583 0 0 1 .45-.198 8.93 8.93 0 0 0 1.764-.234c.012-.684.03-1.464.054-2.34 0-.084-.006-.471-.018-1.161-.012-.69.003-1.266.045-1.728a5.99 5.99 0 0 1 .261-1.305c.192-.624.519-1.071.981-1.341.462-.27.957-.321 1.485-.153.48.156.885.456 1.215.9.33.444.525.972.585 1.584a.646.646 0 0 1-.594.693.596.596 0 0 1-.468-.144.681.681 0 0 1-.234-.441zm4.05 7.452c1.452-.048 2.418-.348 2.898-.9.228-.264.369-.555.423-.873.054-.318.027-.579-.081-.783-.228-.504-.678-.678-1.35-.522-.792.18-1.35.564-1.674 1.152-.324.588-.396 1.23-.216 1.926zm-1.134.702a4.44 4.44 0 0 1-.234-1.188 4.041 4.041 0 0 1 .117-1.224c.102-.408.267-.783.495-1.125.228-.342.543-.648.945-.918.402-.27.873-.465 1.413-.585.648-.156 1.224-.114 1.728.126s.87.618 1.098 1.134c.216.456.273.966.171 1.53a3.125 3.125 0 0 1-.729 1.512c-.66.744-1.728 1.176-3.204 1.296.312.324.672.546 1.08.666.828.24 1.758.006 2.79-.702a.635.635 0 0 1 .477-.099c.174.03.312.12.414.27a.641.641 0 0 1-.171.909c-1.356.936-2.646 1.224-3.87.864a3.539 3.539 0 0 1-1.422-.792 3.93 3.93 0 0 1-.954-1.332.586.586 0 0 1-.144-.342zM37.566 7.34v-.486a.824.824 0 0 0-.018-.216c-.096-.276-.378-.408-.846-.396-.54.024-.984.18-1.332.468-.156.12-.384.39-.684.81-1.044 1.452-1.464 2.76-1.26 3.924.12.636.558 1.08 1.314 1.332.36.12.732.171 1.116.153a2.633 2.633 0 0 0 1.026-.243c.072-.036.138-.075.198-.117.06-.042.108-.081.144-.117.036-.036.084-.09.144-.162.06-.072.102-.126.126-.162l.18-.252c.072-.108.132-.192.18-.252a.592.592 0 0 1 .414-.261.63.63 0 0 1 .486.108.623.623 0 0 1 .261.423.61.61 0 0 1-.117.486c0 .012-.057.102-.171.27a6.364 6.364 0 0 1-.243.342c-.048.06-.132.153-.252.279-.12.126-.24.234-.36.324a2.28 2.28 0 0 1-.414.243 3.857 3.857 0 0 1-1.539.387A3.981 3.981 0 0 1 34.326 14a3.524 3.524 0 0 1-1.422-.864 2.629 2.629 0 0 1-.738-1.476c-.276-1.512.216-3.144 1.476-4.896.36-.504.66-.858.9-1.062.252-.204.57-.375.954-.513a3.736 3.736 0 0 1 1.152-.225c.456-.024.882.06 1.278.252s.678.522.846.99c.06.18.09.396.09.648v.414a.608.608 0 0 1-.162.468.644.644 0 0 1-.45.216.608.608 0 0 1-.468-.162.644.644 0 0 1-.216-.45zm4.41-5.652c.036.216.048.63.036 1.242a53.625 53.625 0 0 1-.036 1.296l-.072 1.314-.054 1.332a64.51 64.51 0 0 1-.036.63 40.9 40.9 0 0 0 1.998-.216.594.594 0 0 1 .468.135.648.648 0 0 1 .252.432.608.608 0 0 1-.135.477.654.654 0 0 1-.441.252c-.66.072-1.38.144-2.16.216.012 1.164.114 2.13.306 2.898.252 1.02.63 1.53 1.134 1.53.252-.012.543-.129.873-.351.33-.222.657-.555.981-.999a.622.622 0 0 1 .432-.252.64.64 0 0 1 .486.126.622.622 0 0 1 .252.432.64.64 0 0 1-.126.486c-.924 1.212-1.878 1.83-2.862 1.854a1.943 1.943 0 0 1-1.521-.648c-.414-.444-.717-1.062-.909-1.854-.204-.864-.318-1.896-.342-3.096l-.972.072a.655.655 0 0 1-.477-.153.601.601 0 0 1-.225-.441.655.655 0 0 1 .153-.477.601.601 0 0 1 .441-.225l1.098-.09c.012-.156.024-.42.036-.792l.054-1.35.072-1.296c.012-.24.024-.651.036-1.233.012-.582 0-.975-.036-1.179a.608.608 0 0 1 .162-.468.644.644 0 0 1 .45-.216.608.608 0 0 1 .468.162c.132.12.204.27.216.45zm6.966 5.814c0 .672.027 1.683.081 3.033.054 1.35.081 2.361.081 3.033 0 .18-.063.333-.189.459a.625.625 0 0 1-.459.189.625.625 0 0 1-.459-.189.625.625 0 0 1-.189-.459c0-.672-.027-1.683-.081-3.033a83.118 83.118 0 0 1-.081-3.033c0-.18.063-.333.189-.459a.625.625 0 0 1 .459-.189c.18 0 .333.063.459.189a.625.625 0 0 1 .189.459zm-.198-3.33c0 .18-.063.333-.189.459a.625.625 0 0 1-.459.189.625.625 0 0 1-.459-.189.625.625 0 0 1-.189-.459c0-.18.063-.333.189-.459a.625.625 0 0 1 .459-.189c.18 0 .333.063.459.189a.625.625 0 0 1 .189.459zm2.466 1.53c.24.744.594 1.68 1.062 2.808.72 1.704 1.116 2.646 1.188 2.826l.018.072.054-.216c.132-.42.288-.876.468-1.368l.45-1.278.522-1.386.504-1.278a.666.666 0 0 1 .351-.36.618.618 0 0 1 .495-.009c.168.066.288.18.36.342a.644.644 0 0 1 .018.495l-.612 1.566a48.517 48.517 0 0 0-.783 2.034 29.27 29.27 0 0 0-.513 1.602l-.378 1.224a7.94 7.94 0 0 1-.18.522l-.126.234a.495.495 0 0 1-.126.144.63.63 0 0 1-.504.198c-.456-.024-.732-.312-.828-.864a2 2 0 0 1-.036-.27v-.09l-.18-.414c-.084-.192-.15-.336-.198-.432-.06-.168-.444-1.104-1.152-2.808a43.401 43.401 0 0 1-1.098-2.898.597.597 0 0 1 .036-.495.63.63 0 0 1 .378-.324.623.623 0 0 1 .495.045c.162.084.267.21.315.378zm8.28 5.004c1.452-.048 2.418-.348 2.898-.9.228-.264.369-.555.423-.873.054-.318.027-.579-.081-.783-.228-.504-.678-.678-1.35-.522-.792.18-1.35.564-1.674 1.152-.324.588-.396 1.23-.216 1.926zm-1.134.702a4.44 4.44 0 0 1-.234-1.188 4.041 4.041 0 0 1 .117-1.224c.102-.408.267-.783.495-1.125.228-.342.543-.648.945-.918.402-.27.873-.465 1.413-.585.648-.156 1.224-.114 1.728.126s.87.618 1.098 1.134c.216.456.273.966.171 1.53a3.125 3.125 0 0 1-.729 1.512c-.66.744-1.728 1.176-3.204 1.296.312.324.672.546 1.08.666.828.24 1.758.006 2.79-.702a.635.635 0 0 1 .477-.099c.174.03.312.12.414.27a.641.641 0 0 1-.171.909c-1.356.936-2.646 1.224-3.87.864a3.539 3.539 0 0 1-1.422-.792 3.93 3.93 0 0 1-.954-1.332.586.586 0 0 1-.144-.342zm14.832-.702c1.452-.048 2.418-.348 2.898-.9.228-.264.369-.555.423-.873.054-.318.027-.579-.081-.783-.228-.504-.678-.678-1.35-.522-.792.18-1.35.564-1.674 1.152-.324.588-.396 1.23-.216 1.926zm-1.134.702a4.44 4.44 0 0 1-.234-1.188 4.041 4.041 0 0 1 .117-1.224c.102-.408.267-.783.495-1.125.228-.342.543-.648.945-.918.402-.27.873-.465 1.413-.585.648-.156 1.224-.114 1.728.126s.87.618 1.098 1.134c.216.456.273.966.171 1.53a3.125 3.125 0 0 1-.729 1.512c-.66.744-1.728 1.176-3.204 1.296.312.324.672.546 1.08.666.828.24 1.758.006 2.79-.702a.635.635 0 0 1 .477-.099c.174.03.312.12.414.27a.641.641 0 0 1-.171.909c-1.356.936-2.646 1.224-3.87.864a3.539 3.539 0 0 1-1.422-.792 3.93 3.93 0 0 1-.954-1.332.586.586 0 0 1-.144-.342zM81 5.972c.24.264.642.672 1.206 1.224.528.516.918.912 1.17 1.188l.756-.936c.432-.552.762-1.014.99-1.386a.653.653 0 0 1 .405-.279.625.625 0 0 1 .486.072.61.61 0 0 1 .288.396.676.676 0 0 1-.063.495c-.264.42-.63.924-1.098 1.512l-.9 1.116 1.044 1.278a40.692 40.692 0 0 0 1.8 2.07c.12.132.18.288.18.468 0 .18-.066.33-.198.45a.673.673 0 0 1-.468.18.583.583 0 0 1-.45-.198c-.492-.516-1.116-1.236-1.872-2.16l-.81-.99-2.088 3.006a.65.65 0 0 1-.423.261.641.641 0 0 1-.486-.108.608.608 0 0 1-.27-.414.692.692 0 0 1 .099-.495l2.304-3.276-.108-.108a23.895 23.895 0 0 0-1.188-1.224 58.552 58.552 0 0 1-1.278-1.278.608.608 0 0 1-.162-.468.644.644 0 0 1 .216-.45.608.608 0 0 1 .468-.162c.18.012.33.084.45.216zM94.212 7.34v-.486a.824.824 0 0 0-.018-.216c-.096-.276-.378-.408-.846-.396-.54.024-.984.18-1.332.468-.156.12-.384.39-.684.81-1.044 1.452-1.464 2.76-1.26 3.924.12.636.558 1.08 1.314 1.332.36.12.732.171 1.116.153a2.633 2.633 0 0 0 1.026-.243c.072-.036.138-.075.198-.117.06-.042.108-.081.144-.117.036-.036.084-.09.144-.162.06-.072.102-.126.126-.162l.18-.252c.072-.108.132-.192.18-.252a.592.592 0 0 1 .414-.261.63.63 0 0 1 .486.108.623.623 0 0 1 .261.423.61.61 0 0 1-.117.486c0 .012-.057.102-.171.27a6.364 6.364 0 0 1-.243.342c-.048.06-.132.153-.252.279-.12.126-.24.234-.36.324a2.28 2.28 0 0 1-.414.243 3.857 3.857 0 0 1-1.539.387A3.981 3.981 0 0 1 90.972 14a3.524 3.524 0 0 1-1.422-.864 2.629 2.629 0 0 1-.738-1.476c-.276-1.512.216-3.144 1.476-4.896.36-.504.66-.858.9-1.062.252-.204.57-.375.954-.513a3.736 3.736 0 0 1 1.152-.225c.456-.024.882.06 1.278.252s.678.522.846.99c.06.18.09.396.09.648v.414a.608.608 0 0 1-.162.468.644.644 0 0 1-.45.216.608.608 0 0 1-.468-.162.644.644 0 0 1-.216-.45zm4.212 3.366c1.452-.048 2.418-.348 2.898-.9.228-.264.369-.555.423-.873.054-.318.027-.579-.081-.783-.228-.504-.678-.678-1.35-.522-.792.18-1.35.564-1.674 1.152-.324.588-.396 1.23-.216 1.926zm-1.134.702a4.44 4.44 0 0 1-.234-1.188 4.041 4.041 0 0 1 .117-1.224c.102-.408.267-.783.495-1.125.228-.342.543-.648.945-.918.402-.27.873-.465 1.413-.585.648-.156 1.224-.114 1.728.126s.87.618 1.098 1.134c.216.456.273.966.171 1.53a3.125 3.125 0 0 1-.729 1.512c-.66.744-1.728 1.176-3.204 1.296.312.324.672.546 1.08.666.828.24 1.758.006 2.79-.702a.635.635 0 0 1 .477-.099c.174.03.312.12.414.27a.641.641 0 0 1-.171.909c-1.356.936-2.646 1.224-3.87.864a3.539 3.539 0 0 1-1.422-.792 3.93 3.93 0 0 1-.954-1.332.586.586 0 0 1-.144-.342zm9.36-2.79c.3-.588.642-1.086 1.026-1.494.948-1.02 1.932-1.326 2.952-.918.204.072.42.204.648.396l.162.153c.096.09.174.153.234.189a.622.622 0 0 1 .252.432.64.64 0 0 1-.126.486.622.622 0 0 1-.432.252.64.64 0 0 1-.486-.126 43.802 43.802 0 0 0-.45-.396 1.356 1.356 0 0 0-.27-.198c-.468-.18-.978.024-1.53.612a5.323 5.323 0 0 0-1.152 1.926c-.084.252-.15.495-.198.729a5.497 5.497 0 0 0-.09.54c-.012.126-.021.363-.027.711-.006.348-.015.618-.027.81 0 .024.003.057.009.099a3.536 3.536 0 0 1 .027.441c.012.192.006.342-.018.45-.084.3-.27.468-.558.504-.228.036-.432-.036-.612-.216-.252-.24-.342-.57-.27-.99a3.517 3.517 0 0 1 .063-.261.148.148 0 0 0 .009-.045v-.054a10.496 10.496 0 0 0-.072-1.134 46.743 46.743 0 0 0-.432-3.168 16.085 16.085 0 0 0-.666-2.538.619.619 0 0 1 .027-.495.63.63 0 0 1 .369-.333.619.619 0 0 1 .495.027.63.63 0 0 1 .333.369c.336.948.606 2.028.81 3.24zm12.222-1.278v-.486a.824.824 0 0 0-.018-.216c-.096-.276-.378-.408-.846-.396-.54.024-.984.18-1.332.468-.156.12-.384.39-.684.81-1.044 1.452-1.464 2.76-1.26 3.924.12.636.558 1.08 1.314 1.332.36.12.732.171 1.116.153a2.633 2.633 0 0 0 1.026-.243c.072-.036.138-.075.198-.117.06-.042.108-.081.144-.117.036-.036.084-.09.144-.162.06-.072.102-.126.126-.162l.18-.252c.072-.108.132-.192.18-.252a.592.592 0 0 1 .414-.261.63.63 0 0 1 .486.108.623.623 0 0 1 .261.423.61.61 0 0 1-.117.486c0 .012-.057.102-.171.27a6.364 6.364 0 0 1-.243.342c-.048.06-.132.153-.252.279-.12.126-.24.234-.36.324a2.28 2.28 0 0 1-.414.243 3.857 3.857 0 0 1-1.539.387 3.981 3.981 0 0 1-1.593-.225 3.524 3.524 0 0 1-1.422-.864 2.629 2.629 0 0 1-.738-1.476c-.276-1.512.216-3.144 1.476-4.896.36-.504.66-.858.9-1.062.252-.204.57-.375.954-.513a3.736 3.736 0 0 1 1.152-.225c.456-.024.882.06 1.278.252s.678.522.846.99c.06.18.09.396.09.648v.414a.608.608 0 0 1-.162.468.644.644 0 0 1-.45.216.608.608 0 0 1-.468-.162.644.644 0 0 1-.216-.45zm4.14.162c0 .672.027 1.683.081 3.033.054 1.35.081 2.361.081 3.033 0 .18-.063.333-.189.459a.625.625 0 0 1-.459.189.625.625 0 0 1-.459-.189.625.625 0 0 1-.189-.459c0-.672-.027-1.683-.081-3.033a83.118 83.118 0 0 1-.081-3.033c0-.18.063-.333.189-.459a.625.625 0 0 1 .459-.189c.18 0 .333.063.459.189a.625.625 0 0 1 .189.459zm-.198-3.33c0 .18-.063.333-.189.459a.625.625 0 0 1-.459.189.625.625 0 0 1-.459-.189.625.625 0 0 1-.189-.459c0-.18.063-.333.189-.459a.625.625 0 0 1 .459-.189c.18 0 .333.063.459.189a.625.625 0 0 1 .189.459zm6.102 2.934a4.7 4.7 0 0 1-.396-.09l-.324-.072a1.78 1.78 0 0 0-.252-.018c-.144 0-.333.06-.567.18-.234.12-.441.282-.621.486-.372.396-.486.732-.342 1.008.108.168.456.348 1.044.54.204.06.351.108.441.144.09.036.237.102.441.198a1.664 1.664 0 0 1 .846.828c.24.564.309 1.071.207 1.521-.102.45-.321.849-.657 1.197a2.71 2.71 0 0 1-1.116.684 2.14 2.14 0 0 1-1.314-.018 2.666 2.666 0 0 1-.684-.414 2.972 2.972 0 0 1-.216-.144l-.252-.216a.641.641 0 0 1-.171-.909c.102-.15.24-.24.414-.27a.635.635 0 0 1 .477.099c.012.012.192.15.54.414.144.108.264.18.36.216.132.048.294.045.486-.009s.372-.171.54-.351c.372-.372.45-.78.234-1.224-.084-.168-.408-.342-.972-.522a.296.296 0 0 1-.09-.018c-.24-.084-.435-.156-.585-.216a2.93 2.93 0 0 1-.567-.333 1.668 1.668 0 0 1-.522-.585 1.36 1.36 0 0 1-.234-.927 2.47 2.47 0 0 1 .243-.864c.126-.246.291-.477.495-.693a3.55 3.55 0 0 1 1.017-.792c.39-.204.765-.306 1.125-.306.132 0 .279.015.441.045.162.03.321.063.477.099.156.036.246.06.27.072.18.024.321.111.423.261a.641.641 0 0 1-.162.9.596.596 0 0 1-.477.099zm3.51 3.6c1.452-.048 2.418-.348 2.898-.9.228-.264.369-.555.423-.873.054-.318.027-.579-.081-.783-.228-.504-.678-.678-1.35-.522-.792.18-1.35.564-1.674 1.152-.324.588-.396 1.23-.216 1.926zm-1.134.702a4.44 4.44 0 0 1-.234-1.188 4.041 4.041 0 0 1 .117-1.224c.102-.408.267-.783.495-1.125.228-.342.543-.648.945-.918.402-.27.873-.465 1.413-.585.648-.156 1.224-.114 1.728.126s.87.618 1.098 1.134c.216.456.273.966.171 1.53a3.125 3.125 0 0 1-.729 1.512c-.66.744-1.728 1.176-3.204 1.296.312.324.672.546 1.08.666.828.24 1.758.006 2.79-.702a.635.635 0 0 1 .477-.099c.174.03.312.12.414.27a.641.641 0 0 1-.171.909c-1.356.936-2.646 1.224-3.87.864a3.539 3.539 0 0 1-1.422-.792 3.93 3.93 0 0 1-.954-1.332.586.586 0 0 1-.144-.342zm12.42-4.302a4.7 4.7 0 0 1-.396-.09l-.324-.072a1.78 1.78 0 0 0-.252-.018c-.144 0-.333.06-.567.18-.234.12-.441.282-.621.486-.372.396-.486.732-.342 1.008.108.168.456.348 1.044.54.204.06.351.108.441.144.09.036.237.102.441.198a1.664 1.664 0 0 1 .846.828c.24.564.309 1.071.207 1.521-.102.45-.321.849-.657 1.197a2.71 2.71 0 0 1-1.116.684 2.14 2.14 0 0 1-1.314-.018 2.666 2.666 0 0 1-.684-.414 2.972 2.972 0 0 1-.216-.144l-.252-.216a.641.641 0 0 1-.171-.909c.102-.15.24-.24.414-.27a.635.635 0 0 1 .477.099c.012.012.192.15.54.414.144.108.264.18.36.216.132.048.294.045.486-.009s.372-.171.54-.351c.372-.372.45-.78.234-1.224-.084-.168-.408-.342-.972-.522a.296.296 0 0 1-.09-.018c-.24-.084-.435-.156-.585-.216a2.93 2.93 0 0 1-.567-.333 1.668 1.668 0 0 1-.522-.585 1.36 1.36 0 0 1-.234-.927 2.47 2.47 0 0 1 .243-.864c.126-.246.291-.477.495-.693a3.55 3.55 0 0 1 1.017-.792c.39-.204.765-.306 1.125-.306.132 0 .279.015.441.045.162.03.321.063.477.099.156.036.246.06.27.072.18.024.321.111.423.261a.641.641 0 0 1-.162.9.596.596 0 0 1-.477.099z"/>
</svg>
