<svg xmlns="http://www.w3.org/2000/svg" xmlns:xlink="http://www.w3.org/1999/xlink" width="389" height="420" viewBox="0 0 389 420">
    <defs>
        <rect id="a" width="257.066" height="348" rx="6"/>
        <filter id="b" width="131.5%" height="123.3%" x="-15.8%" y="-9.9%" filterUnits="objectBoundingBox">
            <feOffset dy="6" in="SourceAlpha" result="shadowOffsetOuter1"/>
            <feGaussianBlur in="shadowOffsetOuter1" result="shadowBlurOuter1" stdDeviation="12.5"/>
            <feColorMatrix in="shadowBlurOuter1" values="0 0 0 0 0.669970702 0 0 0 0 0.632569115 0 0 0 0 0.769318665 0 0 0 0.175752944 0"/>
        </filter>
        <rect id="e" width="291" height="55" rx="4"/>
        <filter id="d" width="121%" height="212.7%" x="-7%" y="-28.2%" filterUnits="objectBoundingBox">
            <feOffset dx="10" dy="16" in="SourceAlpha" result="shadowOffsetOuter1"/>
            <feGaussianBlur in="shadowOffsetOuter1" result="shadowBlurOuter1" stdDeviation="7.5"/>
            <feColorMatrix in="shadowBlurOuter1" values="0 0 0 0 0.669970702 0 0 0 0 0.632569115 0 0 0 0 0.769318665 0 0 0 0.240574049 0"/>
        </filter>
        <linearGradient id="f" x1="50%" x2="50%" y1="0%" y2="68.166%">
            <stop offset="0%" stop-color="#FFF" stop-opacity="0"/>
            <stop offset="100%" stop-color="#FFF"/>
        </linearGradient>
    </defs>
    <g fill="none" fill-rule="evenodd">
        <path stroke="#F6F4FF" stroke-linecap="square" d="M49.5 188.5h258.07M49.5 133.5h258.07"/>
        <g transform="translate(50 19)">
            <mask id="c" fill="#fff">
                <use xlink:href="#a"/>
            </mask>
            <use fill="#000" filter="url(#b)" xlink:href="#a"/>
            <use fill="#FFF" xlink:href="#a"/>
            <rect width="173" height="111" x="120" y="-54" fill="#FBFBFB" mask="url(#c)" rx="6"/>
        </g>
        <text fill="#B6B3BF" font-family="DPDorkDiary" font-size="16" font-weight="400" transform="translate(49 19)">
            <tspan x="25" y="326">Dairy</tspan>
        </text>
        <text fill="#B6B3BF" font-family="DPDorkDiary" font-size="16" font-weight="400" transform="translate(49 19)">
            <tspan x="25" y="245">Grains</tspan>
        </text>
        <text fill="#B6B3BF" font-family="DPDorkDiary" font-size="16" font-weight="400" transform="translate(49 19)">
            <tspan x="25" y="286">Meat</tspan>
        </text>
        <text fill="#B6B3BF" font-family="DPDorkDiary" font-size="16" font-weight="400" transform="translate(49 19)">
            <tspan x="25" y="202">Legumes</tspan>
        </text>
        <text fill="#B6B3BF" font-family="DPDorkDiary" font-size="16" font-weight="400" transform="translate(49 19)">
            <tspan x="35.808" y="95">Vegetables</tspan>
        </text>
        <path stroke="#F6F4FF" stroke-linecap="square" d="M49.5 237.5h258.07M49.5 279.5h258.07M49.5 320.5h258.07"/>
        <g transform="translate(42 128)">
            <use fill="#000" filter="url(#d)" xlink:href="#e"/>
            <use fill="#F6F4FF" xlink:href="#e"/>
        </g>
        <text fill="#7C5CD1" font-family="DPDorkDiary" font-size="16" font-weight="400" transform="translate(42 128)">
            <tspan x="25" y="35">Fruits</tspan>
        </text>
        <g fill="#7C5CD1">
            <text font-family="DPDorkDiary" font-size="18" font-weight="400" transform="translate(73 38)">
                <tspan x="37" y="19">Eat </tspan>
            </text>
            <path d="M85.522 38C78.605 38 73 43.6 73 50.499 73 57.404 78.605 63 85.522 63c6.918 0 12.523-5.596 12.523-12.501 0-6.9-5.605-12.499-12.523-12.499zm.677 16.469l-2.947 2.943-2.95-2.943-3.407-3.404 2.948-2.943 3.409 3.4 7.95-7.93 2.95 2.94-7.953 7.937z"/>
        </g>
        <g>
            <text fill="#A89EB1" font-family="DPDorkDiary" font-size="18" font-weight="400" transform="translate(196 38)">
                <tspan x="33" y="19">Avoid</tspan>
            </text>
            <path fill="#DFDEE2" d="M208.793 47.557l-1.022-1.023-2.946-2.944-2.943 2.944 2.943 2.942 1.024 1.023-1.024 1.024-2.945 2.946 2.945 2.943 2.941-2.943 1.026-1.026 3.97 3.971 2.94-2.945-3.966-3.969 3.969-3.968-2.945-2.94-3.967 3.965zM208.5 38c6.905 0 12.5 5.6 12.5 12.499C221 57.404 215.405 63 208.5 63S196 57.404 196 50.499c0-6.9 5.595-12.499 12.5-12.499z"/>
        </g>
        <path stroke="#7C5CD1" stroke-linecap="round" stroke-linejoin="round" stroke-width="2" d="M305 148l9.29 9.29-9.29 8.124"/>
        <path stroke="#E8E6ED" stroke-linecap="round" stroke-linejoin="round" stroke-width="2" d="M281 103l7.469 7.469L281 117M281 210l7.469 7.469L281 224M281 253l7.469 7.469L281 267M281 295l7.469 7.469L281 309M281 337l7.469 7.469L281 351"/>
        <path fill="url(#f)" d="M0 236h379v165H0z" transform="translate(0 19)"/>
        <path fill="#FFF" d="M10 367h344v22H10z"/>
        <path fill="#FFF" stroke="#CDC0F0" stroke-dasharray="7" stroke-linecap="round" stroke-linejoin="round" stroke-width="2" d="M58.489 363.074c11.611-3.913 24.835-6.309 38.03-4.411 37.641 5.414 98.313 13.75 108 6.875 7.779-5.52 51.02-6.278 67.761-6.363"/>
        <g fill="#9270EF">
            <path d="M36.611 310.892c.778.283 1.457 1.177 2.039 2.682.615 1.528.673 2.644.173 3.348-.448.666-.615 1.218-.5 1.658.097.357.49.743 1.178 1.158.433.292.86.7 1.28 1.226.214.363.52.896.917 1.599.783 1.206 2.023 2.83 3.72 4.87 1.865 2.151 3.143 3.753 3.84 4.802.286.435.726 1.058 1.317 1.869.434.754.589 1.547.463 2.38a8.345 8.345 0 0 1-1.472-1.1c-.515-.565-.91-.965-1.187-1.2-.887-.84-1.866-1.27-2.94-1.293-1.063.033-2.03.481-2.903 1.345l-.798 1.022c-1.291 1.985-3.42 2.63-6.387 1.935l-.775-.196c-1.507-.46-2.46-.606-2.86-.441-.463.148-1.054.826-1.773 2.035-.752 1.187-1.745 1.582-2.977 1.186-.861-.267-1.364-.4-1.508-.4-.646-.049-1.088-.021-1.329.084-.396.192-.626.57-.69 1.131-.144 1.04-.548 1.422-1.207 1.145-.74-.232-.936-.873-.591-1.922l4.742-15.75c.483-1.682.224-3.164-.777-4.444-.33-.369-.797-1.276-1.396-2.72-.747-1.762-.292-3.064 1.366-3.907.993-.54 1.72-.811 2.182-.814 2.243-.205 4.858-.656 7.845-1.352.417-.08.753-.06 1.008.064zm.24 3.465c-.34.038-.565.212-.679.522-.068.39-.145.664-.229.825l.039.643.576-.155c.626-.498.832-1 .618-1.508-.027-.138-.136-.248-.325-.327zm-.775-1.757c-1.519.96-2.428 2.452-2.728 4.476.88-.228 1.492-.868 1.839-1.918.503-1.572.8-2.424.89-2.558zm2.058 8.359c-1.292-1.743-2.996-2.41-5.113-1.998-1.338.26-2.305.636-2.903 1.128-.705.542-1.254 1.43-1.65 2.662l-3.996 13.35c-.146.433-.228.68-.245.74-.006.262.108.485.347.67.604.432 1.42.548 2.452.347 1.03-.2 1.707-.65 2.035-1.35.614-1.304 1.724-1.91 3.332-1.817.879.06 1.864.302 2.959.725 1.004.412 1.962.514 2.878.308.969-.217 1.742-.772 2.32-1.665 1.235-1.83 2.99-2.836 5.266-3.018-.431-.581-1.66-2.148-3.688-4.702-1.46-1.855-2.53-3.425-3.213-4.708-.049-.106-.184-.21-.407-.311-.204-.164-.33-.284-.374-.361zm-1.084 1.554c.15.029.244.067.282.118.156.201.533.807 1.134 1.817.436.754.867 1.334 1.293 1.743.032.023.051.12.056.293a9.32 9.32 0 0 1-.144.375c-.289.287-.594.289-.908.003-.217-.218-.637-.815-1.26-1.793-.624-.977-.996-1.627-1.116-1.95.067-.1.16-.292.277-.575.08-.044.207-.055.386-.031zm9.019 22.308c.223-.332.8-.633 1.731-.9.524-.13 1.288-.294 2.29-.489.841-.279 1.385-.601 1.633-.967.219-.361.244-.972.076-1.836-.178-.92-.381-1.588-.607-2.007-.357-.652-.241-1.095.35-1.325.674-.246 1.121.042 1.34.867l1.254 5.782c2.059 8.965 3.997 16.478 5.81 22.542 1.083 3.49 1.452 6.351 1.107 8.586a2.839 2.839 0 0 1-.07.534c.01.2.08.33.206.393.615.487.826.98.635 1.48-.075.217-.398.627-.975 1.23-1.533 1.628-4.103 3.356-7.707 5.184-5.156 2.765-10.178 3.843-15.066 3.232-.95-.134-1.956-.4-3.016-.801-.073-.073-.995-.5-2.764-1.284-.445-.202-.774-.557-.988-1.065-.07-.218-.175-.674-.31-1.37-.905-5.403-2.673-13.383-5.304-23.941l-1.829-7.405c-.702-2.87-1.405-5.29-2.106-7.264a6.12 6.12 0 0 1-.23-.736c-.049-.25.072-.447.363-.59.635-.297 1.112-.072 1.432.675.027.14.342 1.249.95 3.327.35.018.767-.221 1.247-.72.486-.47.978-.695 1.473-.676-.113.455-.452.94-1.018 1.455-.592.52-.923.975-.991 1.363-.08.479-.024 1.074.175 1.787.3.954.463 1.572.489 1.856.503-.243.886-.65 1.151-1.22.135-.345.343-.833.625-1.466.32-.583.672-.71 1.055-.379.215.219.186.513-.09.885l-.269.399c-2.306 2.703-2.467 5.595-.48 8.677.509-.359 1.107-1.14 1.8-2.344.696-1.176 1.373-1.929 2.032-2.259-.229 1.2-.946 2.496-2.15 3.886-1.272 1.49-1.63 3.063-1.078 4.718.093.184.325 1.223.693 3.117.435-.141.79-.399 1.064-.77.134-.2.316-.524.548-.974.315-.61.784-1.323 1.405-2.137l1.59-2.087c.353-.56.693-.67 1.02-.328.182.196.22.39.114.585-.214.244-.37.404-.47.481-1.816 2.406-2.983 3.99-3.498 4.756-.876 1.152-1.124 2.545-.75 4.177.31 1.299.752 3.265 1.321 5.9.466 2.25.698 4.258.693 6.021-.013.378 0 .665.037.86.093.329.26.585.497.77.759.778 1.432.748 2.02-.089l5.93-8.522c.141-.173.357-.475.649-.907.29-.288.686-.408 1.186-.36-3.132 4.106-5.366 7.257-6.703 9.453-.432.749-.622 1.262-.568 1.541.077.245.5.568 1.272.967.772.398 1.62.523 2.544.372.529-.102 1.345-.363 2.45-.78-.364-.536-.454-.923-.269-1.161 1.476-2.513 3.363-5.148 5.659-7.907.136.552.109 1.006-.082 1.36-.074.217-.28.503-.613.856-.33.383-1.063 1.378-2.195 2.985-.909 1.275-1.701 2.253-2.378 2.933-.245.221-.286.533-.122.935-.446.231-.65.444-.613.639.016.228.24.344.674.346 1.097-.011 2.44-.17 4.025-.48 1.031-.2 2.216-.575 3.555-1.124.718-.313 1.818-.83 3.295-1.55l-.198-.135c.763-3.357 2.315-5.783 4.654-7.278-.27.544-1.036 1.733-2.297 3.568-.987 1.464-1.634 2.745-1.942 3.846 1.44-.627 2.48-1.595 3.12-2.905.653-1.399 1.784-2.5 3.39-3.303-.112.455-.46.971-1.042 1.546-.572.632-.908 1.13-1.01 1.497 1.158-.283 1.873-.552 2.14-.806.32-.293.574-.993.764-2.1l.063-.792c.345-1.194.43-1.875.253-2.043-.15-.173-.885-.16-2.205.038-.584.114-.993.092-1.226-.065l-.374-.36c.176-.44.506-.663.998-.672.761-.09 1.157-.138 1.184-.143.759-.263 1.067-.756.926-1.48-.084-.88-.516-1.245-1.296-1.093a81.707 81.707 0 0 0-3.024.501c-1.643.32-2.679-.173-3.105-1.477-.197-.569-.807-2.068-1.829-4.5-.786-1.813-1.265-3.382-1.435-4.707-.275-1.71-.692-3.854-1.25-6.433l-1.427-6.443c-.19-.974-.186-1.625.012-1.953zm2.524-5.52c-.24.25-.5.17-.783-.237-.542-.704-.84-1.716-.893-3.035.827.389 1.47 1.247 1.93 2.573.05.25-.036.483-.254.7zm.477 6.02c-1.148.339-1.48 1.083-.996 2.232.417.959.772 2.19 1.065 3.694l1.754 9.024c.156 1.097.506 2.387 1.055 3.87.301.808.787 2.043 1.458 3.705.284.725.766 1.122 1.445 1.193.622.081 1.626-.114 3.008-.584.653-.214.944-.574.874-1.08-.23-.592-.384-1.01-.46-1.255-.87-2.836-1.861-6.373-2.972-10.608a2049.823 2049.823 0 0 0-2.823-10.723c-.494-.164-1.06-.17-1.694-.018a27.35 27.35 0 0 1-1.714.55zm3.282 30.49c-.9 1.765-1.93 3.309-3.088 4.633.393-1.55.775-2.622 1.153-3.216.404-.599 1.048-1.07 1.935-1.417zm-4.807 6.05c.135-.2.442-.476.922-.83-.03.874-.47 1.581-1.321 2.122a1.777 1.777 0 0 1 .399-1.292zM28.72 317.803c.165-.35.526-1.013 1.088-1.99.51-.792.82-1.502.93-2.13-.495-.165-.89-.116-1.187.143-.211.1-.447.376-.705.831-.823 1.114-1.31 2.104-1.46 2.972-.04.094.01.2.148.318.113.123.212.19.3.202.5.046.796-.07.886-.346zm-2.454-2.819c-.23.305-.197.775.1 1.412.38-.131.675-.392.89-.78.133-.2.32-.656.557-1.366-.803.185-1.319.43-1.547.734zm5.924 1.711c.364-.504.841-1.84 1.433-4.007-.933.558-1.724 1.317-2.374 2.282-.125.256-.63 1.221-1.518 2.897 1.224-.24 2.044-.63 2.459-1.172zm1.356 50.243c.813-1.313 1.303-2.219 1.467-2.712.041-.24.26-.296.66-.172.26.151.36.363.297.636a3.45 3.45 0 0 1-.606 1.115c-.292.433-1.284 1.723-2.977 3.873.116-.745.502-1.659 1.16-2.74zm2.117 5.31c.65-.82 1.644-2.023 2.982-3.614-.486 1.222-1.265 2.559-2.342 4.01a198.302 198.302 0 0 0-2.834 3.716c.353-1.31 1.084-2.68 2.194-4.111z"/>
        </g>
        <g>
            <path fill="#FFF" stroke="#9270EF" d="M14.342 375.833c.395.248.464.296.61.87-.247-.126-.227-.002-.45-.326-.109-.159-.118-.299-.16-.544zm7.917-5.587c-1.393.15-4.221-.253-5.31-.753.777-.022 4.79.48 5.31.753zm-9.104-2.066c-.455-.174-.047-.23.008-.297.061.129.3-.167-.008.297zm16.068-5.066c-.08-.529-.275-1.113-.423-1.696-.328-1.293-.56-.739-.233-1.533-.637-.082-.445-.19-1.058-1.506l1.15-.553c.362 1.04 1.66 3.052 1.86 4.936l-1.296.352zm-2.806-2.124c.746-.086.901-.511 1.746-.65l.905 2.898-1.004.345c-.443-.524.044-.589-.625-.698.65 1.27-.119.706-.921 1.02.367.235.812.11 1.306.097l.603 2.124-1.482.567c.451.263.614-.06 1.615-.273l.307.719c-.079-.474-.127-.346-.101-.899.36-.12.852-.31 1.116-.522-.143-.066-.836.211-1.293.275-.164-.596-.42-1.434-.538-2.046.162-.104.508-.264.76-.306.572-.095.289-.172.526.193.073-.573.483-.772 1.232-.937l.34.913c.097.41.124.514.248.913.154.498.285 1.272.492 1.677.335-.629-1.633-6.045-1.662-6.625.8.676 3.183 6.895 2.94 8.276-.41.161-.715.069-1.196.242-2.298.83-.504.33-3.296.96-1.673.379-3.026.893-4.863.813-1.746-.076-3.482-.535-5.214-.674-1.549-.123-3.34-.655-4.691-1.085-.194-1.774.884-4.371.933-4.631.474-2.492 2.007-6.176 3.702-7.962l-.21-.543c.19-.203.58-.864.8-.996.174-.106.148.081.337-.081.596-.517-.34-.385 2.212-1.974.992-.619 1.412-.762 2.907-.611.94.095 1.897.404 2.533.95 1.119.96 3.218 4.939 3.843 6.634l.653 1.975c.166.95-.026.49-.172.655-.115-.434-.609-1.69-.901-1.984-.564-.567-.373.126-.762-.697-.405-.855-2.158-4.098-2.538-4.456-.329.49 1.224 2.266 1.367 3.024-.428.21-2.288 1.042-2.577 1.382.258.16-.373.304.45.047.208-.067.501-.392 1.058-.523l.64 1.461c-.632.531-1.188.448-1.525 1.013zm-.362 26.943c.14-.575.064-1.392.025-1.701-.077-.612.224-1.188.144-1.777-.11-.822.443-2.223 1.007-2.887.418-.49.655-1.11 1.16-1.366l.12.337a6.078 6.078 0 0 1 1.24-1.053c.621-.38.05-.13.574-.594 1.287-1.136 3.086-2.594 3.718-4.31.259-.704.185-1.06.53-1.753.582-1.165.593-1.667.954-2.512.176-.413.217-.184.399-.763-.53.119-.13-.03-.412.187-.008.006-.067.285-.126.15-.01-.021-.035.057-.058.08.042-1.495.601-1.188-.04-2.781-1.617-.261-.822.103-1.989.512-.094-1.268-.384-2.64-.65-3.921-.668-3.229-.406-2.908-1.909-5.884-.115-.227-.197-.493-.307-.73-.324-.696-.593-1.672-1.068-2.322-.346-.472-.123-.102-.657-.385.138-.835.097-.637-.553-1.148-.232-.183-.3-.39-.538-.657-1.353-1.515-3.935-1.927-5.038-1.49-.344.136-.454.238-.752.418-.466.28-.548.127-.85.316-.764.474-1.921 1.28-2.466 1.99-.226.296-.655 1.06-.782 1.445-.254.773-.608.66-.889 1.498-.472 1.408-.93 1.512-2.042 4.907l-.632 1.633c-.015.385.025.49-.139.933-.76 2.055.213.111-.478 2.36-.202.659-.483.972-.994 1.208-.044.9-.17.614-.557 1.174l.22.92c.01.019.056.097.066.076.01-.021.053.047.077.072-.3.975.11.547.212 1.844.032.4.075.24.152.592.061.28.003.267.07.59.154.754.673 1.337.942 2.036l-.5.118c.229.318.161.134.38.384.131.15.18.28.33.467.506.64 1.023 1.636 1.652 2.151.802.658 2.078 2.06 2.656 2.467.164.115.36.204.46.332.253.319.053.134.074.195l.016.115c.862.326 2.059.852 2.736 1.5.25.236.738 1.572.749 2.026.03 1.333-.345 2.738-.073 3.653l-3.15 2.087c-.935.417-2.575 1.634-2.518 2.697.358.48 1.195.898 1.858 1.146.95.354 1.304.498 2.506.555l.12.163c.368.394 1.396.19 1.968.178l-.367.344 2.316-.328c.67-.186 1.48-.261 2.08-.483 1.521-.564 2.194-.445 3.441-1.738-.018-.129-.065-.327-.075-.395-.028-.21.001-.188-.029-.349-.111-.596.022-.28-.343-.461a.722.722 0 0 0-.043.095c-.008.024-.03.068-.039.098-.012.043-.03.65-.412 1.075-.6.669-.391.246-1.063.51-.184.073-.406.415-2.108.865-.907.24-1.934.112-2.83.112-1.537 0-1.382.412-2.051.328l-.627-.271c1.319-.5 3.449-.487 4.922-.578.731-.045 1.001.116 1.31-.326-1.52-.587-6.925 1.308-9.1.118-.186-.102-.726-.332-.776-.561-.13-.584.026-.642.385-1.114.632-.831 1.321-1.246 2.297-1.77.756-.406 1.056-.635 1.589-1.155 1.146-1.122.322-.37 1.185-1.438-.339-.793.195-2.425.03-3.392-.099-.58-.868-2.056-1.26-2.364-.673-.531-1.6-.83-2.337-1.364l-2.003-1.685c-.452-.36-.5-.603-.885-.953-.508-.461-.69-1.152-1.064-1.695-.157-.228-.203-.33-.33-.577-.534-1.037-.982-1.255-1.24-2.435-.278-1.262-.765-3.466-.71-4.748 1.475-.534 3.342.948 4.764 1.267 1.277.286 4.605.715 5.838.55a71.112 71.112 0 0 0 5.381-.929c.764-.167 1.514-.48 2.392-.695.973-.238 1.392-.784 2.27-.563.187-.766.352-.918 1.167-.998.15.214.147.143.192.206.229.324.274 1.616.186 2.023-.2.917-.949 3.27-1.51 3.986-.895 1.143-1.363 3.114-2.52 4.1-.898.765-1.195.787-1.66 1.227-.56.533-1.22.914-1.754 1.527-.018.022-.039.057-.058.078-.105.117-.04.075-.198.194-.087.065-.302.175-.418.236-.755.393-.238.08-.793.625l.402.331c-.915 1.19-1.19 5.873-1 6.483.019-.02.039-.054.048-.07l.46-.42z"/>
            <path fill="#9270EF" d="M24.919 385.846c-.348-.875.095-.65.112-1.067.013-.32-.137.235-.025-.525.085-.571.054.206.099-.44a19.8 19.8 0 0 0-.002-1.1c-.444.839-.505 2.564-.539 4.007-.01.404-.046.76-.096 1.124-.095.691.047.527.182.846.278.662.268 1.02.64 1.695.768.104.637.147 1.157.563.67.536.646.502.5.94.408-.005.402.041.664-.19l-1.104-1.062c-1.264-1.09-1.926-.967-1.822-4.63.197.202.048-.034.258.343.02.036.066.188.083.228l-.058-.651c-.01-.028-.038-.054-.05-.08zM32.258 373.062l-.066-.329c-.21.319-.277.224-.74.22.204-.48.13-.249.465-.656.443-.537 1.923-2.601.175-2.28l-1.812.868c.4.266 1.402-.571 2.303-.578-.002.645-.204.59-.328 1.11-.79-.014-1.392.222-2.096-.057.324.561 1.384.24 1.831.146-.215.757-.462.772-.777 1.377l-.718.01c.07.267-.177.01.351.388-.141.284-.291.454-.392.714.1-.155.42-.523.668-.66l1.136-.273z"/>
            <path fill="#9270EF" d="M26.54 387.758c-.01-.048-.05-.049-.076-.074.041 1.032.297.566.421 1.384-.033-.02-.07-.052-.094-.068l-.095.283.408-.266c.285.734.695 1.026 1.341 1.435 1.617 1.025.62.362 1.458 1.26l.177-.25c.008-.044.029-.06.045-.088-.675-.613-2.423-1.812-2.944-2.544l-.642-1.072zM32.258 373.062c-.171 1.126-2.606 3.773-2.994 4.503.788-.422 2.965-3.625 3.55-4.707.424-.788.485-.375.244-.815l-.514.783c-.298.357-.076.101-.286.236zM27.092 390.68c.204.46-.043.22.316.306.285.067.454.115.645.22.455.253.515.415.665.777l.101.25c.114-1.089-1.079-1.584-1.727-1.554zM25.925 392.972c-.178-.591-.292-1.071-.943-1.19l.943 1.19zM24.095 392.538c-.555-.472-.457.012-.49.106.583.175.338.023.817.332-.178-.126-.142-.281-.327-.438zM26.417 360.99c-.434.062-.49.12-.612.463.417-.14.44-.154.612-.463zM15.784 378.98c.095.233.004.194.217.477.31.412.057.134.36.246l-.577-.722zM25.486 383.26c.062-.08.547-.588.223-.736l-.223.736zM26.055 387.933l.204.438c.1-.131.177.037.095-.228-.047-.154-.088-.096-.299-.21zM28.774 378.06c.338-.058.178.053.337-.336-.168.145-.214.191-.337.336zM29.416 364.202c.024.147.412.132.303-.013-.089-.12-.374-.435-.303.013zM28.693 359.856l.539-.4c-.319.126-.35.293-.54.4z"/>
        </g>
        <g fill="#9270EF" stroke="#7C5CD1" stroke-opacity=".305">
            <path d="M304.678 341.156c3.361-.94 7.028-.959 10.357.122 2.932.95 5.02 3.037 7.47 4.612 2.672 1.717 4.132 4.349 4.582 7.46.992 6.846-.22 14.186-6.095 18.505-5.6 4.116-13.74 5.869-19.74 1.493-1.972 2.827-3.769 5.53-6.843 7.245-3.17 1.768-6.472 2.215-10.057 1.66-1.66-.258-3.298-.574-4.916-1.04-.903-.26-1.838-.689-2.763-.848-.46-.079-.772.08-1.224-.058-.913-.277-2.676-1.497-3.282-2.28-1.04-1.345-1.819-3.78-2.235-5.416-1.668-6.545 1.667-15.438 6.308-20.176 5.093-5.2 13.061-7.824 20.062-5.441.174-.235 2.36-4.156 8.376-5.838zm-4.85 7.925c1.256 2.44 2.319 4.687 3.25 7.292.344.959.34 1.26 1.098 1.798.242.171 1.026.266 1.095.536.119.463-.344.2-.425.51-.427.062-.585.271-.475.628l.028 1.026c.013.515-.114 1.216.045 1.692.118.353.638.64.662 1.026.006.091-.561 1.12-.603 1.268-.165.58-.176 1.26-.294 1.858-.167.85-.147 1.823-.432 2.633-.411 1.169-1.397 2.318-2.053 3.361 4.396 2.956 10.66 2.612 15.329.629 4.445-1.888 8.114-6.103 8.965-10.828.428-2.372.514-4.668.361-7.058-.078-1.228-.116-2.464-.487-3.652-.183-.587-.842-2.507-1.476-2.745-.838-.314-.22.51-.953.476-.328-.015-.743-.336-1.005-.478a9.215 9.215 0 0 1-.867-.527c-.023-.428-.192-.613-.506-.553a2.598 2.598 0 0 0-.54.035c-.163-.154-.4-.17-.584-.42-.174-.236.398-.486.317-.67-.15-.344-.804-.198-.782-.719.015-.359.877-.54 1.092-.626-3.23-3.32-8.978-4.773-13.459-4.025-2.24.374-5.523 1.287-7.353 2.654-.661.493-1.933 1.764-2.196 2.551-.472 1.411 1.597 1.21 2.248 2.328.051.1-.03-.05 0 0zm.054 2.926c-.066 1.474.138 2.95.005 4.435-.16 1.775-.779 3.48-1.44 5.124-1.244 3.095-2.815 6.131-4.942 8.718-2.099 2.552-4.65 4.644-7.474 6.367-1.395.85-2.93 1.32-4.513 1.743-.801.215-4.273.3-4.47.87 3.338 1.776 8.822 2.604 12.405 1.474 2.024-.639 4.288-1.313 6.043-2.55 1.377-.97 2.245-2.379 3.339-3.63 1.074-1.227 1.902-2.845 2.753-4.088 1.091-1.594 1.411-3.787 1.574-5.68.2-2.335.107-4.578-.695-6.781-.708-1.944-1.201-4.417-2.585-6.002-.016.353.225.258 0 0zm-29.346 17.176c-.144 3.227 1.204 5.73 3.598 7.798 2.2 1.9 6.242.942 8.762.007 4.906-1.82 9.218-5.646 11.947-10.09 2.898-4.718 6.192-11.842 2.877-17.101-3.36-5.33-12.804-2.4-17.002.385-5.928 3.932-10.404 11.852-10.182 19.001-.068 1.504-.066-2.117 0 0zm5.122 10.755c.098-.115.034-.04 0 0z"/>
            <path d="M299.726 348.937c.517-2.262 1.09 1.28 0 0 .04-.178.038.045 0 0zM305.388 347.917c.351-.964 1.783-.977 2.397-.07.732 1.083-.563.836-1.215.127l-1.182-.057zM310.868 349.083c.445-.376 2.07-.9 2.206-.22-.008-.043-.613 1.054-.63 1.06-.56.194-1.181-.539-1.576-.84.176-.149.388.296 0 0zM321.899 359.582l.374.808a.997.997 0 0 0 .571.087c.106.183.637.612.042.776-.845.233-2.195-1.068-.987-1.671.12.26-.622.31 0 0zM315.997 349.84c-.852.264-.957-.544-.14-.802 1.063-.333 1.368 1.047.14.802-.097.03.156.032 0 0zM298.718 347.974c-.33-.888.878-1.684 1.768-1.262.029.54-1.394 1.048-1.768 1.262-.095-.257.43-.246 0 0zM313.095 351.87c1.979 1.023-3.443.86 0 0 .171.088-.38.094 0 0zM322.645 351.856c-2.119 2-1.54-1.877 0 0-.393.371-.458-.558 0 0zM321.465 355.888c-.036.411-1.62 1.446-1.688.787-.066-.644 1.264-1.117 1.688-.787-.007.087-.059-.046 0 0zM317.308 346.409c-.85-.131-1.642-.916-.367-.852.607.03 1.317.764.367.852-.217-.034.126-.012 0 0zM315.27 346.057c-.359.218-1.895.158-1.396-.539.417-.581 1.224.004 1.396.54-.467.283-.145-.453 0 0zM304.846 372.216c.385 1.62-2.77.974 0 0 .058.244-.461.162 0 0zM311.344 345.959c-.369.134-1.457-.107-1.269-.652.282-.817 1.27.145 1.27.652-.116.041 0-.138 0 0zM304.764 349.49c.39-.004.719.134.988.412.489.553-3.163-.046-.988-.411.174.03-.13.022 0 0zM311.234 354.906c-.046.744-1.394.626-1.3-.09.095-.717.97-.08 1.3.09-.026.414-.28-.144 0 0zM305.225 356.305c-.58-.073-1.149-1-.248-.964.533.021 1.144.97.248.964-.228-.029.32.002 0 0zM308.777 345.009c-.601-1.198 2.565-1.64 0 0-.124-.249.45-.287 0 0zM304.087 347.466c-.228.391-1.193.83-1.393.149-.244-.833 1.16-.398 1.393-.149-.206.353-.26-.275 0 0zM308.407 366.057c-1.497.689-1.65-1.417 0 0-.71.327-.323-.277 0 0zM312.025 343.388c-.96 2.078-1.833-1.521 0 0-.207.448-.383-.318 0 0zM321.307 358.92c-1.345.924-1.277-1.626 0 0-.142.098-.18-.23 0 0zM307.529 344.245c.882.203.391.867-.332.915-.888.06.045-.81.332-.915.166.038-.162.06 0 0zM314.28 346.67c.119 1.542-2.678-.741 0 0 .033.434-.26-.07 0 0zM318.123 351.062c.514-.135.748-.121 1.269.01-.312.456-1.758.945-1.27-.01.597-.157-.143.28 0 0zM309.1 351.887c-1.362-1.91 1.617-.699 0 0-.154-.216.418-.18 0 0zM319.773 354.264c-.407 1.672-1.75-1.187 0 0-.078.323-.476-.323 0 0zM306.253 344.826c-.157.496-1.065.442-1.084-.11-.021-.603 1.01-.439 1.084.11-.014.041-.042-.309 0 0zM324.597 354.234c.058.697-.897 1.026-.964.307-.063-.679.659-.54.964-.307.036.434-.09-.068 0 0zM317.92 368.912c-.364-.718.915-.876.979-.224.054.55-.766.273-.978.224-.114-.223.665.153 0 0zM311.303 361.048c.285 1.973-2.321-1.246 0 0 .049.335-.132-.071 0 0zM309.528 361.879c-1.418.833-.753-2.122 0 0-.152.089-.08-.228 0 0zM307.552 350.659c-.058.338-.912.804-1.086.309-.187-.537.837-.68 1.086-.31-.006.036-.04-.059 0 0zM308.92 355.322c-.424 2.21-2.203-.804 0 0-.086.45-.435-.16 0 0zM309.256 371.97c-.18.34-.955.885-.96.043-.002-.553.961-.77.96-.042-.036.067.001-.409 0 0zM319.455 363.783c.84.008.375 1.027.064.876-.328-.16-.87-.885-.064-.876zM315.895 365.285c.057.617-.918.85-1 .247-.098-.716.737-.394 1-.247.033.357-.124-.07 0 0zM312.36 366.756c-1.745 1.65-1.427-1.253 0 0-.337.318-.123-.108 0 0zM308.868 367.987c1.444 1.044-1.156 1.147 0 0 .206.15-.167.166 0 0zM313.229 369.069c-1.437.765-1.174-.944 0 0-.296.157-.61-.49 0 0zM312.417 371.486c-2.1 1.064.212-1.803 0 0-.13.066.04-.332 0 0zM316.758 352.338c-.015 1.89-1.905-1.235 0 0-.003.354-.125-.081 0 0zM308.874 346.84c.406.09 1.086.505.296.686-.713.165-1.07-.626-.296-.686.11.024-.112.008 0 0zM316.53 357.214c-.6-.402.055-1.082.62-.835.615.269-.371.81-.62.835-.071-.047.353-.035 0 0zM306.097 353.559c-1.629-1.823 2.167-.129 0 0-.082-.092.35-.021 0 0zM303.237 344.254c-.164 2.284-2.136-.988 0 0-.037.516-.013-.006 0 0zM324.474 357.785c-.021.728-.772.393-.924-.05-.13-.377.943-.597.924.05zM314.732 359.572c.87 1.346-1.165.991 0 0 .152.234-.228.194 0 0zM305.06 369.453c.75.023.437.743-.019.89-.438.143-.581-.909.02-.89zM306.622 363.677c.285 1.522-1.29.994 0 0 .068.36-.306.236 0 0zM316.466 372.153c-.958.122-.048-.91-.044-.835-.002-.03 1.024.71.043.835zM313.277 355.025c.606.151.476.848-.195.73-.57-.1-.26-.69.195-.73.083.021-.063.005 0 0zM313.971 362.603c.41-1.38 1.627.135 0 0 .186-.625.223.018 0 0zM312.9 358.777c-.045 1.574-1.733-.287 0 0-.016.559-.172-.028 0 0zM321.501 366.033c-.17 1.96-1.628-1.432 0 0-.029.343-.083-.075 0 0zM315.746 368.008c-1.174-1.62 1.774-.04 0 0-.066-.09.356-.008 0 0zM309.595 358.209c.03.994-.808.074-.821.076-.043.004.792-1.063.821-.076zM306.675 359.643c1.694-.009-1.335 1.677 0 0 .35-.002-.082.102 0 0zM318.081 360.46c1.089-.118.02.989.004.803-.002-.024-.767-.719-.004-.802zM323.4 363.57c-1.1.747-1.27-.761 0 0-.245.167-.287-.173 0 0zM304.613 352.387c-.1.635-1.159.3-.914-.05.176-.25 1.027-.664.914.05zM311.05 364.158c-.157.997-.92-.113-.837-.106-.029-.002.969-.74.836.106zM323.973 351.53c-1.03-.951.944-1.164 0 0-.182-.167.176-.216 0 0zM319.979 365.849c1.172.876-1.254 1.057 0 0 .095.07-.099.082 0 0zM295.235 361.59c-.151.627.06 1.355-.117 2.024-.206.775-.621 1.448-1.075 2.1-.637.919-1.783 1.71-2.225 2.406-.359.564-.402 1.405-.86 2.051-.376.532-.82 1.04-1.247 1.534-.493.572-.793.93-1.519 1.195-.534.194-1.038.082-1.521.455-1.207.928-1.557 2.018-3.158 2.602-.548.2-1.189.444-1.781.287-.318-.084-.486-.31-.753-.445-.833-.423-.347-.602-1.202-.387-1.41.354-2.157 1.373-3.778.767-1.443-.54-2.202-1.586-2.715-2.911-.42-1.086-1.148-1.828-1.438-3.048-.385-1.617-.316-3.09.585-4.533.36-.578.99-.984.879-1.55-.094-.479-.705-.857-.813-1.398-.374-1.89 1.173-2.244 2.164-3.296.632-.67.364-.546.524-1.605.06-.392.175-.946.395-1.286.45-.697 1.688-1.54 2.396-1.948.471-.271 1.07-.37 1.34-.604.476-.411.605-1.366 1.104-1.867.873-.875 2.615-1.61 3.875-1.636.244-.004 1.136.29 1.234.254.221-.082.372-.654.591-.803.583-.396.907-.774 1.652-.917 1.537-.297 2.447.643 3.166 1.854 1.132-.905 2.78-2.219 4.392-1.671 1.601.543.442 2.837 1.387 3.79 2.203 2.216-.8 5.75-1.482 8.587zm-18.748 13.776c1.285.377 2.62-.275 3.281-1.38.843-1.408 1.144-3.544 1.535-5.108.324-1.294.954-2.692.954-4.005-.552.233-1.247 1.201-1.784 1.61a44.041 44.041 0 0 0-2.17 1.733c-1.51 1.304-3.33 2.63-3.929 4.621.071.078.696 2.112 2.113 2.529zm11.468-13.443c1.997-.196 5.19-.566 6.585-2.047.708-.75 3.196-4.651 1.767-5.674-1.17-.836-4.698 2.239-5.543 2.963-.818.701-4.949 4.285-2.809 4.758.15-.015-.117-.026 0 0zm-8.695 1.33c-1.06-.043-2.375.481-3.4.756-2.225.597-3.324 2.87-3.212 5.128.046.926.586 2.408 1.476 2.143.88-.262 2.15-2.014 2.794-2.647.74-.727 5.249-4.249 4.67-5.322-.365.086-1.388-.02-2.328-.058zm3.384-11.367c-.844.435-1.786 1.062-2.28 1.899-.656 1.107-.076 1.773.385 2.799.456 1.015 1.325 2.452 2.716 2.402 1.75-.063 1.877-3.557 2.136-4.765-.095-.67-.632-3.534-2.957-2.335zm11.408-1.855c-2.327-.303-4.19 3.55-5.03 5.173-.555 1.073-1.06 2.145-1.693 3.175-.59.96-.91 1.411.227.856.89-.436 1.96-1.668 2.785-2.293 1.078-.817 2.454-1.58 3.391-2.55.913-.941 3.058-4.426.32-4.36-.587-.077 1.193-.029 0 0zm-8.398 21.979c-.194-2.235-1.273-4.497-1.786-6.682-1.347.382-1.88 3.65-1.988 4.78-.076.8-.034 1.59-.25 2.36-.254.907-.837 1.536-.117 2.456.896.37 4.327-.787 4.141-2.914zm4.82-3.524c-.092-1.124-2.387-2.847-3.301-3.43-2.302-1.471-2.295.614-1.961 2.272.25 1.242.667 4.107 2.039 4.652.227-.093 3.365-1.744 3.222-3.494zm.123-1.873c1.626.2 2.812-1.453 3.29-2.817.754-2.156-.675-1.921-2.374-1.81-1.469.095-4.228.147-5.057 1.698.429.33 2.561 2.735 4.14 2.93zm-14.245-8.227c-.065 1.012-.13.748.679 1.262.752.48 2.046.55 2.9.823.749.24 2.101 1.305 2.423.288.167-.526-.272-1.085-.563-1.462-.929-1.208-1.928-2.398-2.9-3.586-.8.087-2.447 1.238-2.539 2.675zm13.048-6.953c.145-.933.198-.984-.693-1.072-.39-.038-1.554.413-1.83.683-.796.78-.647 2.717-.819 3.77-.2 1.221-.468 2.417-.635 3.642 1.906-.077 3.82-6.026 3.977-7.023zm-7.88 10.862c-.925-.425-1.78-.521-2.685-1.026-.736-.41-2.116-1.35-3.017-1.298-1.402.08-3.36 2.414-1.83 3.59.38-.018 5.086-.745 7.532-1.266zm1.746-1.024c-.099.356-.608.837-.655 1.15-.214 1.428 1.371 1.469 2.387.91.754-.414 1.535-2.042 1.39-2.88-.294-1.698-2.108-.777-3.105-.658-.01.576.078 1.138-.017 1.478z"/>
        </g>
        <path fill="#FFF" d="M26.103 360.967c.67-.077.81-.46 1.57-.584l.813 2.606-.903.31c-.397-.47.04-.53-.561-.628.585 1.142-.107.635-.829.917.33.212.73.1 1.175.088l.542 1.91-1.332.51c.405.236.552-.054 1.452-.246l.276.647c-.071-.427-.115-.31-.092-.808.325-.108.767-.28 1.004-.47-.128-.06-.751.19-1.162.247-.148-.535-.377-1.289-.484-1.84.145-.093.457-.237.684-.275.513-.085.259-.155.472.174.066-.516.434-.695 1.108-.843l.306.821c.087.37.112.463.223.821.138.448.256 1.144.443 1.509.3-.566-1.47-5.436-1.495-5.958.72.607 2.862 6.2 2.643 7.442-.368.145-.642.062-1.075.218-2.066.746-.453.296-2.964.864-1.504.34-2.72.802-4.373.73-1.57-.068-3.131-.48-4.689-.606-1.393-.11-3.003-.589-4.219-.975-.174-1.596.795-3.932.84-4.166.425-2.24 1.804-5.554 3.329-7.16l-.19-.487c.172-.183.522-.777.72-.896.157-.096.134.073.303-.073.536-.465-.306-.346 1.99-1.776.892-.556 1.27-.684 2.613-.549.846.086 1.707.363 2.279.855 1.006.863 2.894 4.44 3.456 5.965l.587 1.776c.15.854-.024.442-.155.59-.103-.391-.547-1.52-.81-1.785-.507-.51-.335.113-.685-.627-.364-.768-1.941-3.685-2.282-4.007-.296.441 1.1 2.038 1.229 2.72-.385.188-2.058.937-2.318 1.242.232.145-.335.274.405.042.187-.06.45-.352.951-.47l.577 1.315c-.57.477-1.07.402-1.372.91z"/>
        <g>
            <path fill="#9270EF" d="M347.233 356l-4.276 2.527c-.955.576-3.802 1.84-4.1 2.496.71.476 1.852-1.096 4.054-2.317 1.446-.803 3.264-1.585 4.322-2.706zM331.684 302.926c.299-.347.312-.4.27-1.35-.037-.837.009-.88-.353-1.509-1.064.183-.733.042-.445 1.19.203.812.042 1.097.528 1.669zM345.511 380.51c.604-.656.214-.707.726-1.409.718-.983.652-.087.868-1.62-.752.284-.929.493-1.389 1.337-.43.79-.628 1.114-.205 1.692zM352.584 378.92c.458-.545.358-.717.805-1.456.453-.748.667-.495.14-1.197-.62.264-1.217 1.838-1.226 1.899-.142 1.184-.007.38.281.754zM343.322 380.14c.482-.317.543-.518.966-1.045.578-.722.613-.504.214-1.189-.536.223-.482.345-.916.99-1.014 1.51-.336 1.095-.264 1.243zM351.71 305.363c.194-.096.281-.163.364-.205 1.158-.569 1.073-.34 1.352-1.785-1.282.58-.36.42-1.025.952-.582.467-.937-.31-.691 1.038zM350.271 379.162c.905-.349 1.2-1.14 1.43-2.086-1.12.185-1.273.922-1.43 2.086z"/>
            <path fill="#9270EF" d="M332.83 302.583c.236-.468.395-1.593-.215-2.202-.628.665-.711 1.696.216 2.202zM347.951 379.422c.512-.497 1.095-1.422 1.164-2.198-.704.148-.468.107-.979.85-.569.833-.608.609-.185 1.348zM336.016 301.362l-.386-1.694c-.817.593-.41.844-.307 1.843l.693-.149zM388.579 279.801c.107-.621.355-.076-.118-.874-.545-.918-.122-.54-.887-.408.395.966.08 1.26 1.005 1.282zM362.952 314.283c1.003-.327 1.53-.338 1.545-1.43a2.851 2.851 0 0 0-1.545 1.43zM386.979 280.25c.451-.739.455-.377-.011-1.112-.083.144-.323-.143-.258.59.064.708-.156.058.269.522zM355.281 357.887l-.71.254c.501.416.324.287.71-.254z"/>
            <path fill="#FFF" d="M323.606 366.135l-3.177-12.587-.914-7.134.569-4.26 12.072 1.638v26.914z"/>
        </g>
        <path fill="#FFF" d="M29.85 377.055l4.313-4.905-.57-3.107-1.397.135-4.64 2.972z"/>
        <path fill="#9270EF" stroke="#7C5CD1" stroke-opacity=".322" d="M332.632 379.686c-.463.277-.6.828-.581 1.42l-1.093-.077 1.515-1.586.159.243zm12.19-5.455c-.116 1.06-.818 1.448-1.722 1.893l.158-1.11 1.564-.783zm-.082-5.62c.09-1.032.324-1.116 1.058-1.704.346-.278 1.143-.926 1.452-.98l-.321 1.784c-.322 1.47-.438.062-.823 1.2-.127.375-.209 1.342-.344 1.855-.137.525-.327 1.025-.46 1.59l-.817.223c.239.234.535.11.725.459-.24.6-1.098 1.194-1.715 1.399.041-.627.153-.666.243-1.207.089-.541-.056-.573.015-.941.166-.853.986-.431 1.049-1.41l-.765.431c.175-.887.057-1.454.797-2.105.638-.561 1.337-.675 1.32-1.475-.809.043-.438.5-1.414.88zm5.64-21.26c-.806.398.012.048-.526.775-.127.17-.345.292-.533.42-.047-.84-.04-.83.495-1.387-.17-.859-.013.395-.366-.554.369-.274.526-.481.637-.939-.317-.153-.275.04-.507-.014-.643-2.12.208-1.048 1.18-2.247.463 2.634.567 3.17.08 5.85-.15.811-.248.453-.504 1.19-.444 1.278-1.015 5.712-1.27 6.68-.21.802-.122.333-.17 1.142-.055.895-.17.423-.424 1.047-.306.755-.787 4.382-.961 5.46-1.025.525-.058.491-.873 1.095l-1.436.832c.193-1.05.23-1.937 1.05-2.603.549-.447 1.85-1.03 1.297-1.737-.452.149-.793.934-1.437 1.207.133-1.013.148-1.514.836-2.195.884-.877 1.14-.866.104-1.56.244-2.15 1.632-.573 1.037-3.04-.3-1.243.804-2.567.733-3.4a4.232 4.232 0 0 1 .29-1.979c.568-1.424.113-.56.077-1.545-.042-1.15 1.971-1.68 1.191-2.498zm-5.011 12.775l1.12-.587c-.075 1.41-.58 1.79-1.61 2.565-1.031.777-1.54.97-2.559 1.611.18.106.249.095.733-.16 2.656-1.405.994-.408 2.562-1.023-.036.205-.116.716-.182.91-.271.78.073.087-.392.535-.435.417-.469.718-.846 1.016-.29.232-.863.448-1.213.66-.734.444-.305.45-.538.997.946-.296 2.068-1.72 2.72-1.798-.857 2.447.138 2.125-2.321 3.14-2.073.856-1.288.785-1.59 1.223-.354.51-1.342.414-1.695.922.623-.159 1.728-.644 2.356-.907.624-.26 1.724-.895 2.229-1.047-.053.989-.016 1.104-.794 1.717-1.353 1.064-.75.506-.837 1.07l1.077-.451c-.297 2.402-2.768 1.977-3.02 3.471.78-.397 1.56-1.076 2.41-1.376-.056.285-.34 1.956-.363 2.02-.18.487-.695.528-1.088.898.378.243.382.032.919-.188-.067.796-.095 1.43-.764 1.755-.71-.398.118-.388-1.218-.865-2.76-.986-1.996-.382-3.307-.425-.634-.021-.984-.152-1.72-.113-1.08.057-2.168.384-3.22.644-1.55.383-1.414.294-2.622 1.237-.07-.658-.608-2.119-.81-3.038-.133-.611-.275-1.037-.353-1.68-.146-1.217-.326-.662-.7-.929-.018-2.462-.798-4.9-1.384-7.382-.16-.683-.136-1.432-.311-2.03-.968-3.311-2.88-9.306-3.178-12.201-.224-2.173-.135-5.84.7-7.831.59.186 1.074.622 1.944.81 2.707.585 4.39.932 7.226 1.189-.034.524-.745 1.661-1.163 3.364.556-.157.442-.526 1.088-1.703 1.106-2.007.612-1.563 4.44-1.533-.418.62-1.676 2.61-1.562 3.235.617-.064.448.047.75-.72.37-.942.904-1.577 1.359-2.515.906-.087 2.16-.078 3.006-.277.99-.234 4.347-.979 4.965-1.396l2.108-.987c.48.81.58 1.55.774 2.512l-2.156 1.496c.922-.195 1.595-.902 2.245-1.026.145 1.673.458 1.524-.427 2.25-.35.287-1.39 1.092-1.537 1.417 1.086-.312 1.397-1.023 2.24-1.372-.126 1.103-1.673 1.619-2.336 2.472.854-.23 1.504-1.02 2.244-1.514.022 1.046-.085.89-.832 1.427-.995.713-3.798 2.448-4.09 2.869l4.786-2.598c-.105.632-.138.155-.178.71-.052.72.349.57-1.209 1.745-.546.413-2.028 1.212-2.375 1.672-.391.516.144.138-.479.606-1.002.754-4.144 1.873-4.566 2.396.47.212 5.766-2.809 6.442-3.322.45-.34 1.475-1.12 1.946-1.355l-.47 2.231-.883.017c.734.703-1.092 1.29-2.035 2.063l.605-.039c.035.003.094.02.122.022l-1.751 1.796c1.565-.693 2.659-1.818 3.768-2.948-.84 4.75-1.779 2.7-3.296 4.845.777-.235 1.452-.873 2.163-1.19l-1.067.99zm5.016-18.491c.214.685.47.98-.052 1.514-.311.32-.815.671-1.191.788l-.295-1.22 1.538-1.082zm-9.498-7.28c-.506 1.431-2.639 6.065-3.441 7.233l-2.697-.224c.617-2.451 2.456-4.264 3.24-6.497l2.898-.513zm-12.41-1.1c-.679-.11-.651.018-.963-.545l.964.545zm4.155 46.43c.29-.1.909-.798.84-1.266-1.271-.189-2.16 2.578-3.722 2.176-.598-.153-.708-.342-1.671-.523-.538-1.147-.4-2.146-.581-3.294-.296-1.874-.915-4.375-1.723-6.064-.571-1.199.32-.526-.167-1.54-.358-.747-.43-.58-.296-1.448-.018-.007-.052-.006-.057.014-.025.115-.328.02-.401-.306-.203-.91.2-.637-.645-3.706l-3.256-13.986c-.527-3.47-.264-6.239 1.072-9.557.86-2.138 1.053-4.596 1.338-5.528.09-.293.248-.743.346-1.037.263-.784.513-1.412.689-2.277.903.784 1.614 1.026 2.39 1.648.243.193.1.105.241.225 1.613 1.345 4.396 1.197 6.395 1.284.852.038 1.046.277 1.7.333.777.065 1.224-.2 2.108.01-.51 1.554-.588.45-1.093 1.255-.187.299-.643 1.648-.845 2.114-.537 1.239-2.115 2.516-1.836 3.879.797.28 1.042-.22 1.826-.243.376-.012.662.13.968.17.371.045.574-.04 1.037-.019.261.469-.25.286.325.671.61-.496.109-.792 1.351-.949.037-2.067 1.27-3.731 2.084-5.526.655-1.444.177-.915.38-1.945 1.215-.499 2.367-.525 3.705-1.28.928-.523.881-.084 1.483-.676.25-.246 1.018-1.104 1.204-1.19-.128.462.068.854.218 1.328l-.788.342c.498 1.46-.877 1.37-1.565 2.313.969-.053 2.034-1.122 2.428-1.942 1.007 3.153.237 1.959-1.194 3.682.92-.12.94-.543 1.695-.78.809 1.722.977 3.236 1.558 4.948-.31.424-.93 1.101-1.557 1.297-.306-2.359.356-.768.854-2.127l-1.264.392c-.82-1.337.812-.814.654-1.935-.505.006-.751.467-1.14.832-1.817-.169-5.56-1.12-7.292-.786-.623.12-.594.28-.684.648.696.773 1.354-.558 4.022.196 3.275.926 1.372.378 2.583 1.004.427.22.438.002.859.339-.068.733-.737.877-1.444 1.141-.907.337-.288-.066-.853.55-.454.497-.228.354-.932.464-.768.12-1.471.306-2.212.426-1.384.228-1.203-.201-2.138.605-.64.264-5.674.063-6.855-.073-.38-.044-1.742-.269-1.983-.248-1.31.109-2.294-.272-3.683-.468-.426-.06-1.352-.377-1.791-.53-.632-.218-1.257-.398-1.316-1.06.39-.343 1.316-.46 1.877-.874.991-.73 4.057-1.072 5.394-1.137.873-.043 2.4.257 2.679-.457-1.055-.704-8.21.511-9.925 1.283-.809.363-.884.204-1.123 1.195-.322 1.33-.603 2.774-.726 4.145-.197 2.209.366 5.865 1.064 8.001.178.547 1.653 5.866 1.678 6.547.026.75.036-.035-.39.69l1.955 6.307c.195.732.149 1.547.373 2.42.353 1.38.98 2.98 1.254 4.354.69 3.476.29 1.887 1.312 3.972l.103.221c1.657-.44 3.08-1.423 4.821-1.597.839-.085.894.135 1.803-.032 2.483-.456 1.6.035 3.365.502.621.164 1.023.153 1.705.45 2.187.95.848-.553 3.21-1.807-.11.297-.255.566-.351.864-.114.36-.159.744.083 1.06.44-.419.238-.548.456-1.199.136.2.086-.084.125.36.03.329.027.226-.055.512-.076.266-.224.5-.4.705-.813.933-.59.386-.515 1.337l-.944.4c.047-.768.438-1.192.22-1.53-.958.299-.131 1.249-1.207 1.844-2.045 1.13-6.198 1.11-8.422 1.06.266-.871 1.026-1.287.766-1.903-.956.253-.574 2.064-1.753 1.809-.118-.467.211-.989.199-1.478zm9.869-47.14c.509-.934 1.333-1.897 1.911-2.944.426-.77.712-.584 1.352-.014.767.686.304.896.743 1.566-1.102.22-1.019 1.312-4.006 1.391zm-16.847-2.21l.2 1.157-.875-.5.675-.657zm4.506.274l.146 1.012c.613-.192.153.04.342-.532 0 0 .078-.274.107-.364.064-.194.07-.106.13-.354.191-.796-.155-1.027.031-1.554l.102.4c.178.876-.032.614.361.918.234-.292.066-.075.195-.769.061-.333.041-.265.17-.614.248.732-.366.48.277.973l.162-.532c.028-.123.03-.322.082-.534.93-.45 7.48-.644 8.295-.255.324.348-2.43 3.978-2.967 5.398-1.276.016-3.571-.141-4.782-.43-.723-.172-1.51-.248-2.202-.443-2.07-.582-1.717-.048-1.707-.924.396.642-.104.364.677.511-.06-.487-.442-2.653-.658-2.863-.297.397-.311.68.042 1.711-.349.62-.086.03-.459.54-.082.112-.158.296-.28.496l-1.991-.733.02-1.859c1.18-.674 2.721-.638 4.042-.878l.2 1.557-.335.122zm9.168 1.842c.296-.417.32-.77.612-1.254.623-1.034.44-.126 1.411-2.162.28-.586.476-.621.691-.94.203-.3-.011.04.147-.555l.901-1.742c.267-.417.5-.705.772-1.09.383-.541.249-.677.593-1.14.57.093 1.569.8 2.113 1.134-.981 1.649-.82.75-1.287 1.857-.28.096-.267-.094-.535-.02-.17.578.15.24-.19.757-.213.323-.365-.217-.291.936-.412-.312-.143-.256-.681-.2l.179 1.244c-.195-.578-.107-.478-.635-.342-.085.487.085 1.044-.011 1.44-.056.225-.388.665-.527.99-.018-.03-.027-.082-.032-.101l-.057-.19c-.007-.022-.018-.07-.025-.09l-.192-.34-.65 1.234c.604-.12.298-.042.79-.393-.4 1.547-.945 1.84-2.481 2.11l-.615-1.143zm5.586-9.309c.445-.73.542-.337.838-1.369 1.65-.202.19-.2 1.182-.34.4.482.76.968 1.39 1.06-.066-.335-.88-1.201-1.204-1.576l.951-.833c.145.178 1.194 1.68 1.31 1.94-.277.38-.987.683-1.363 1.088-.387.417-.807.865-1.266 1.27l-1.838-1.24zm5.604-4.219c.075.099.024-.014.18.278.091.171.076.142.145.324l.531 1.657c-.59.387-.685.606-1.476.702-.54-.65-.86-1.5-1.29-2.17l1.91-.79zm5.892-2.342c.871-.256.89-.177 1.697-.323.492-.087 1.096-.435 1.572-.6.495-.173 1.017-.32 1.544-.456.7-.183 2.548-1.039 3.047-.68.139.973-.145-.359-.13 1.076.006.464.112.834.119 1.17-.409.269-2.034.573-2.544.606-.537-.322 0-.165-.741-.478l.187.694-1.123.382c-.388-.504-.008-.383-.493-.787l-.105.214c-.091.393-.001-.134-.041.279-.057.597.311.343-.632.759l-.215-.24c-.138-.148.039-.025-.138-.165-.317-.25-.08-.142-.451-.085-.01.03-.025.073-.025.086l.19.568-.774.32-.465-.57-.167.423c-.013.037-.012.088-.027.124l-.099.207c-.106.125-.624.273-.794.333l-.677-.497-.003.868-.884.225c-.18-.784.04-.62-.453-.731-.32.668.207.336-.163 1.026-.653-.3-.324-.55-1.026-.565-.001.624.035.312.365.85-1.354.11-.347.126-1.126.375-.324-.403-.519-1.634-.657-2.202.536-.777.246-.359.233-.631-.002-.027-.016-.042-.016-.064l5.015-1.511zm-11.178 11.512c.372-1.38 1.51-2.27 2.064-3.057.216-.31.17-.36.329-.594 1.089-1.585 4.542-2.991 6.406-3.573 1.091-.34 2-.65 3.104-.923.734-.18.764-.42 1.304-.717.219-.121 1.236-.496 1.468-.542.775-.152.787-.018 1.683-.35.497-.181 1.009-.343 1.502-.525.679-.251 2.343-.682 2.764-1.09l-1.339-2.918c-1.25-.143-12.967 3.422-14.456 4.195-2.978 1.548-5.405 3.916-7.184 6.813-.478.78-1.196 2.302-1.775 2.87-1.906-.646-7.063-.57-9.175-.119-1.599.342-4.809.898-6.135 1.618-.213.116-.588.376-.78.466-.617.292-.466.002-.922.318l-2.067 7.432c-.288 1.12-.525 2.792-1.186 3.62-.862 1.085-.882 4.687-.965 6.205-.136 2.47.63 1.076.377 3.008-.053.404-.048.46.016.93.091.67.262 1.296.424 1.944.595 2.395 1.345 4.913 1.992 7.333.211.791.24 1.357.415 2.081l1.424 5.533c.199 1.309.486 2.657.94 3.923.32.896.22 1.153.389 1.93.089.41.481 1.248.646 1.71.356.982-.087.844.259 1.887.236.713.47.873.53 1.626.103 1.294 1.003 2.12 2.25 2.247 1.582.16 3.787.759 6.057.69 1.955-.062 4.29-.33 6.07-1.12 1.807-.8.471.976 2.946-1.393 1.355-1.296.505-.534 1.198-3.626.29-1.295.4-2.653.702-3.953.292-1.249.787-2.597 1.05-3.764.277-1.233.282-2.64.605-4.062.572-2.524 1.318-4.961 1.782-7.525.518-2.85.816-4.918 1.903-7.611.995-2.462.17-3.202-.054-4.018l-2.744-11.374c-.208-.889-.413-3.117-.98-3.684-.416-.413-.818-.56-1.249-1.085-.635-.77-.9-.477-1.588-.756z"/>
    </g>
</svg>
