<svg xmlns="http://www.w3.org/2000/svg" width="36" height="40" viewBox="0 0 36 40">
    <g fill="#9270EF" fill-rule="evenodd">
        <path d="M18.72 22.43c2.53 0 4.6-.12 6.66 0a70.53 70.53 0 0 1 7.35.94 6 6 0 0 1 2.5 1.29c.446.417.699 1 .7 1.61-.14 3.18-.39 6.35-.61 9.71-3.7 1.7-7.61 3.33-11.94 3.27C17 39.2 10.6 39 4.21 38.83a7.54 7.54 0 0 1-1-.1c-3.26-.5-3.34-.64-3.1-3.92.15-2.07.18-4.15.29-6.23.11-2.08.43-2.35 2.38-3a66.78 66.78 0 0 1 12.43-2.51c.51-.07 1-.24 1.93-.47a10.18 10.18 0 0 0-1.4-.93c-4-1.59-4.08-5.06-3.1-8.19A15.94 15.94 0 0 1 14 10.94c.62-1.16 1.71-2.18 1.09-3.74-.08-.22.29-.85.54-.9a1.61 1.61 0 0 1 1.29.24A25.72 25.72 0 0 1 20 9.86c.89 1.22 1.46 2.66 2.27 3.94 1.57 2.48.72 5.39-1.58 7.22-.49.43-1.08.8-1.97 1.41zM15 37.61h9.36a18.78 18.78 0 0 0 8.23-2.32c.46-.23 1.11-.66 1.14-1 .19-2.17.56-4.36.09-6.31-5.4.79-10.58 1.91-15.8 2.22-5.22.31-10.64-.2-16.02-.38-.1.64-.23 1.34-.3 2-.43 4.51-.16 4.87 4.23 5.61.13 0 .29-.09.44-.14 2.17-4.55 2.17-4.55 3.36-4.8l-1.41 5.07c2.71-.47 1.34-3.69 3.55-4.32 1 1.54-1 2.72-.3 4.19 1.31.6 1.76-.41 2.24-1.32.33-.63.31-1.66 1.66-1.27L15 37.61zM3.19 27.38c5 1.64 10.14 1.13 15.2 1.22 5.06.09 13.08-1.6 14.82-3.24a32.28 32.28 0 0 0-14.05-1.24l-.85 2.54h-.48l-1.06-2.15C12 24.37 7.64 26 3.19 27.38zm13.5-18.5c-.94 1.7-1.75 3.15-2.55 4.61a5.12 5.12 0 0 0-.33.9C13 17.06 14 19.12 16.57 20l.53-1.81c1.85-.47 1.19 1.39 1.9 1.88 2.69-1.76 3.06-3.15 1.65-5.76-.41-.77-.77-1.57-1.11-2.38a6.81 6.81 0 0 0-2.85-3.05z"/>
        <path d="M27.34 17.57l2.08-4.06c1.08 1.64.29 3.41-2.08 4.06zM10.95 2.4c1-1.85 1.3-1.93 4.61-1.43-1.36 1.17-2.83 1.1-4.61 1.43zM19.85 1.6c1.36-1.15 2.7-.74 3.88 1.19-1.15.21-1.78 0-3.88-1.19zM26.91 5.75c2.06-.13 2.7 1.14 1.65 3.38l-1.65-3.38zM5.2 10.88c-.88-1.52-.44-2.21 2.51-3.7l-2.51 3.7zM5.8 17.3l2.29 2.85c-2 0-2.18-.19-2.71-2.47l.42-.38z"/>
    </g>
</svg>
