<?xml version="1.0" encoding="UTF-8"?>
<svg width="230px" height="256px" viewBox="0 0 230 256" version="1.1" xmlns="http://www.w3.org/2000/svg" xmlns:xlink="http://www.w3.org/1999/xlink">
    <!-- Generator: Sketch 47.1 (45422) - http://www.bohemiancoding.com/sketch -->
    <title>Artboard 8</title>
    <desc>Created with Sketch.</desc>
    <defs>
        <path d="M18.1294237,12.81056 C18.1294237,12.81056 42.9546374,18.111894 87.4966454,14.7401724 C119.716539,12.3012049 210.869683,11.82755 210.869683,11.82755 C210.869683,11.82755 204.010291,92.8381429 204.010291,132.892346 C204.010291,172.946549 210.869683,225.471208 210.869683,225.471208 C210.869683,225.471208 130.843319,220.337711 100.000897,220.337711 C69.1584746,220.337711 19.4557595,225.471208 19.4557595,225.471208 C19.4557595,225.471208 23.533788,154.736745 23.3087159,118.649379 C23.0836439,82.5620134 18.1294237,12.81056 18.1294237,12.81056 Z" id="path-1"></path>
        <filter x="-17.9%" y="-10.5%" width="135.8%" height="132.3%" filterUnits="objectBoundingBox" id="filter-2">
            <feOffset dx="0" dy="12" in="SourceAlpha" result="shadowOffsetOuter1"></feOffset>
            <feGaussianBlur stdDeviation="9.5" in="shadowOffsetOuter1" result="shadowBlurOuter1"></feGaussianBlur>
            <feColorMatrix values="0 0 0 0 0.514081339   0 0 0 0 0.420362941   0 0 0 0 0.763020833  0 0 0 0.146682518 0" type="matrix" in="shadowBlurOuter1"></feColorMatrix>
        </filter>
        <path d="M12,0 C12,0 48.9553286,7.91416816 97.3455648,3.95708408 C145.735801,0 212.735674,0 212.735674,0 C212.735674,0 206.616186,74.7942234 207.825639,111.389047 C209.035093,147.983871 212.735674,231.424369 212.735674,231.424369 C212.735674,231.424369 164.27012,227.135179 118.819085,227.135179 C73.3680499,227.135179 12.5314529,229.29601 12.5314529,229.29601 C12.5314529,229.29601 17.0258165,156.918754 16.9425122,120.976995 C16.8592078,85.0352359 12,0 12,0 Z" id="path-3"></path>
    </defs>
    <g stroke="none" stroke-width="1" fill="none" fill-rule="evenodd">
        <g>
            <g>
                <use fill="black" fill-opacity="1" filter="url(#filter-2)" xlink:href="#path-1"></use>
                <use fill="#F5F4FB" fill-rule="evenodd" xlink:href="#path-1"></use>
            </g>
            <g>
                <use fill="#FFFFFF" fill-rule="evenodd" xlink:href="#path-3"></use>
                <path stroke="#FFFFFF" stroke-width="22" d="M23.7340448,13.0590221 C23.7415862,13.1998015 23.7491481,13.3410581 23.7567302,13.4827882 C24.3371709,24.3328556 24.9176011,35.7366896 25.4594401,47.158006 C25.7984365,54.3036433 26.1117472,61.2386755 26.3941306,67.8904866 C27.358551,90.6083304 27.9143517,108.814373 27.9424826,120.9515 C27.9684854,132.170414 27.5646186,147.407117 26.8178691,165.700906 C26.504204,173.385043 26.1359261,181.455097 25.7241184,189.779255 C25.2462402,199.438942 24.7347735,208.946864 24.2228451,217.906673 C31.7534609,217.671977 39.8731186,217.438391 48.3467771,217.21927 C62.700251,216.848104 76.7134437,216.55375 89.8845445,216.36489 C100.354865,216.214757 110.050826,216.135179 118.819085,216.135179 C121.480231,216.135179 124.187423,216.149659 126.938192,216.178169 C144.921879,216.364562 164.132346,217.133824 183.483057,218.299685 C189.749336,218.677221 195.689119,219.07633 201.200699,219.479939 C201.110474,217.411755 201.016702,215.256524 200.919842,213.02391 C200.299949,198.735414 199.680049,184.197847 199.101427,170.279762 C199.005074,167.962084 198.910533,165.677452 198.817926,163.42841 C197.914571,141.489511 197.228651,123.764825 196.831642,111.752397 C196.445892,100.080646 196.749445,84.1880728 197.603187,65.0527099 C198.027598,55.5401779 198.577417,45.4835566 199.222833,35.1293961 C199.74339,26.7783147 200.298566,18.6679116 200.856102,11.0680405 C196.60844,11.106846 192.055652,11.1618627 187.256874,11.2357999 C168.125084,11.5305728 148.997047,12.06106 131.169141,12.8851101 C119.100575,13.4429492 108.048243,14.1185962 98.242091,14.9204887 C72.7536656,17.0047902 48.4743672,16.1476853 26.7490763,13.4486133 C25.7197901,13.3207385 24.7145963,13.1907288 23.7340448,13.0590221 Z"></path>
            </g>
        </g>
    </g>
</svg>