<?xml version="1.0" encoding="UTF-8"?>
<svg width="75px" height="86px" viewBox="0 0 75 86" version="1.1" xmlns="http://www.w3.org/2000/svg" xmlns:xlink="http://www.w3.org/1999/xlink">
    <!-- Generator: Sketch 47.1 (45422) - http://www.bohemiancoding.com/sketch -->
    <title>Combined Shape</title>
    <desc>Created with Sketch.</desc>
    <defs></defs>
    <g stroke="none" stroke-width="1" fill="none" fill-rule="evenodd">
        <g transform="translate(-682.000000, -202.000000)" fill="#F7F5FC">
            <g transform="translate(508.000000, 117.000000)">
                <g transform="translate(173.000000, 85.000000)">
                    <g>
                        <g>
                            <g>
                                <path d="M75.9548057,75.0695868 L76.0338542,75.0695868 C75.9947185,67.0240858 69.4671257,60.5196201 61.4215365,60.50904 L52.4716536,60.50904 C49.6675052,60.512628 47.3893985,58.2460999 47.3786979,55.4419697 L47.3786979,47.9610842 C47.3789968,47.5127132 47.5344827,47.0782672 47.81875,46.7315269 L51.7856901,41.8197691 C52.6189062,40.802909 53.0760191,39.5298496 53.0799609,38.2152249 L53.0799609,33.5299644 C53.0799609,32.4577554 53.9491581,31.5885582 55.0213672,31.5885582 L55.2931641,31.5885582 C56.0079701,31.5885582 56.5874349,31.0090934 56.5874349,30.2942874 L56.5874349,25.117204 C56.5874349,24.402398 56.0079701,23.8229332 55.2931641,23.8229332 C54.220955,23.8229332 53.3517578,22.953736 53.3517578,21.8815269 L53.3517578,16.4326467 C53.3521798,15.9115678 53.5620546,15.4125322 53.9341797,15.0477769 C54.3104794,14.6923439 54.8079017,14.4933749 55.3255208,14.4912405 C56.653424,14.5406817 57.9407464,14.0285717 58.8718229,13.0804853 C60.0036884,11.9459621 60.5025577,10.3258478 60.2049219,8.75114934 C58.8459701,9.42156871 57.3367543,9.72920798 55.8238151,9.64419621 C55.1713556,9.60680506 54.5814906,9.24365253 54.2543053,8.67792175 C53.92712,8.11219098 53.9065246,7.41980647 54.1995052,6.8356285 C54.9035257,5.42483912 54.8794003,3.76018889 54.1347917,2.37039413 C53.1256036,3.34580655 51.8956544,4.0629069 50.5496615,4.46064153 C49.8883502,4.65928872 49.1712948,4.4917294 48.6664974,4.02058944 C44.3364754,-0.0288137304 38.0162095,-1.12242888 32.5773119,1.23662797 C27.1384143,3.59568482 23.6181243,8.95752354 23.6158854,14.8859931 L23.6158854,21.8815269 C23.6158854,22.953736 22.7466882,23.8229332 21.6744792,23.8229332 C20.9596731,23.8229332 20.3802083,24.402398 20.3802083,25.117204 L20.3802083,30.2942874 C20.3802083,31.0090934 20.9596731,31.5885582 21.6744792,31.5885582 L21.9333333,31.5885582 C23.0055424,31.5885582 23.8747396,32.4577554 23.8747396,33.5299644 L23.8747396,38.2152249 C23.87921,39.5297567 24.3362612,40.8026444 25.1690104,41.8197691 L29.18125,46.7315269 C29.4655173,47.0782672 29.6210032,47.5127132 29.6213021,47.9610842 L29.6213021,55.448441 C29.6106015,58.2525713 27.3324948,60.5190994 24.5283464,60.5155113 L15.5784635,60.5155113 C7.53538536,60.52607 1.00882666,67.026615 0.966145833,75.0695868 L1.04519431,75.0695868 C2.01326936,81.1562675 18.4121004,86 38.5,86 C58.5878996,86 74.9867306,81.1562675 75.9548057,75.0695868 Z"></path>
                            </g>
                        </g>
                    </g>
                </g>
            </g>
        </g>
    </g>
</svg>