<svg xmlns="http://www.w3.org/2000/svg" width="35" height="37" viewBox="0 0 35 37">
    <g fill="#9270EF" fill-rule="evenodd">
        <path d="M32.552 18.57c-.956-1.124-2.448-1.558-3.883-1.433-.981.085-2.976.285-3.213 1.478-.067.334-.061.852.258 1.067.364.246 1.092-.217 1.458-.321 1.076-.307 2.291-.436 3.327.08 1.187.59 1.802 1.88 2.147 3.098.343 1.216.33 2.504-.205 3.663-.27.584-.65 1.11-1.088 1.579-.47.501-1.267.894-1.376 1.62-.82-.445-2.36-.737-2.711-1.715-.462-1.29 1.547-3.42-.022-4.304-.54-.305-1.12-.08-1.693-.248-.442-.13-.752-.454-.91-.88-.353-.944-.172-2.037-.214-3.021-.038-.89-.35-2.367-1.548-2.125-1.03.208-1.94 1.304-2.324 2.231-.473 1.144-.31 2.466-1.037 3.525-.434.632-1.066.972-1.704 1.359-.82.496-1.47 1.196-2.268 1.712-1.401.907-3.143 1.045-4.532 1.966-.69.458-1.281 1.045-1.983 1.493-.687.437-1.419.797-2.177 1.094-.723.283-1.467.512-2.213.728-.758.218-1.495.356-1.906 1.105-.65 1.181-.41 2.403.572 3.298 2.258 2.06 5.974-.129 8.227-1.04 1.929-.78 3.876-1.513 5.838-2.207.94-.332 1.884-.655 2.831-.97.885-.293 1.811-.717 2.76-.691 1.772.047 3.302 1.18 4.941 1.715 1.09.355 3.38.306 3.525-1.254.033-.35-.1-.676-.323-.94.344-.289.673-.598.982-.923a10.488 10.488 0 0 0 1.647-2.257c.875-1.637 1.198-3.576.407-5.312-.821-1.804-.818-2.263-1.59-3.17zm-4.567 12.255c-1.23-.394-2.325-1.126-3.574-1.466-1.483-.404-3.01-.067-4.43.42-.085-.611-.671-1.32-1.352-1.235-.913.112.23 1.304.46 1.563a38.77 38.77 0 0 0-1.007.41c-.06-.51-.194-.967-.56-1.34-.24-.217-.988-.801-1.134-.166-.07.302.311.831.461 1.09.091.185.158.37.221.566.092.244.145.22-.14.34-.217.093-.434.185-.652.274-.046-.427-.688-1.145-1.098-.634-.061.075-.234.673-.027.725.024.072.069.132.087.207.043.186-.695.355-.88.423-.058-.445-.622-1.127-1.06-.626-.057.066-.156.655-.06.679.011.088.048.171.053.26.01.166-.76.35-.93.412-.268.095-1.345.622-1.467.38-.122-.244-.314-.64-.63-.645-.449-.008-.416.433-.399.73.005.105.001.21.015.313.04.293-.384.352-.622.465.036-.32-.146-.69-.35-.926-.534-.61-.716.393-.749.727-.014.135.009.272-.01.408-.05.385-.17.36-.548.488-.659.225-1.408.41-2.1.227-.447-.118-1.348-.715-1.223-1.271.118-.523.604-.846 1.06-1.056 1.024-.472 2.18-.516 3.201-.99 1.534-.713 2.577-2.136 4.152-2.73 1.472-.556 2.992-.764 4.258-1.77.629-.5 1.189-1.077 1.814-1.581.598-.483 1.322-.79 1.851-1.355.885-.942 1.349-2.251 1.602-3.498.089-.433.153-.873.172-1.314-.064 1.513-.295 3.41.574 4.751.506.782 1.194.749 1.993 1.005.637.204.78.684.61 1.289-.16.562-.468 1.106-.488 1.702-.028.871.84 1.215 1.498 1.557.556.29 1.11.579 1.64.916.131.085.421.22.479.381.039.114-.678-.094-.71-.105-1.526-.488 1.936.62 0 0z"/>
        <path d="M30.268 24.25c0-.147-1.116.462-1.204.557-.176.192-.69 1.145-.343 1.34.278.158.693-.584.846-.732.325-.328.77-.176 1.152-.11.866.147 1.469-.574 1.148-1.374-.363-.908-.781-1.66-1.637-2.188-.853-.524-1.905-.694-2.895-.596-.22-.13-1.491.357-1.158.544.378.212.94.126 1.358.19.62.092 1.226.274 1.793.546.816.409 1.156 1.072 1.5 1.865-.056-.002-.562-.056-.56-.042zM14.376 18.637c1.17-1.32 2.365-2.5 4.163-2.818 1.483-.262 2.986-.186 4.393-.81.911-.405 2.695-1.468 1.984-2.721-.473-.835-1.755-.605-2.547-.6-.943.007-1.935-.022-2.85-.273-.283-.079-.701-.2-.83-.501-.202-.466.486-1.409.638-1.85.22-.64.284-1.373.08-2.03-.226-.725-.797-.891-1.482-.985a2.93 2.93 0 0 1-1.757-.892 5.254 5.254 0 0 1-.574-.75c-.09-.136-.176-.274-.26-.413-.145-.238.126-.372.333-.494.619-.366 1.406-.35 2.068-.623.755-.311 1.463-.762 2.287-.868.456-.058.918.002 1.374.016.433.014.905-.032 1.331.041.469.081.776.595.978.978.478.91.808 2.014.847 3.047a7.023 7.023 0 0 1-.286 2.356c-.12.385-.274.758-.45 1.122-.118.245-.384.58-.248.871.176.381.774.375 1.114.298.717-.162.933-.846 1.19-1.46.673-1.61.776-3.27.372-4.962-.276-1.15-.622-3.27-2.017-3.56-1.5-.31-3.084-.58-4.616-.383-.782.1-1.426.44-2.15.722-.865.34-1.77.605-2.573 1.082-.183.109-.36.228-.527.36a4.59 4.59 0 0 0-.432-.462c-.223-.205-.478-.389-.768-.483-.504-.165-.98.038-1.332.406-.774.81-1.127 2.113-1.23 3.201-.126 1.315.39 2.472.56 3.747.22 1.633-.8 2.642-1.762 3.813-1.132 1.378-1.721 3.008-2.455 4.608-1.484 3.238-4.773 5.26-6.102 8.592a7.562 7.562 0 0 0-.55 2.61c-.017.856 1.514 1.52 2.223 1.59 1.996.195 3.816-1.546 5.068-2.883 2.958-3.158 4.361-5.893 6.795-8.64zm-4.854-3.015c.59-1.467 1.6-2.526 2.609-3.712.994-1.168 1.563-2.345 1.11-3.899-.266-.91-.576-1.81-.731-2.749-.104-.634.528-1.475-.02-2.004.897.865.841 2.248 1.443 3.277.48.82 1.402.875 2.23 1.132.947.293 1.57.726 1.173 1.774-.24.636-.647 1.256-.546 1.965.085.604.456.946.994 1.18 1.204.522 2.536.567 3.822.627.042.002.828.043.643.206-.21.186-.596.24-.857.302-1.031.245-2.078.124-3.109.376-1.655.405-3.066 1.345-4.266 2.532-.275-.346-1.208-1.09-1.638-.562-.32.393.186.682.418.919.034.035.289.22.284.225.232-.058.151.25.07.343-.141.16-.279.321-.416.483-.255-.306-1.826-1.57-2.104-.706-.092.274.753.99.772.968.128.104.265.194.386.308.216.201.341.17.127.444-.194.246-.386.494-.577.742-.281-.262-1.467-.728-1.345.09.038.25.324.401.473.588.056.07.14.127.187.204-.179.228-.35.462-.517.7-.165-.364-1.514-1.46-1.559-.481-.01.254.292.592.442.787.09.116.166.242.245.367.204.315.135.383-.073.676-1.29 1.818-2.682 3.83-4.541 5.114-.598.412-1.424.835-2.146.478-.518-.258-.299-.83-.188-1.317.137-.608.372-1.19.679-1.733 1.175-2.082 3.218-3.469 4.627-5.372 1.05-1.416 1.321-2.834 1.899-4.272z"/>
        <path d="M22.144 6.712c-.498.734-1.29 1.29-1.471 2.206-.082.418-.086 1.156.229 1.494.194.21.286-.42.296-.494.043-.352.077-.678.252-.994.268-.484.803-.845 1.19-1.233.486-.488.682-1.014.756-1.699.102-.925-.159-2.676-1.476-2.427-.89.168-1.288 1.185-2.236 1.268-.377.033-.766.047-1.135.14-.44.11-.42.363-.003.497 1.02.327 1.98.164 2.87-.39.402-.25.885-.685.885.129 0 .447.137 1.11-.157 1.503z"/>
    </g>
</svg>
