<svg xmlns="http://www.w3.org/2000/svg" width="97" height="15" viewBox="0 0 97 15">
    <path fill="#9270EF" fill-rule="evenodd" d="M6.344 6.872a22.275 22.275 0 0 0-1.602-3.564c-.252.828-.69 2.178-1.314 4.05a54.28 54.28 0 0 0 1.53-.243 83.253 83.253 0 0 0 1.386-.243zm.414 1.26c-.06.012-.582.099-1.566.261-.984.162-1.722.273-2.214.333-.6 1.836-1.044 3.396-1.332 4.68a.606.606 0 0 1-.279.396.632.632 0 0 1-.486.09.61.61 0 0 1-.405-.279.65.65 0 0 1-.09-.495c.276-1.224.678-2.658 1.206-4.302h-.018a.625.625 0 0 1-.459-.189.625.625 0 0 1-.189-.459c0-.18.063-.333.189-.459a.625.625 0 0 1 .459-.189 5.2 5.2 0 0 0 .432-.018l.072-.162c.888-2.664 1.464-4.506 1.728-5.526a.65.65 0 0 1-.009-.414.615.615 0 0 1 .243-.342.649.649 0 0 1 .495-.117c.174.03.309.117.405.261 1.104 1.572 2.016 3.426 2.736 5.562a.608.608 0 0 1 .45.54.73.73 0 0 1-.126.468c.336 1.14.798 3.024 1.386 5.652a.65.65 0 0 1-.09.495.61.61 0 0 1-.405.279.632.632 0 0 1-.486-.09.606.606 0 0 1-.279-.396c-.576-2.604-1.032-4.464-1.368-5.58zm5.238-6.084c.072.66.114 1.5.126 2.52.012 1.44.024 2.244.036 2.412.108 2.508.108 4.746 0 6.714a.644.644 0 0 1-.216.45.608.608 0 0 1-.468.162.644.644 0 0 1-.45-.216.608.608 0 0 1-.162-.468c.108-1.92.108-4.11 0-6.57 0-.108-.012-.936-.036-2.484-.012-.972-.054-1.764-.126-2.376a.675.675 0 0 1 .144-.477.602.602 0 0 1 .432-.234.642.642 0 0 1 .477.135.633.633 0 0 1 .243.432zm2.826 0c.072.66.114 1.5.126 2.52.012 1.44.024 2.244.036 2.412.108 2.508.108 4.746 0 6.714a.644.644 0 0 1-.216.45.608.608 0 0 1-.468.162.644.644 0 0 1-.45-.216.608.608 0 0 1-.162-.468c.108-1.92.108-4.11 0-6.57 0-.108-.012-.936-.036-2.484-.012-.972-.054-1.764-.126-2.376a.675.675 0 0 1 .144-.477.602.602 0 0 1 .432-.234.642.642 0 0 1 .477.135.633.633 0 0 1 .243.432zm3.096 4.626a.608.608 0 0 1 .45-.54c.348-.108.624-.186.828-.234.204-.048.489-.075.855-.081a2.94 2.94 0 0 1 1.017.153 3.183 3.183 0 0 1 1.665 1.449c.378.678.555 1.413.531 2.205a4.323 4.323 0 0 1-.684 2.214c-.432.684-1.044 1.176-1.836 1.476-1.128.42-2.1.366-2.916-.162-.708-.468-1.164-1.194-1.368-2.178a4.841 4.841 0 0 1 .153-2.349 3.94 3.94 0 0 1 1.305-1.953zm1.314.702c-.588.276-1.02.738-1.296 1.386a3.354 3.354 0 0 0-.198 1.962c.12.624.39 1.068.81 1.332.444.3 1.02.312 1.728.036a2.354 2.354 0 0 0 1.224-.972c.288-.456.444-.972.468-1.548a2.73 2.73 0 0 0-.333-1.485c-.246-.438-.591-.735-1.035-.891-.3-.12-.672-.132-1.116-.036a.555.555 0 0 1-.252.216zm8.73.594c-.012.036 0 .06.036.072l-.036-.072zm-2.646-2.304c.108.456.366 1.338.774 2.646.3.948.516 1.668.648 2.16l.144-.504c.24-.888.414-1.512.522-1.872.096-.288.18-.516.252-.684l.162-.288c.156-.204.342-.312.558-.324.096 0 .186.012.27.036a.417.417 0 0 1 .18.09l.054.054a.59.59 0 0 1 .072.09.21.21 0 0 1 .036.054l.036.036.018.072.09.198.306.666.918 2.016.918 1.98c.024-.084.048-.192.072-.324.072-.504.126-.828.162-.972.408-1.404.96-2.952 1.656-4.644a.567.567 0 0 1 .342-.351.666.666 0 0 1 .504 0 .596.596 0 0 1 .351.351.64.64 0 0 1-.009.504c-.672 1.632-1.2 3.132-1.584 4.5-.036.096-.084.366-.144.81-.072.432-.174.78-.306 1.044s-.216.426-.252.486c-.24.348-.54.51-.9.486a.654.654 0 0 1-.396-.162.715.715 0 0 1-.09-.108 1.052 1.052 0 0 1-.09-.108 2.921 2.921 0 0 0-.126-.216l-.342-.702-.936-2.034-.72-1.566-.342 1.224c-.24.912-.414 1.53-.522 1.854-.084.288-.162.51-.234.666a1.148 1.148 0 0 1-.162.27c-.18.252-.408.36-.684.324a.694.694 0 0 1-.396-.198.946.946 0 0 1-.09-.144l-.072-.144a1.868 1.868 0 0 1-.072-.234 15.853 15.853 0 0 1-.198-.918 22.648 22.648 0 0 1-.054-.306 1.386 1.386 0 0 1-.018-.126c-.108-.468-.366-1.35-.774-2.646-.384-1.212-.648-2.13-.792-2.754a.664.664 0 0 1 .081-.486.573.573 0 0 1 .396-.288.683.683 0 0 1 .495.081c.156.09.252.225.288.405zm11.844 5.04c1.452-.048 2.418-.348 2.898-.9.228-.264.369-.555.423-.873.054-.318.027-.579-.081-.783-.228-.504-.678-.678-1.35-.522-.792.18-1.35.564-1.674 1.152-.324.588-.396 1.23-.216 1.926zm-1.134.702a4.44 4.44 0 0 1-.234-1.188 4.041 4.041 0 0 1 .117-1.224c.102-.408.267-.783.495-1.125.228-.342.543-.648.945-.918.402-.27.873-.465 1.413-.585.648-.156 1.224-.114 1.728.126s.87.618 1.098 1.134c.216.456.273.966.171 1.53a3.125 3.125 0 0 1-.729 1.512c-.66.744-1.728 1.176-3.204 1.296.312.324.672.546 1.08.666.828.24 1.758.006 2.79-.702a.635.635 0 0 1 .477-.099c.174.03.312.12.414.27a.641.641 0 0 1-.171.909c-1.356.936-2.646 1.224-3.87.864a3.539 3.539 0 0 1-1.422-.792 3.93 3.93 0 0 1-.954-1.332.586.586 0 0 1-.144-.342zm12.546-3.006c-.924-.072-1.668.15-2.232.666-.552.516-.858 1.14-.918 1.872-.06.66.096 1.158.468 1.494.432.372 1.068.426 1.908.162.492-.156.834-.372 1.026-.648.144-.204.312-.66.504-1.368a.49.49 0 0 1 .126-.216c0-.852.027-2.301.081-4.347.054-2.046.081-3.621.081-4.725 0-.18.063-.333.189-.459a.625.625 0 0 1 .459-.189c.18 0 .333.063.459.189a.625.625 0 0 1 .189.459c0 .984-.036 2.898-.108 5.742-.072 2.844-.084 5.04-.036 6.588 0 .18-.06.336-.18.468a.583.583 0 0 1-.45.198.673.673 0 0 1-.468-.18.583.583 0 0 1-.198-.45c0-.156-.006-.318-.018-.486-.312.264-.732.48-1.26.648-1.32.42-2.37.282-3.15-.414-.708-.624-1.014-1.482-.918-2.574.036-.492.165-.966.387-1.422.222-.456.516-.867.882-1.233.366-.366.837-.645 1.413-.837.564-.204 1.188-.282 1.872-.234.18.012.327.087.441.225a.655.655 0 0 1 .153.477.601.601 0 0 1-.225.441.655.655 0 0 1-.477.153zM57.554.806c.852-.036 2.058-.066 3.618-.09 1.56-.024 2.604-.042 3.132-.054.18 0 .336.06.468.18s.198.27.198.45-.06.336-.18.468a.583.583 0 0 1-.45.198l-2.736.054-2.718.054c.024.168.069.594.135 1.278s.111 1.206.135 1.566c.324.012 1.404.018 3.24.018.18 0 .333.063.459.189a.625.625 0 0 1 .189.459c0 .18-.063.333-.189.459a.625.625 0 0 1-.459.189c-1.8 0-2.868-.006-3.204-.018.012.816-.009 2.004-.063 3.564s-.081 2.694-.081 3.402c0 .18-.063.333-.189.459a.625.625 0 0 1-.459.189.625.625 0 0 1-.459-.189.625.625 0 0 1-.189-.459c0-.708.027-1.851.081-3.429.054-1.578.075-2.787.063-3.627-.276-.108-.408-.318-.396-.63a.59.59 0 0 1 .36-.54c-.024-.36-.069-.87-.135-1.53s-.111-1.098-.135-1.314a.568.568 0 0 1-.459-.171.694.694 0 0 1-.207-.459.568.568 0 0 1 .171-.459.694.694 0 0 1 .459-.207zm10.278 5.868a.608.608 0 0 1 .45-.54c.348-.108.624-.186.828-.234.204-.048.489-.075.855-.081a2.94 2.94 0 0 1 1.017.153 3.183 3.183 0 0 1 1.665 1.449c.378.678.555 1.413.531 2.205a4.323 4.323 0 0 1-.684 2.214c-.432.684-1.044 1.176-1.836 1.476-1.128.42-2.1.366-2.916-.162-.708-.468-1.164-1.194-1.368-2.178a4.841 4.841 0 0 1 .153-2.349 3.94 3.94 0 0 1 1.305-1.953zm1.314.702c-.588.276-1.02.738-1.296 1.386a3.354 3.354 0 0 0-.198 1.962c.12.624.39 1.068.81 1.332.444.3 1.02.312 1.728.036a2.354 2.354 0 0 0 1.224-.972c.288-.456.444-.972.468-1.548a2.73 2.73 0 0 0-.333-1.485c-.246-.438-.591-.735-1.035-.891-.3-.12-.672-.132-1.116-.036a.555.555 0 0 1-.252.216zm6.894-.702a.608.608 0 0 1 .45-.54c.348-.108.624-.186.828-.234.204-.048.489-.075.855-.081a2.94 2.94 0 0 1 1.017.153 3.183 3.183 0 0 1 1.665 1.449c.378.678.555 1.413.531 2.205a4.323 4.323 0 0 1-.684 2.214c-.432.684-1.044 1.176-1.836 1.476-1.128.42-2.1.366-2.916-.162-.708-.468-1.164-1.194-1.368-2.178a4.841 4.841 0 0 1 .153-2.349 3.94 3.94 0 0 1 1.305-1.953zm1.314.702c-.588.276-1.02.738-1.296 1.386a3.354 3.354 0 0 0-.198 1.962c.12.624.39 1.068.81 1.332.444.3 1.02.312 1.728.036a2.354 2.354 0 0 0 1.224-.972c.288-.456.444-.972.468-1.548a2.73 2.73 0 0 0-.333-1.485c-.246-.438-.591-.735-1.035-.891-.3-.12-.672-.132-1.116-.036a.555.555 0 0 1-.252.216zm9.9 1.026c-.924-.072-1.668.15-2.232.666-.552.516-.858 1.14-.918 1.872-.06.66.096 1.158.468 1.494.432.372 1.068.426 1.908.162.492-.156.834-.372 1.026-.648.144-.204.312-.66.504-1.368a.49.49 0 0 1 .126-.216c0-.852.027-2.301.081-4.347.054-2.046.081-3.621.081-4.725 0-.18.063-.333.189-.459a.625.625 0 0 1 .459-.189c.18 0 .333.063.459.189a.625.625 0 0 1 .189.459c0 .984-.036 2.898-.108 5.742-.072 2.844-.084 5.04-.036 6.588 0 .18-.06.336-.18.468a.583.583 0 0 1-.45.198.673.673 0 0 1-.468-.18.583.583 0 0 1-.198-.45c0-.156-.006-.318-.018-.486-.312.264-.732.48-1.26.648-1.32.42-2.37.282-3.15-.414-.708-.624-1.014-1.482-.918-2.574.036-.492.165-.966.387-1.422.222-.456.516-.867.882-1.233.366-.366.837-.645 1.413-.837.564-.204 1.188-.282 1.872-.234.18.012.327.087.441.225a.655.655 0 0 1 .153.477.601.601 0 0 1-.225.441.655.655 0 0 1-.477.153zm8.082-1.296a4.7 4.7 0 0 1-.396-.09l-.324-.072a1.78 1.78 0 0 0-.252-.018c-.144 0-.333.06-.567.18-.234.12-.441.282-.621.486-.372.396-.486.732-.342 1.008.108.168.456.348 1.044.54.204.06.351.108.441.144.09.036.237.102.441.198a1.664 1.664 0 0 1 .846.828c.24.564.309 1.071.207 1.521-.102.45-.321.849-.657 1.197a2.71 2.71 0 0 1-1.116.684 2.14 2.14 0 0 1-1.314-.018 2.666 2.666 0 0 1-.684-.414 2.972 2.972 0 0 1-.216-.144l-.252-.216a.641.641 0 0 1-.171-.909c.102-.15.24-.24.414-.27a.635.635 0 0 1 .477.099c.012.012.192.15.54.414.144.108.264.18.36.216.132.048.294.045.486-.009s.372-.171.54-.351c.372-.372.45-.78.234-1.224-.084-.168-.408-.342-.972-.522a.296.296 0 0 1-.09-.018c-.24-.084-.435-.156-.585-.216a2.93 2.93 0 0 1-.567-.333 1.668 1.668 0 0 1-.522-.585 1.36 1.36 0 0 1-.234-.927 2.47 2.47 0 0 1 .243-.864c.126-.246.291-.477.495-.693a3.55 3.55 0 0 1 1.017-.792c.39-.204.765-.306 1.125-.306.132 0 .279.015.441.045.162.03.321.063.477.099.156.036.246.06.27.072.18.024.321.111.423.261a.641.641 0 0 1-.162.9.596.596 0 0 1-.477.099z"/>
</svg>
