<svg xmlns="http://www.w3.org/2000/svg" width="39" height="42" viewBox="0 0 39 42">
    <path fill="#9270EF" fill-rule="evenodd" d="M32.917 24.39c-1.263.368-2.452 1.094-3.409 1.99-.536.504-1.017 1.088-1.326 1.76a3.568 3.568 0 0 0-.279.874c-.039.223.056.801-.097.92.133-1.57-.535-3.431-1.24-4.804-.553-1.077-1.624-3.165-3.118-2.61 1.255-1.587-.393-2.95-1.6-3.763-1.46-.982-2.622-2.518-4.399-2.955a18.052 18.052 0 0 1 2.185-1.469c-.205 1.876 1.494 3.13 3.064 3.681 1.902.67 4.124.758 6.072.235 1.44-.386 3.263-1.46 2.605-3.232-.426-1.149-1.76-1.623-2.83-1.95-1.277-.39-2.469-.696-3.658-1.318a10.071 10.071 0 0 0 1.727-1.232c.383-.344.496.03.957.129.327.07.662.02.978-.079 1.186-.365 2.002-1.445 2.533-2.512.913-1.837 1.208-4.046.656-6.039C31.512 1.198 31.06.3 30.184.045c-1.204-.35-2.465 1.425-3.072 2.286-.822 1.163-1.605 2.67-1.783 4.104-.088.718.09 1.482.348 2.149.207.537.3.538-.164.93a8.951 8.951 0 0 1-.922.68c.906-2.02.29-3.875-.92-5.598-.845-1.201-2.207-2.964-3.902-2.403-1.933.642-1.066 2.689-1.198 4.187-.092 1.055-.516 2.137-.244 3.198.264 1.026.972 2.118 1.796 2.778-1.14.498-2.235 1.047-3.255 1.763-.311-2.184-.868-4.247-2.285-6-.63-.778-1.111-1.364-2.163-.87-.717.336-1.163 1.07-1.462 1.772-.625 1.464-.907 3.187-.676 4.766.24 1.645.986 3.707 2.667 4.372-.653 1.023-1.144 2.144-1.64 3.25-.727-1.313-2.247-2.034-3.298-3.065-1.089-1.067-1.936-2.584-3.651-2.59-1.697-.006-1.823 1.764-1.672 3.087.342 2.973 2.712 8.363 6.533 7.493-1.02 2.456-2.282 4.388-4.466 5.96-.952.685-1.967 1.275-2.992 1.84-.708.39-2.066.835-1.702 1.916.354 1.054 1.955-.228 2.454-.506 1.29-.718 2.558-1.487 3.7-2.427.136-.112.379-.407.554-.41.464-.005.927-.013 1.39-.02a52.84 52.84 0 0 1 2.43.01c1.601.05 3.102.322 4.64.763-.736 1.47-.491 3.806.305 5.215.825 1.457 2.44 2.424 3.985 2.968 1.338.47 3.526.54 3.784-1.337.145-1.051-.6-1.954-1.128-2.778-.636-.995-1.02-2.132-1.68-3.11.862-.023 1.719-.15 2.554-.363-.16 1.703 1.334 3.766 2.779 4.532 1.5.796 3.494.918 5.151.658 1.37-.215 3.607-1.51 2.215-3.144-.709-.833-1.846-1.32-2.68-2.027-.932-.79-1.859-1.658-3.055-2.016.296-.197.585-.403.867-.62.4-.305.299-.158.656.08.491.325 1.064.522 1.643.618 1.142.19 2.135-.06 3.13-.62a11.802 11.802 0 0 0 2.982-2.404c.654-.73 2.07-2.316 1.855-3.4-.468-2.375-4.023-1.804-5.675-1.323zm-3.189-8.567c-1.184.903-3.27.797-4.677.673.066-.353-.113-1.53-.72-.903-.122.126-.206.324-.3.473-.23.369-.447.203-.863.067.372-.297.687-1.713-.185-1.322-.587.262-.737 1.102-1.346.437-.881-.962-.026-2.19 1.172-2.078 1.048.096 1.984.766 2.897 1.23.991.504 3.039.321 4.022 1.423zm.727-11.695c.026.966-.064 1.796-.5 2.674-.58-.41-1.427-.226-.963.568.049.083.336.366.335.444-.329.421-.905 1.009-1.495.723-1.21-.585-1.01-2.482-.604-3.476.503-1.231 1.428-2.324 2.486-3.117.913.21.727 1.629.741 2.184zm-9.88.033c.136-.74.603-.166.913.194.609.705 1.047 1.556 1.408 2.41.347.822.394 1.631.05 2.466-.197.48-.934 2.034-1.55 2.01-.505-.021-.755-.803-.933-1.172-.428-.887-.167-1.691-.018-2.613.082-.506-.073-2.212.13-3.295zm2.392 25.336c-.41-1-.277-2.265-.088-3.3.094-.51.227-1.092.576-1.495.577-.67 1.055.341 1.379.819 1.038 1.539 2.34 3.693 1.032 5.224-2.081 2.437-2.411-.06-2.9-1.248zm-2.335-9.268c.43.241 1.008.502 1.302.917.35.491-1.19.54-1.415.55a8.798 8.798 0 0 1-2.753-.313c-.758-.21-1.362-.627-1.78-1.3-.233-.375-.994-1.722-.648-2.127.324-.378 1.12-.173 1.538-.123.92.113 1.548.496 2.186 1.16.36.376.98.905 1.57 1.236zm-5.34-6.062c-.054.674-.433 1.905-1.198 2.082-.741.172-1.341-.813-1.64-1.334.463.056 1.435-.279 1.244-.942-.2-.694-1.313-.162-1.652.116-.07-.17-.145-.341-.177-.523.948-.16.913-1.63-.063-1.183.006-.678-.03-3.38 1.066-3.393.81.788 2.562 3.408 2.42 5.177zm-1.021 12.27c-.098-.37-.758-.771-.923-.224-.1.343-.241.693-.284 1.05-.528-.16-2.329-.709-1.744-1.584.48-.718 1.518-1.03 2.33-1.072 1.826-.098 3.729.792 5.12 1.92-.437.59-1.641.738-2.3.878-.846.181-1.536.285-2.395.112.191-.332.342-.699.196-1.08zm-8.857-4.952c-.35-.58-.495-1.366-.696-2.004-.049-.156-.46-1.9-.576-1.915 1.355.171 2.122 1.858 2.96 2.749.824.874 2.096 1.31 2.752 2.35.765 1.217-.564 2.376-1.77 1.83-1.225-.556-2.003-1.907-2.67-3.01-.216-.357.698 1.155 0 0zm4.784 6.454c2.104 2.423 7.032 2.078 9.283.043 3.67-3.317-4.677-5.974-7.09-5.2a22.005 22.005 0 0 1 1.65-3.19c.506 1.503 1.4 2.835 2.887 3.496 1.635.727 3.984.864 5.627.104-1.914 2.35-1.758 6.754-.055 9.144-2.451.457-4.622-.11-7-.626a35.216 35.216 0 0 0-7.14-.774c.723-.923 1.322-1.942 1.838-2.997zm11.5 11.85c.147.256-1.247.039-1.388.01-.885-.183-1.83-.688-2.564-1.204.294-.102.667-.519.57-.854-.184-.64-.844-.24-1.215-.11-.269.093-.597-.267-.396-.369a.943.943 0 0 0 .451-.422c.348-.653-.305-.824-.8-.668-.047-.557-.187-2.025.721-1.932.655.066 1.53.637 1.976 1.1.537.556.7 1.324 1.062 1.985.469.86 1.098 1.616 1.583 2.463.205.356-.648-1.13 0 0zm6.574-5.146c.795.828 1.833 1.333 2.762 1.985.393.275.154.846-.257 1.068-.364.195-.96.079-1.36.079.325-.667-.636-1.632-.96-.757-.126.337-.054.72-.469.64-.68-.13-1.353-.385-1.836-.9-.495-.527-1.789-2.83-.79-3.224.835-.33 2.315.488 2.91 1.11.888.925-.293-.308 0 0zm6.395-5.655c-.195-.323-1.164-1.129-1.183-.229-.003.21.12.416.12.625-.001.08.114.212.088.284-.058.155-.537.315-.699.375.126-.409-.186-1.352-.74-1.17-.436.139-.415.963-.428 1.345-.074.335-1.982-.247-2.143-.746-.207-.642.464-1.344.872-1.746 1.146-1.13 2.421-1.624 3.997-1.83.661-.086 1.73-.243 2.278.259.39.357-1.817 2.538-2.162 2.833z"/>
</svg>
