<svg xmlns="http://www.w3.org/2000/svg" width="129" height="18" viewBox="0 0 129 18">
    <path fill="#9270EF" fill-rule="evenodd" d="M1.134.13C2.202.058 3.816.022 5.976.022c.18 0 .333.063.459.189a.625.625 0 0 1 .189.459c0 .18-.063.333-.189.459a.625.625 0 0 1-.459.189 116.1 116.1 0 0 0-3.402.036c.144 1.236.264 2.472.36 3.708.924-.036 2.172-.054 3.744-.054.18 0 .333.063.459.189a.625.625 0 0 1 .189.459c0 .18-.063.333-.189.459a.625.625 0 0 1-.459.189c-1.56 0-2.778.018-3.654.054.096 1.668.156 3.318.18 4.95h1.458c1.14-.012 2.04.024 2.7.108.18.024.324.108.432.252a.64.64 0 0 1 .126.486.622.622 0 0 1-.252.432.64.64 0 0 1-.486.126c-.624-.084-1.464-.12-2.52-.108H3.024a.603.603 0 0 1-.468.198.584.584 0 0 1-.504-.252h-.054a.601.601 0 0 1-.441-.225.655.655 0 0 1 0-.846.672.672 0 0 1 .351-.207 112.355 112.355 0 0 0-.18-4.86H1.71a.608.608 0 0 1-.468-.162.644.644 0 0 1-.216-.45.608.608 0 0 1 .162-.468.644.644 0 0 1 .45-.216 98.315 98.315 0 0 0-.36-3.69h-.072a.612.612 0 0 1-.459-.162.623.623 0 0 1-.225-.441.624.624 0 0 1 .162-.468.63.63 0 0 1 .45-.225zm9.504 7.668c.516-.78 1.128-1.242 1.836-1.386a1.812 1.812 0 0 1 1.584.396c.444.36.78.918 1.008 1.674.312 1.056.36 2.388.144 3.996a.622.622 0 0 1-.252.432.64.64 0 0 1-.486.126.622.622 0 0 1-.432-.252.64.64 0 0 1-.126-.486c.192-1.428.156-2.58-.108-3.456-.144-.492-.336-.834-.576-1.026a.555.555 0 0 0-.486-.126c-.24.048-.486.204-.738.468s-.462.618-.63 1.062c-.12.3-.195.633-.225.999a7.91 7.91 0 0 0-.018 1.062c.018.342.009.753-.027 1.233a.25.25 0 0 1-.018.108c0 .06-.006.12-.018.18a.704.704 0 0 1-.09.162c-.18.252-.42.336-.72.252a.637.637 0 0 1-.234-.126.555.555 0 0 1-.144-.162l-.036-.072-.036-.108-.018-.126v-.612c.012-.672.012-1.11 0-1.314-.072-1.152-.306-2.37-.702-3.654a.597.597 0 0 1 .036-.495.63.63 0 0 1 .378-.324.623.623 0 0 1 .495.045c.162.084.267.21.315.378.132.396.24.78.324 1.152zm7.452 1.908c1.452-.048 2.418-.348 2.898-.9.228-.264.369-.555.423-.873.054-.318.027-.579-.081-.783-.228-.504-.678-.678-1.35-.522-.792.18-1.35.564-1.674 1.152-.324.588-.396 1.23-.216 1.926zm-1.134.702a4.44 4.44 0 0 1-.234-1.188 4.041 4.041 0 0 1 .117-1.224c.102-.408.267-.783.495-1.125.228-.342.543-.648.945-.918.402-.27.873-.465 1.413-.585.648-.156 1.224-.114 1.728.126s.87.618 1.098 1.134c.216.456.273.966.171 1.53a3.125 3.125 0 0 1-.729 1.512c-.66.744-1.728 1.176-3.204 1.296.312.324.672.546 1.08.666.828.24 1.758.006 2.79-.702a.635.635 0 0 1 .477-.099c.174.03.312.12.414.27a.641.641 0 0 1-.171.909c-1.356.936-2.646 1.224-3.87.864a3.539 3.539 0 0 1-1.422-.792 3.93 3.93 0 0 1-.954-1.332.586.586 0 0 1-.144-.342zm9.36-2.79c.3-.588.642-1.086 1.026-1.494.948-1.02 1.932-1.326 2.952-.918.204.072.42.204.648.396l.162.153c.096.09.174.153.234.189a.622.622 0 0 1 .252.432.64.64 0 0 1-.126.486.622.622 0 0 1-.432.252.64.64 0 0 1-.486-.126 43.812 43.812 0 0 0-.45-.396 1.356 1.356 0 0 0-.27-.198c-.468-.18-.978.024-1.53.612a5.323 5.323 0 0 0-1.152 1.926c-.084.252-.15.495-.198.729a5.497 5.497 0 0 0-.09.54c-.012.126-.021.363-.027.711-.006.348-.015.618-.027.81 0 .024.003.057.009.099a3.536 3.536 0 0 1 .027.441c.012.192.006.342-.018.45-.084.3-.27.468-.558.504-.228.036-.432-.036-.612-.216-.252-.24-.342-.57-.27-.99a3.517 3.517 0 0 1 .063-.261.148.148 0 0 0 .009-.045v-.054a10.496 10.496 0 0 0-.072-1.134 46.743 46.743 0 0 0-.432-3.168 16.085 16.085 0 0 0-.666-2.538.619.619 0 0 1 .027-.495.63.63 0 0 1 .369-.333.619.619 0 0 1 .495.027.63.63 0 0 1 .333.369c.336.948.606 2.028.81 3.24zm12.042-2.646c.06.408.198 1.164.414 2.268.204 1.08.36 1.956.468 2.628.336 2.172.39 3.858.162 5.058-.132.744-.399 1.329-.801 1.755a2.085 2.085 0 0 1-1.485.675c-.504.012-1.008-.126-1.512-.414a4.896 4.896 0 0 1-1.35-1.152.672.672 0 0 1-.135-.486.602.602 0 0 1 .234-.432.642.642 0 0 1 .477-.135c.18.018.324.093.432.225.288.36.597.633.927.819.33.186.627.279.891.279.54-.024.894-.486 1.062-1.386.18-1.008.138-2.43-.126-4.266-.396.444-.906.744-1.53.9-1.2.3-2.166.066-2.898-.702-.636-.66-.924-1.494-.864-2.502.072-1.044.492-1.83 1.26-2.358.84-.588 1.89-.648 3.15-.18l-.072-.378a.64.64 0 0 1 .126-.486.65.65 0 0 1 .423-.261.596.596 0 0 1 .477.117.684.684 0 0 1 .27.414zm-1.602 1.836c-.864-.348-1.542-.348-2.034 0-.42.288-.654.744-.702 1.368-.036.636.132 1.146.504 1.53.384.408.93.522 1.638.342.384-.096.684-.27.9-.522.216-.252.414-.618.594-1.098 0-.012.006-.024.018-.036l-.324-1.656a.657.657 0 0 1-.594.072zm5.472-.306c0 .672.027 1.683.081 3.033.054 1.35.081 2.361.081 3.033 0 .18-.063.333-.189.459a.625.625 0 0 1-.459.189.625.625 0 0 1-.459-.189.625.625 0 0 1-.189-.459c0-.672-.027-1.683-.081-3.033a83.118 83.118 0 0 1-.081-3.033c0-.18.063-.333.189-.459a.625.625 0 0 1 .459-.189c.18 0 .333.063.459.189a.625.625 0 0 1 .189.459zm-.198-3.33c0 .18-.063.333-.189.459a.625.625 0 0 1-.459.189.625.625 0 0 1-.459-.189.625.625 0 0 1-.189-.459c0-.18.063-.333.189-.459a.625.625 0 0 1 .459-.189c.18 0 .333.063.459.189a.625.625 0 0 1 .189.459zm2.016.99c.132.012.261.027.387.045s.225.033.297.045h.18a2 2 0 0 0 .171.027c.054.006.096.012.126.018.03.006.087.009.171.009h.81a.296.296 0 0 0 .072-.009l.135-.036.243-.063c.564-.108.948.054 1.152.486.06.144.078.318.054.522-.012.108-.036.24-.072.396-.072.228-.18.54-.324.936l-.99 2.394c-.396.996-.654 1.752-.774 2.268-.036.192-.06.354-.072.486.348-.072.558-.108.63-.108l1.602-.054c.18 0 .333.06.459.18s.192.27.198.45a.61.61 0 0 1-.171.459.66.66 0 0 1-.45.207c-.12 0-.285.003-.495.009l-.576.018c-.174.006-.339.015-.495.027-.012 0-.162.03-.45.09-.336.06-.624.048-.864-.036-.408-.144-.636-.468-.684-.972-.024-.276.012-.624.108-1.044.132-.576.408-1.398.828-2.466l.972-2.394c.084-.192.144-.348.18-.468a1.562 1.562 0 0 1-.216.018h-.324c-.516 0-.954-.024-1.314-.072-.24-.024-.456-.048-.648-.072a.633.633 0 0 1-.432-.243.642.642 0 0 1-.135-.477.602.602 0 0 1 .234-.432.675.675 0 0 1 .477-.144zm7.146 2.34c0 .672.027 1.683.081 3.033.054 1.35.081 2.361.081 3.033 0 .18-.063.333-.189.459a.625.625 0 0 1-.459.189.625.625 0 0 1-.459-.189.625.625 0 0 1-.189-.459c0-.672-.027-1.683-.081-3.033a83.118 83.118 0 0 1-.081-3.033c0-.18.063-.333.189-.459a.625.625 0 0 1 .459-.189c.18 0 .333.063.459.189a.625.625 0 0 1 .189.459zm-.198-3.33c0 .18-.063.333-.189.459a.625.625 0 0 1-.459.189.625.625 0 0 1-.459-.189.625.625 0 0 1-.189-.459c0-.18.063-.333.189-.459a.625.625 0 0 1 .459-.189c.18 0 .333.063.459.189a.625.625 0 0 1 .189.459zm3.078 4.626c.516-.78 1.128-1.242 1.836-1.386a1.812 1.812 0 0 1 1.584.396c.444.36.78.918 1.008 1.674.312 1.056.36 2.388.144 3.996a.622.622 0 0 1-.252.432.64.64 0 0 1-.486.126.622.622 0 0 1-.432-.252.64.64 0 0 1-.126-.486c.192-1.428.156-2.58-.108-3.456-.144-.492-.336-.834-.576-1.026a.555.555 0 0 0-.486-.126c-.24.048-.486.204-.738.468s-.462.618-.63 1.062c-.12.3-.195.633-.225.999a7.91 7.91 0 0 0-.018 1.062c.018.342.009.753-.027 1.233a.25.25 0 0 1-.018.108c0 .06-.006.12-.018.18a.704.704 0 0 1-.09.162c-.18.252-.42.336-.72.252a.637.637 0 0 1-.234-.126.555.555 0 0 1-.144-.162l-.036-.072-.036-.108-.018-.126v-.612c.012-.672.012-1.11 0-1.314-.072-1.152-.306-2.37-.702-3.654a.597.597 0 0 1 .036-.495.63.63 0 0 1 .378-.324.623.623 0 0 1 .495.045c.162.084.267.21.315.378.132.396.24.78.324 1.152zm11.466-2.826c.06.408.198 1.164.414 2.268.204 1.08.36 1.956.468 2.628.336 2.172.39 3.858.162 5.058-.132.744-.399 1.329-.801 1.755a2.085 2.085 0 0 1-1.485.675c-.504.012-1.008-.126-1.512-.414a4.896 4.896 0 0 1-1.35-1.152.672.672 0 0 1-.135-.486.602.602 0 0 1 .234-.432.642.642 0 0 1 .477-.135c.18.018.324.093.432.225.288.36.597.633.927.819.33.186.627.279.891.279.54-.024.894-.486 1.062-1.386.18-1.008.138-2.43-.126-4.266-.396.444-.906.744-1.53.9-1.2.3-2.166.066-2.898-.702-.636-.66-.924-1.494-.864-2.502.072-1.044.492-1.83 1.26-2.358.84-.588 1.89-.648 3.15-.18l-.072-.378a.64.64 0 0 1 .126-.486.65.65 0 0 1 .423-.261.596.596 0 0 1 .477.117.684.684 0 0 1 .27.414zm-1.602 1.836c-.864-.348-1.542-.348-2.034 0-.42.288-.654.744-.702 1.368-.036.636.132 1.146.504 1.53.384.408.93.522 1.638.342.384-.096.684-.27.9-.522.216-.252.414-.618.594-1.098 0-.012.006-.024.018-.036l-.324-1.656a.657.657 0 0 1-.594.072zm14.778.432c.204-.396.438-.756.702-1.08.696-.864 1.482-1.242 2.358-1.134.684.084 1.2.54 1.548 1.368.228.54.384 1.266.468 2.178.06.636.084 1.386.072 2.25 0 .204-.003.48-.009.828-.006.348-.009.576-.009.684 0 .18-.063.333-.189.459a.625.625 0 0 1-.459.189.625.625 0 0 1-.459-.189.625.625 0 0 1-.189-.459c0-.096.003-.321.009-.675.006-.354.009-.639.009-.855a19.117 19.117 0 0 0-.072-2.124c-.072-.78-.192-1.38-.36-1.8-.156-.348-.324-.534-.504-.558a.917.917 0 0 0-.612.099c-.18.102-.378.291-.594.567-.708.864-1.218 2.196-1.53 3.996v.36c0 .312-.06.576-.18.792-.036.048-.072.09-.108.126a.644.644 0 0 1-.45.216.619.619 0 0 1-.612-.342.56.56 0 0 1-.09-.234 1.313 1.313 0 0 1 .018-.36l.018-.306c.012-.096.018-.156.018-.18V9.994l.009-.594c.006-.336.006-.636 0-.9a10.737 10.737 0 0 0-.045-.774c-.084-.84-.264-1.332-.54-1.476a.484.484 0 0 0-.36-.036c-.132.036-.276.15-.432.342-.336.432-.642 1.122-.918 2.07a15.883 15.883 0 0 0-.414 1.836c-.012.624-.03 1.092-.054 1.404-.012.216-.03.372-.054.468a1.183 1.183 0 0 1-.09.27.647.647 0 0 1-.306.288c-.252.108-.48.078-.684-.09a.756.756 0 0 1-.252-.378 6.277 6.277 0 0 1-.036-.198v-.342c.012-.252.042-.57.09-.954.024-.204.054-.402.09-.594v-.468c0-.084.003-.312.009-.684.006-.372.009-.618.009-.738s.003-.351.009-.693a43.074 43.074 0 0 1 .045-1.449 16.206 16.206 0 0 1 .117-1.449c.03-.258.057-.501.081-.729a.622.622 0 0 1 .252-.432.64.64 0 0 1 .486-.126c.18.024.324.108.432.252a.64.64 0 0 1 .126.486c-.084.54-.144 1.134-.18 1.782.072-.12.15-.234.234-.342.312-.384.648-.636 1.008-.756.456-.156.912-.12 1.368.108.636.312 1.038 1.026 1.206 2.142zm11.232 3.69c.072-.348.132-.666.18-.954a3.07 3.07 0 0 0-1.116-.531c-.384-.09-.72-.111-1.008-.063a2.24 2.24 0 0 0-.792.288c-.324.192-.516.414-.576.666-.048.216.036.432.252.648.42.372.855.603 1.305.693.45.09.807.057 1.071-.099.288-.144.516-.36.684-.648zm-2.088-7.722c.012 0 .099.009.261.027.162.018.261.033.297.045l.27.036c.156.024.267.048.333.072.066.024.165.057.297.099.132.042.243.087.333.135a5.9 5.9 0 0 1 .297.171c.108.066.21.141.306.225.996.864 1.446 2.31 1.35 4.338-.024.396-.066.822-.126 1.278.036.636-.06 1.212-.288 1.728-.048.18-.144.6-.288 1.26a.606.606 0 0 1-.279.396.65.65 0 0 1-.495.09.55.55 0 0 1-.414-.306c-.564.24-1.179.285-1.845.135-.666-.15-1.281-.489-1.845-1.017-.6-.54-.816-1.17-.648-1.89.144-.612.54-1.11 1.188-1.494a3.494 3.494 0 0 1 1.719-.468c.63-.012 1.299.15 2.007.486.012-.084.018-.174.018-.27.072-1.596-.234-2.694-.918-3.294a1.58 1.58 0 0 0-.477-.261 3.3 3.3 0 0 0-.468-.135 10.122 10.122 0 0 0-.729-.09.666.666 0 0 1-.441-.243.595.595 0 0 1-.135-.477.666.666 0 0 1 .243-.441.595.595 0 0 1 .477-.135zm6.462 4.59c.516-.78 1.128-1.242 1.836-1.386a1.812 1.812 0 0 1 1.584.396c.444.36.78.918 1.008 1.674.312 1.056.36 2.388.144 3.996a.622.622 0 0 1-.252.432.64.64 0 0 1-.486.126.622.622 0 0 1-.432-.252.64.64 0 0 1-.126-.486c.192-1.428.156-2.58-.108-3.456-.144-.492-.336-.834-.576-1.026a.555.555 0 0 0-.486-.126c-.24.048-.486.204-.738.468s-.462.618-.63 1.062c-.12.3-.195.633-.225.999a7.91 7.91 0 0 0-.018 1.062c.018.342.009.753-.027 1.233a.25.25 0 0 1-.018.108c0 .06-.006.12-.018.18a.704.704 0 0 1-.09.162c-.18.252-.42.336-.72.252a.637.637 0 0 1-.234-.126.555.555 0 0 1-.144-.162l-.036-.072-.036-.108-.018-.126v-.612c.012-.672.012-1.11 0-1.314-.072-1.152-.306-2.37-.702-3.654a.597.597 0 0 1 .036-.495.63.63 0 0 1 .378-.324.623.623 0 0 1 .495.045c.162.084.267.21.315.378.132.396.24.78.324 1.152zm7.65-7.11c.036.216.048.63.036 1.242a53.625 53.625 0 0 1-.036 1.296l-.072 1.314-.054 1.332a64.51 64.51 0 0 1-.036.63 40.9 40.9 0 0 0 1.998-.216.594.594 0 0 1 .468.135.648.648 0 0 1 .252.432.608.608 0 0 1-.135.477.654.654 0 0 1-.441.252c-.66.072-1.38.144-2.16.216.012 1.164.114 2.13.306 2.898.252 1.02.63 1.53 1.134 1.53.252-.012.543-.129.873-.351.33-.222.657-.555.981-.999a.622.622 0 0 1 .432-.252.64.64 0 0 1 .486.126.622.622 0 0 1 .252.432.64.64 0 0 1-.126.486c-.924 1.212-1.878 1.83-2.862 1.854a1.943 1.943 0 0 1-1.521-.648c-.414-.444-.717-1.062-.909-1.854-.204-.864-.318-1.896-.342-3.096l-.972.072a.655.655 0 0 1-.477-.153.601.601 0 0 1-.225-.441.655.655 0 0 1 .153-.477.601.601 0 0 1 .441-.225l1.098-.09c.012-.156.024-.42.036-.792l.054-1.35.072-1.296c.012-.24.024-.651.036-1.233.012-.582 0-.975-.036-1.179a.608.608 0 0 1 .162-.468.644.644 0 0 1 .45-.216.608.608 0 0 1 .468.162c.132.12.204.27.216.45zm6.966 6.93c.3-.588.642-1.086 1.026-1.494.948-1.02 1.932-1.326 2.952-.918.204.072.42.204.648.396l.162.153c.096.09.174.153.234.189a.622.622 0 0 1 .252.432.64.64 0 0 1-.126.486.622.622 0 0 1-.432.252.64.64 0 0 1-.486-.126 43.812 43.812 0 0 0-.45-.396 1.356 1.356 0 0 0-.27-.198c-.468-.18-.978.024-1.53.612a5.323 5.323 0 0 0-1.152 1.926c-.084.252-.15.495-.198.729a5.497 5.497 0 0 0-.09.54c-.012.126-.021.363-.027.711-.006.348-.015.618-.027.81 0 .024.003.057.009.099a3.536 3.536 0 0 1 .027.441c.012.192.006.342-.018.45-.084.3-.27.468-.558.504-.228.036-.432-.036-.612-.216-.252-.24-.342-.57-.27-.99a3.517 3.517 0 0 1 .063-.261.148.148 0 0 0 .009-.045v-.054a10.496 10.496 0 0 0-.072-1.134 46.743 46.743 0 0 0-.432-3.168 16.085 16.085 0 0 0-.666-2.538.619.619 0 0 1 .027-.495.63.63 0 0 1 .369-.333.619.619 0 0 1 .495.027.63.63 0 0 1 .333.369c.336.948.606 2.028.81 3.24zm11.358 3.312c.072-.348.132-.666.18-.954a3.07 3.07 0 0 0-1.116-.531c-.384-.09-.72-.111-1.008-.063a2.24 2.24 0 0 0-.792.288c-.324.192-.516.414-.576.666-.048.216.036.432.252.648.42.372.855.603 1.305.693.45.09.807.057 1.071-.099.288-.144.516-.36.684-.648zm-2.088-7.722c.012 0 .099.009.261.027.162.018.261.033.297.045l.27.036c.156.024.267.048.333.072.066.024.165.057.297.099.132.042.243.087.333.135a5.9 5.9 0 0 1 .297.171c.108.066.21.141.306.225.996.864 1.446 2.31 1.35 4.338-.024.396-.066.822-.126 1.278.036.636-.06 1.212-.288 1.728-.048.18-.144.6-.288 1.26a.606.606 0 0 1-.279.396.65.65 0 0 1-.495.09.55.55 0 0 1-.414-.306c-.564.24-1.179.285-1.845.135-.666-.15-1.281-.489-1.845-1.017-.6-.54-.816-1.17-.648-1.89.144-.612.54-1.11 1.188-1.494a3.494 3.494 0 0 1 1.719-.468c.63-.012 1.299.15 2.007.486.012-.084.018-.174.018-.27.072-1.596-.234-2.694-.918-3.294a1.58 1.58 0 0 0-.477-.261 3.3 3.3 0 0 0-.468-.135 10.122 10.122 0 0 0-.729-.09.666.666 0 0 1-.441-.243.595.595 0 0 1-.135-.477.666.666 0 0 1 .243-.441.595.595 0 0 1 .477-.135zm9.486 2.898a4.7 4.7 0 0 1-.396-.09l-.324-.072a1.78 1.78 0 0 0-.252-.018c-.144 0-.333.06-.567.18-.234.12-.441.282-.621.486-.372.396-.486.732-.342 1.008.108.168.456.348 1.044.54.204.06.351.108.441.144.09.036.237.102.441.198a1.664 1.664 0 0 1 .846.828c.24.564.309 1.071.207 1.521-.102.45-.321.849-.657 1.197a2.71 2.71 0 0 1-1.116.684 2.14 2.14 0 0 1-1.314-.018 2.666 2.666 0 0 1-.684-.414 2.972 2.972 0 0 1-.216-.144l-.252-.216a.641.641 0 0 1-.171-.909c.102-.15.24-.24.414-.27a.635.635 0 0 1 .477.099c.012.012.192.15.54.414.144.108.264.18.36.216.132.048.294.045.486-.009s.372-.171.54-.351c.372-.372.45-.78.234-1.224-.084-.168-.408-.342-.972-.522a.296.296 0 0 1-.09-.018c-.24-.084-.435-.156-.585-.216a2.93 2.93 0 0 1-.567-.333 1.668 1.668 0 0 1-.522-.585 1.36 1.36 0 0 1-.234-.927 2.47 2.47 0 0 1 .243-.864c.126-.246.291-.477.495-.693a3.55 3.55 0 0 1 1.017-.792c.39-.204.765-.306 1.125-.306.132 0 .279.015.441.045.162.03.321.063.477.099.156.036.246.06.27.072.18.024.321.111.423.261a.641.641 0 0 1-.162.9.596.596 0 0 1-.477.099z"/>
</svg>
