<svg xmlns="http://www.w3.org/2000/svg" width="84" height="14" viewBox="0 0 84 14">
    <path fill="#9270EF" fill-rule="evenodd" d="M1.134.13C2.202.058 3.816.022 5.976.022c.18 0 .333.063.459.189a.625.625 0 0 1 .189.459c0 .18-.063.333-.189.459a.625.625 0 0 1-.459.189 116.1 116.1 0 0 0-3.402.036c.144 1.236.264 2.472.36 3.708.924-.036 2.172-.054 3.744-.054.18 0 .333.063.459.189a.625.625 0 0 1 .189.459c0 .18-.063.333-.189.459a.625.625 0 0 1-.459.189c-1.56 0-2.778.018-3.654.054.096 1.668.156 3.318.18 4.95h1.458c1.14-.012 2.04.024 2.7.108.18.024.324.108.432.252a.64.64 0 0 1 .126.486.622.622 0 0 1-.252.432.64.64 0 0 1-.486.126c-.624-.084-1.464-.12-2.52-.108H3.024a.603.603 0 0 1-.468.198.584.584 0 0 1-.504-.252h-.054a.601.601 0 0 1-.441-.225.655.655 0 0 1 0-.846.672.672 0 0 1 .351-.207 112.355 112.355 0 0 0-.18-4.86H1.71a.608.608 0 0 1-.468-.162.644.644 0 0 1-.216-.45.608.608 0 0 1 .162-.468.644.644 0 0 1 .45-.216 98.315 98.315 0 0 0-.36-3.69h-.072a.612.612 0 0 1-.459-.162.623.623 0 0 1-.225-.441.624.624 0 0 1 .162-.468.63.63 0 0 1 .45-.225zm12.528 5.976a4.7 4.7 0 0 1-.396-.09l-.324-.072a1.78 1.78 0 0 0-.252-.018c-.144 0-.333.06-.567.18-.234.12-.441.282-.621.486-.372.396-.486.732-.342 1.008.108.168.456.348 1.044.54.204.06.351.108.441.144.09.036.237.102.441.198a1.664 1.664 0 0 1 .846.828c.24.564.309 1.071.207 1.521-.102.45-.321.849-.657 1.197a2.71 2.71 0 0 1-1.116.684 2.14 2.14 0 0 1-1.314-.018 2.666 2.666 0 0 1-.684-.414 2.972 2.972 0 0 1-.216-.144L9.9 11.92a.641.641 0 0 1-.171-.909c.102-.15.24-.24.414-.27a.635.635 0 0 1 .477.099c.012.012.192.15.54.414.144.108.264.18.36.216.132.048.294.045.486-.009s.372-.171.54-.351c.372-.372.45-.78.234-1.224-.084-.168-.408-.342-.972-.522a.296.296 0 0 1-.09-.018c-.24-.084-.435-.156-.585-.216a2.93 2.93 0 0 1-.567-.333 1.668 1.668 0 0 1-.522-.585 1.36 1.36 0 0 1-.234-.927 2.47 2.47 0 0 1 .243-.864c.126-.246.291-.477.495-.693a3.55 3.55 0 0 1 1.017-.792c.39-.204.765-.306 1.125-.306.132 0 .279.015.441.045.162.03.321.063.477.099.156.036.246.06.27.072.18.024.321.111.423.261a.641.641 0 0 1-.162.9.596.596 0 0 1-.477.099zm6.498 0a4.7 4.7 0 0 1-.396-.09l-.324-.072a1.78 1.78 0 0 0-.252-.018c-.144 0-.333.06-.567.18-.234.12-.441.282-.621.486-.372.396-.486.732-.342 1.008.108.168.456.348 1.044.54.204.06.351.108.441.144.09.036.237.102.441.198a1.664 1.664 0 0 1 .846.828c.24.564.309 1.071.207 1.521-.102.45-.321.849-.657 1.197a2.71 2.71 0 0 1-1.116.684 2.14 2.14 0 0 1-1.314-.018 2.666 2.666 0 0 1-.684-.414 2.972 2.972 0 0 1-.216-.144l-.252-.216a.641.641 0 0 1-.171-.909c.102-.15.24-.24.414-.27a.635.635 0 0 1 .477.099c.012.012.192.15.54.414.144.108.264.18.36.216.132.048.294.045.486-.009s.372-.171.54-.351c.372-.372.45-.78.234-1.224-.084-.168-.408-.342-.972-.522a.296.296 0 0 1-.09-.018c-.24-.084-.435-.156-.585-.216a2.93 2.93 0 0 1-.567-.333 1.668 1.668 0 0 1-.522-.585 1.36 1.36 0 0 1-.234-.927 2.47 2.47 0 0 1 .243-.864c.126-.246.291-.477.495-.693a3.55 3.55 0 0 1 1.017-.792c.39-.204.765-.306 1.125-.306.132 0 .279.015.441.045.162.03.321.063.477.099.156.036.246.06.27.072.18.024.321.111.423.261a.641.641 0 0 1-.162.9.596.596 0 0 1-.477.099zm3.51 3.6c1.452-.048 2.418-.348 2.898-.9.228-.264.369-.555.423-.873.054-.318.027-.579-.081-.783-.228-.504-.678-.678-1.35-.522-.792.18-1.35.564-1.674 1.152-.324.588-.396 1.23-.216 1.926zm-1.134.702a4.44 4.44 0 0 1-.234-1.188 4.041 4.041 0 0 1 .117-1.224c.102-.408.267-.783.495-1.125.228-.342.543-.648.945-.918.402-.27.873-.465 1.413-.585.648-.156 1.224-.114 1.728.126s.87.618 1.098 1.134c.216.456.273.966.171 1.53a3.125 3.125 0 0 1-.729 1.512c-.66.744-1.728 1.176-3.204 1.296.312.324.672.546 1.08.666.828.24 1.758.006 2.79-.702a.635.635 0 0 1 .477-.099c.174.03.312.12.414.27a.641.641 0 0 1-.171.909c-1.356.936-2.646 1.224-3.87.864a3.539 3.539 0 0 1-1.422-.792 3.93 3.93 0 0 1-.954-1.332.586.586 0 0 1-.144-.342zm9.396-2.61c.516-.78 1.128-1.242 1.836-1.386a1.812 1.812 0 0 1 1.584.396c.444.36.78.918 1.008 1.674.312 1.056.36 2.388.144 3.996a.622.622 0 0 1-.252.432.64.64 0 0 1-.486.126.622.622 0 0 1-.432-.252.64.64 0 0 1-.126-.486c.192-1.428.156-2.58-.108-3.456-.144-.492-.336-.834-.576-1.026a.555.555 0 0 0-.486-.126c-.24.048-.486.204-.738.468s-.462.618-.63 1.062c-.12.3-.195.633-.225.999a7.91 7.91 0 0 0-.018 1.062c.018.342.009.753-.027 1.233a.25.25 0 0 1-.018.108c0 .06-.006.12-.018.18a.704.704 0 0 1-.09.162c-.18.252-.42.336-.72.252a.637.637 0 0 1-.234-.126.555.555 0 0 1-.144-.162l-.036-.072-.036-.108-.018-.126v-.612c.012-.672.012-1.11 0-1.314-.072-1.152-.306-2.37-.702-3.654a.597.597 0 0 1 .036-.495.63.63 0 0 1 .378-.324.623.623 0 0 1 .495.045c.162.084.267.21.315.378.132.396.24.78.324 1.152zm7.65-7.11c.036.216.048.63.036 1.242a53.625 53.625 0 0 1-.036 1.296L39.51 4.54l-.054 1.332a64.51 64.51 0 0 1-.036.63 40.9 40.9 0 0 0 1.998-.216.594.594 0 0 1 .468.135.648.648 0 0 1 .252.432.608.608 0 0 1-.135.477.654.654 0 0 1-.441.252c-.66.072-1.38.144-2.16.216.012 1.164.114 2.13.306 2.898.252 1.02.63 1.53 1.134 1.53.252-.012.543-.129.873-.351.33-.222.657-.555.981-.999a.622.622 0 0 1 .432-.252.64.64 0 0 1 .486.126.622.622 0 0 1 .252.432.64.64 0 0 1-.126.486c-.924 1.212-1.878 1.83-2.862 1.854a1.943 1.943 0 0 1-1.521-.648c-.414-.444-.717-1.062-.909-1.854-.204-.864-.318-1.896-.342-3.096l-.972.072a.655.655 0 0 1-.477-.153.601.601 0 0 1-.225-.441.655.655 0 0 1 .153-.477.601.601 0 0 1 .441-.225l1.098-.09c.012-.156.024-.42.036-.792l.054-1.35.072-1.296c.012-.24.024-.651.036-1.233.012-.582 0-.975-.036-1.179a.608.608 0 0 1 .162-.468.644.644 0 0 1 .45-.216.608.608 0 0 1 .468.162c.132.12.204.27.216.45zm6.966 5.814c0 .672.027 1.683.081 3.033.054 1.35.081 2.361.081 3.033 0 .18-.063.333-.189.459a.625.625 0 0 1-.459.189.625.625 0 0 1-.459-.189.625.625 0 0 1-.189-.459c0-.672-.027-1.683-.081-3.033a83.118 83.118 0 0 1-.081-3.033c0-.18.063-.333.189-.459a.625.625 0 0 1 .459-.189c.18 0 .333.063.459.189a.625.625 0 0 1 .189.459zm-.198-3.33c0 .18-.063.333-.189.459a.625.625 0 0 1-.459.189.625.625 0 0 1-.459-.189.625.625 0 0 1-.189-.459c0-.18.063-.333.189-.459a.625.625 0 0 1 .459-.189c.18 0 .333.063.459.189a.625.625 0 0 1 .189.459zm6.444 7.758c.072-.348.132-.666.18-.954a3.07 3.07 0 0 0-1.116-.531c-.384-.09-.72-.111-1.008-.063a2.24 2.24 0 0 0-.792.288c-.324.192-.516.414-.576.666-.048.216.036.432.252.648.42.372.855.603 1.305.693.45.09.807.057 1.071-.099.288-.144.516-.36.684-.648zm-2.088-7.722c.012 0 .099.009.261.027.162.018.261.033.297.045l.27.036c.156.024.267.048.333.072.066.024.165.057.297.099.132.042.243.087.333.135a5.9 5.9 0 0 1 .297.171c.108.066.21.141.306.225.996.864 1.446 2.31 1.35 4.338-.024.396-.066.822-.126 1.278.036.636-.06 1.212-.288 1.728-.048.18-.144.6-.288 1.26a.606.606 0 0 1-.279.396.65.65 0 0 1-.495.09.55.55 0 0 1-.414-.306c-.564.24-1.179.285-1.845.135-.666-.15-1.281-.489-1.845-1.017-.6-.54-.816-1.17-.648-1.89.144-.612.54-1.11 1.188-1.494a3.494 3.494 0 0 1 1.719-.468c.63-.012 1.299.15 2.007.486.012-.084.018-.174.018-.27.072-1.596-.234-2.694-.918-3.294a1.58 1.58 0 0 0-.477-.261 3.3 3.3 0 0 0-.468-.135 10.122 10.122 0 0 0-.729-.09.666.666 0 0 1-.441-.243.595.595 0 0 1-.135-.477.666.666 0 0 1 .243-.441.595.595 0 0 1 .477-.135zm6.336-2.16c.072.66.114 1.5.126 2.52.012 1.44.024 2.244.036 2.412.108 2.508.108 4.746 0 6.714a.644.644 0 0 1-.216.45.608.608 0 0 1-.468.162.644.644 0 0 1-.45-.216.608.608 0 0 1-.162-.468c.108-1.92.108-4.11 0-6.57 0-.108-.012-.936-.036-2.484-.012-.972-.054-1.764-.126-2.376a.675.675 0 0 1 .144-.477.602.602 0 0 1 .432-.234.642.642 0 0 1 .477.135.633.633 0 0 1 .243.432zm8.496 4.626a.608.608 0 0 1 .45-.54c.348-.108.624-.186.828-.234.204-.048.489-.075.855-.081a2.94 2.94 0 0 1 1.017.153 3.183 3.183 0 0 1 1.665 1.449c.378.678.555 1.413.531 2.205a4.323 4.323 0 0 1-.684 2.214c-.432.684-1.044 1.176-1.836 1.476-1.128.42-2.1.366-2.916-.162-.708-.468-1.164-1.194-1.368-2.178a4.841 4.841 0 0 1 .153-2.349 3.94 3.94 0 0 1 1.305-1.953zm1.314.702c-.588.276-1.02.738-1.296 1.386a3.354 3.354 0 0 0-.198 1.962c.12.624.39 1.068.81 1.332.444.3 1.02.312 1.728.036a2.354 2.354 0 0 0 1.224-.972c.288-.456.444-.972.468-1.548a2.73 2.73 0 0 0-.333-1.485c-.246-.438-.591-.735-1.035-.891-.3-.12-.672-.132-1.116-.036a.555.555 0 0 1-.252.216zm6.714.126c0 .672.027 1.683.081 3.033.054 1.35.081 2.361.081 3.033 0 .18-.063.333-.189.459a.625.625 0 0 1-.459.189.625.625 0 0 1-.459-.189.625.625 0 0 1-.189-.459c0-.672-.027-1.683-.081-3.033a83.118 83.118 0 0 1-.081-3.033c0-.18.063-.333.189-.459a.625.625 0 0 1 .459-.189c.18 0 .333.063.459.189a.625.625 0 0 1 .189.459zm-.198-3.33c0 .18-.063.333-.189.459a.625.625 0 0 1-.459.189.625.625 0 0 1-.459-.189.625.625 0 0 1-.189-.459c0-.18.063-.333.189-.459a.625.625 0 0 1 .459-.189c.18 0 .333.063.459.189a.625.625 0 0 1 .189.459zm2.952-2.124c.072.66.114 1.5.126 2.52.012 1.44.024 2.244.036 2.412.108 2.508.108 4.746 0 6.714a.644.644 0 0 1-.216.45.608.608 0 0 1-.468.162.644.644 0 0 1-.45-.216.608.608 0 0 1-.162-.468c.108-1.92.108-4.11 0-6.57 0-.108-.012-.936-.036-2.484-.012-.972-.054-1.764-.126-2.376a.675.675 0 0 1 .144-.477.602.602 0 0 1 .432-.234.642.642 0 0 1 .477.135.633.633 0 0 1 .243.432zm5.976 5.058a4.7 4.7 0 0 1-.396-.09l-.324-.072a1.78 1.78 0 0 0-.252-.018c-.144 0-.333.06-.567.18-.234.12-.441.282-.621.486-.372.396-.486.732-.342 1.008.108.168.456.348 1.044.54.204.06.351.108.441.144.09.036.237.102.441.198a1.664 1.664 0 0 1 .846.828c.24.564.309 1.071.207 1.521-.102.45-.321.849-.657 1.197a2.71 2.71 0 0 1-1.116.684 2.14 2.14 0 0 1-1.314-.018 2.666 2.666 0 0 1-.684-.414 2.972 2.972 0 0 1-.216-.144l-.252-.216a.641.641 0 0 1-.171-.909c.102-.15.24-.24.414-.27a.635.635 0 0 1 .477.099c.012.012.192.15.54.414.144.108.264.18.36.216.132.048.294.045.486-.009s.372-.171.54-.351c.372-.372.45-.78.234-1.224-.084-.168-.408-.342-.972-.522a.296.296 0 0 1-.09-.018c-.24-.084-.435-.156-.585-.216a2.93 2.93 0 0 1-.567-.333 1.668 1.668 0 0 1-.522-.585 1.36 1.36 0 0 1-.234-.927 2.47 2.47 0 0 1 .243-.864c.126-.246.291-.477.495-.693a3.55 3.55 0 0 1 1.017-.792c.39-.204.765-.306 1.125-.306.132 0 .279.015.441.045.162.03.321.063.477.099.156.036.246.06.27.072.18.024.321.111.423.261a.641.641 0 0 1-.162.9.596.596 0 0 1-.477.099z"/>
</svg>
