<svg xmlns="http://www.w3.org/2000/svg" width="30" height="46" viewBox="0 0 30 46">
    <g fill="#9270EF" fill-rule="evenodd">
        <path d="M1.661 45.716c-.425 0-.8-.178-1.047-.5-.507-.653-.484-1.85.068-3.883l5.565-20.466c.968-3.565 3.015-6.702 5.911-9.072.887-.669 2.27-1.519 3.964-1.87.527-.07.974-.098 1.402-.098 1.132 0 2.178.207 3.108.616a7.351 7.351 0 0 1 1.246.71c1.026.741 1.856 1.744 2.475 2.988.786 1.825.76 3.68.605 4.92-.622 3.714-2.342 7.047-4.977 9.667L4.791 43.829c-.877.863-2.13 1.887-3.13 1.887zm15.863-34.461c-.366 0-.754.025-1.16.078-1.377.285-2.564 1.018-3.31 1.58a16.235 16.235 0 0 0-5.417 8.326L2.072 41.704c-.475 1.759-.397 2.389-.34 2.576.346-.067 1.137-.574 2.04-1.462l15.188-15.1a16.186 16.186 0 0 0 4.57-8.863c.133-1.038.158-2.623-.486-4.119-.499-.997-1.18-1.824-2.007-2.422a6.166 6.166 0 0 0-1-.57c-.734-.323-1.585-.49-2.513-.49z"/>
        <path d="M20.433 14.753l4.248 2.453-.715 1.237-4.247-2.452zM4.6 31.17l4.248 2.453-.714 1.237-4.248-2.452zM15.047 18.185l7.877 4.548-.715 1.237-7.876-4.547zM7.838 19.944l4.6 2.656-.715 1.237-4.6-2.655zM13.98 23.466l2.069 1.196-.714 1.236-2.07-1.195zM9.188 27.064l3.234 1.868-.714 1.237-3.235-1.868zM13.966 29.8l2.068 1.195-.714 1.237-2.069-1.194zM12.043 16.482l1.677.968-.714 1.238-1.677-.968zM21.422 11.237l-.594-.276c-3.152-1.462-4.9-3.262-5.199-5.354C15.221 2.734 17.746.512 17.853.42L18.337 0l.476.427c5.802 5.227 2.973 10.198 2.942 10.247l-.333.563zM18.35 1.963c-.586.672-1.503 1.989-1.293 3.452.212 1.444 1.459 2.762 3.717 3.927.413-1.227.855-4.124-2.424-7.379z"/>
        <path d="M24.736 12.486a5.183 5.183 0 0 1-3.623-1.471l-.335-.323.16-.434a5.151 5.151 0 0 1 3.714-3.25 5.223 5.223 0 0 1 4.762 1.344l.335.323-.16.434a5.155 5.155 0 0 1-4.853 3.377zm-2.246-2.178c.867.65 1.996.899 3.068.658a3.712 3.712 0 0 0 2.48-1.907c-.867-.65-1.99-.9-3.069-.658a3.706 3.706 0 0 0-2.48 1.907z"/>
    </g>
</svg>
