<svg xmlns="http://www.w3.org/2000/svg" xmlns:xlink="http://www.w3.org/1999/xlink" width="60" height="47" viewBox="0 0 60 47">
    <defs>
        <path id="a" d="M47.842 8.285C44.198.047 37.01.095 31.148.827c-5.86.731-8.173 5.411-8.173 5.411s-.69-.488-1.577-1.12c-.886-.632-6.647-2.633-10.537-1.463-3.89 1.17-8.815 3.9-10.096 9.799-1.28 5.897 0 10.53 3.841 14.38 3.84 3.852 10.242 7.069 15.167 10.189 4.925 3.12 6.253 8.336 6.253 8.336.296.39 1.97.292 2.265-.147.295-.438 1.232-3.363 4.53-7.166 3.3-3.801 10.538-9.992 12.705-13.014 2.17-3.025 5.961-9.508 2.317-17.746zm-.64 10.871c-.049.146-3.741-3.803-3.939-3.949-.195-.147-.59.537-.59.682 0 .147 4.137 4.485 4.137 4.485s-.985 1.901-1.33 2c-.344.096-3.495-4.243-3.693-4.438-.197-.195-.542.683-.542.683l3.792 4.533s-1.43 2.194-1.625 2.243c-.198.049-3.25-5.119-3.447-5.167-.196-.05-.64.39-.541.73.098.343 3.3 5.316 3.3 5.316s-1.234 1.51-1.38 1.51c-.148 0-2.807-5.118-2.955-5.313-.147-.194-.787.39-.886.584-.098.194 2.856 5.265 3.053 5.557.198.292-1.132 1.316-1.477 1.462-.345.147-2.364-5.314-2.512-5.509-.148-.194-.788.44-.886.78-.099.341 2.66 5.363 2.66 5.363l-1.675 1.9-2.412-5.849s-1.084.489-1.133.634c-.05.146 2.511 5.801 2.511 5.801s-1.477 1.706-1.821 1.901c-.345.194-2.66-5.898-2.66-5.898l-.888.683 2.758 6.094-1.773 1.95-2.856-5.802s-.984.633-.984.78c0 .147 2.855 5.8 2.905 5.996.049.194-1.034 1.17-1.28 1.317-.247.145-3.004-5.85-3.201-6.046-.198-.196-.591.488-.591.633 0 .147 3.002 6.484 3.002 6.484s-.927 2.365-.984 1.95c-.295-2.144-2.462-4.485-5.81-7.312-3.348-2.827-8.519-4.728-14.084-9.018-5.562-4.287-6.202-12.428-2.509-17.352 3.694-4.925 9.355-4.437 12.753-3.218 3.399 1.219 4.53 3.997 4.826 4.192.295.196 1.97-.34 1.97-.34s0-.683.098-1.268c.099-.585 1.034-3.12 2.955-4.534 1.92-1.414 7.73-2.584 11.375-1.317 3.643 1.268 4.775 3.462 4.775 3.462s-1.429.584-1.624.632c-.199.05.244.83.244.83s1.625-.39 1.97-.341c.344.049.689 1.609.689 1.609l-2.462.193.099.489s.345 0 .887.098c.541.097 2.412.682 2.412.682.494.536.788 3.022.788 3.022s-3.152-1.413-3.348-1.413c-.199 0-.296.731-.199.878.1.146 3.447 1.754 3.841 2.193.394.44.347 3.606.298 3.753zm-36.39-8.92c-.344-.1-2.363-.051-4.283 3.264-1.92 3.315-.837 5.51-.837 5.51.738.583 1.675.096 1.675-.1 0-.194-.591-1.999.443-4.534 1.034-2.535 3.348-3.07 3.348-3.07s0-.974-.345-1.07h-.001z"/>
    </defs>
    <g fill="none" fill-rule="evenodd">
        <use fill="#9270EF" xlink:href="#a"/>
        <path fill="#9270EF" d="M58.779 25.371s-.874 1.388-1.141 1.44c-.268.052-.389.567-.389.567s-1.23 1.582-1.38 1.606c-.154.024-.582.627-.582.627s-1.035 1.073-1.146 1.063c-.112-.01-.782.344-.652.58.13.237-.947.932-1.218 1.02-.271.09-.602.436-.602.436l-1.395 1.342-.823.379s-1.234 1.206-1.508 1.333c-.274.125-.657.619-.657.619l-1.474 1.373s-.798.53-.774.683c.024.151-.862.826-1.058.921-.197.096-.67.767-.67.767s-.861 1.747-.877 1.426c-.08-1.66-1.565-3.592-3.914-5.975-2.347-2.383-6.139-4.18-10.07-7.828-3.928-3.646-3.868-9.913-.74-13.432 3.128-3.52 7.386-2.772 9.88-1.615 2.494 1.157 3.166 3.356 3.376 3.525.211.17 1.516-.13 1.516-.13s.046-.522.16-.963c.113-.44.992-2.316 2.542-3.27 1.55-.953 6.03-1.462 8.708-.252 2.676 1.21 3.387 2.963 3.387 2.963s.114.836.372.896c.257.06.415 1.276.415 1.276l.612 1.18c.338.442.394 2.363.394 2.363s-.157.925.112 1.286c.27.362.022 2.78-.025 2.89-.047.107-.38.904-.38.904zm-29.91-13.938c-.287-.11-2.02-.22-3.917 2.502-1.896 2.722-1.134 4.7-1.134 4.7.589.56 1.429.21 1.443.04.015-.168-.356-1.773.722-3.887 1.078-2.114 3.102-2.404 3.102-2.404s.074-.84-.215-.95z"/>
    </g>
</svg>
