<svg xmlns="http://www.w3.org/2000/svg" xmlns:xlink="http://www.w3.org/1999/xlink" width="379" height="423" viewBox="0 0 379 423">
    <defs>
        <rect id="a" width="257.066" height="351" rx="6"/>
        <filter id="b" width="131.5%" height="123.1%" x="-15.8%" y="-9.8%" filterUnits="objectBoundingBox">
            <feOffset dy="6" in="SourceAlpha" result="shadowOffsetOuter1"/>
            <feGaussianBlur in="shadowOffsetOuter1" result="shadowBlurOuter1" stdDeviation="12.5"/>
            <feColorMatrix in="shadowBlurOuter1" values="0 0 0 0 0.669970702 0 0 0 0 0.632569115 0 0 0 0 0.769318665 0 0 0 0.175752944 0"/>
        </filter>
        <linearGradient id="c" x1="50%" x2="50%" y1="0%" y2="68.166%">
            <stop offset="0%" stop-color="#FFF" stop-opacity="0"/>
            <stop offset="100%" stop-color="#FFF"/>
        </linearGradient>
    </defs>
    <g fill="none" fill-rule="evenodd">
        <path stroke="#F6F4FF" stroke-linecap="square" d="M49.5 191.5h258.07M49.5 136.5h258.07"/>
        <g transform="translate(50 19)">
            <use fill="#000" filter="url(#b)" xlink:href="#a"/>
            <use fill="#FFF" xlink:href="#a"/>
        </g>
        <text fill="#B6B3BF" font-family="DPDorkDiary" font-size="16" font-weight="400" transform="translate(49 19)">
            <tspan x="25" y="329">Manjistha </tspan>
        </text>
        <text fill="#B6B3BF" font-family="DPDorkDiary" font-size="16" font-weight="400" transform="translate(49 19)">
            <tspan x="25" y="248">Guggulu</tspan>
        </text>
        <text fill="#B6B3BF" font-family="DPDorkDiary" font-size="16" font-weight="400" transform="translate(49 19)">
            <tspan x="25" y="289">Brahmi </tspan>
        </text>
        <text fill="#B6B3BF" font-family="DPDorkDiary" font-size="16" font-weight="400" transform="translate(49 19)">
            <tspan x="25" y="205">Ashwaganda </tspan>
        </text>
        <text fill="#B6B3BF" font-family="DPDorkDiary" font-size="16" font-weight="400" transform="translate(49 19)">
            <tspan x="25" y="98">Triphala </tspan>
        </text>
        <path stroke="#F6F4FF" stroke-linecap="square" d="M49.5 240.5h258.07"/>
        <text fill="#B6B3BF" font-family="DPDorkDiary" font-size="16" font-weight="400" transform="translate(49 19)">
            <tspan x="25" y="145">Ashwaganda </tspan>
        </text>
        <path stroke="#F6F4FF" stroke-linecap="square" d="M49.5 187.5h258.07M49.5 130.5h258.07M49.5 79.5h258.07M49.5 282.5h258.07M49.5 323.5h258.07"/>
        <g fill="#9270EF" font-family="DPDorkDiary" font-size="18" font-weight="400">
            <text transform="translate(92 46)">
                <tspan x="0" y="13">Your Essential Oils</tspan>
            </text>
        </g>
        <path stroke="#E8E6ED" stroke-linecap="round" stroke-linejoin="round" stroke-width="2" d="M281 106l7.469 7.469L281 120M281 213l7.469 7.469L281 227M281 153l7.469 7.469L281 167M281 256l7.469 7.469L281 270M281 298l7.469 7.469L281 312M281 340l7.469 7.469L281 354"/>
        <path fill="url(#c)" d="M0 239h379v165H0z" transform="translate(0 19)"/>
        <path fill="#FFF" d="M10 370h344v22H10z"/>
        <path fill="#FFF" stroke="#CDC0F0" stroke-dasharray="7" stroke-linecap="round" stroke-linejoin="round" stroke-width="2" d="M72 379.107c11.612-3.912 16.305-5.124 29.5-3.226 37.64 5.414 27.5.316 66.785 0 78.767-.635 54.453 1.173 54.453 1.173"/>
        <path fill="#FFF" d="M26.103 363.967c.67-.077.81-.46 1.57-.584l.813 2.606-.903.31c-.397-.47.04-.53-.561-.628.585 1.142-.107.635-.829.917.33.212.73.1 1.175.088l.542 1.91-1.332.51c.405.236.552-.054 1.452-.246l.276.647c-.071-.427-.115-.31-.092-.808.325-.108.767-.28 1.004-.47-.128-.06-.751.19-1.162.247-.148-.535-.377-1.289-.484-1.84.145-.093.457-.237.684-.275.513-.085.259-.155.472.174.066-.516.434-.695 1.108-.843l.306.821c.087.37.112.463.223.821.138.448.256 1.144.443 1.509.3-.566-1.47-5.436-1.495-5.958.72.607 2.862 6.2 2.643 7.442-.368.145-.642.062-1.075.218-2.066.746-.453.296-2.964.864-1.504.34-2.72.802-4.373.73-1.57-.068-3.131-.48-4.689-.606-1.393-.11-3.003-.589-4.219-.975-.174-1.596.795-3.932.84-4.166.425-2.24 1.804-5.554 3.329-7.16l-.19-.487c.172-.183.522-.777.72-.896.157-.096.134.073.303-.073.536-.465-.306-.346 1.99-1.776.892-.556 1.27-.684 2.613-.549.846.086 1.707.363 2.279.855 1.006.863 2.894 4.44 3.456 5.965l.587 1.776c.15.854-.024.442-.155.59-.103-.391-.547-1.52-.81-1.785-.507-.51-.335.113-.685-.627-.364-.768-1.941-3.685-2.282-4.007-.296.441 1.1 2.038 1.229 2.72-.385.188-2.058.937-2.318 1.242.232.145-.335.274.405.042.187-.06.45-.352.951-.47l.577 1.315c-.57.477-1.07.402-1.372.91zM29.85 380.055l4.313-4.905-.57-3.107-1.397.135-4.64 2.972z"/>
        <g fill="#FFF">
            <path d="M304.073 329.803l9.113 14.14 1.384 33.652s-1.239 1.842-2.016 2.175c-.778.334-7.03 1.117-7.03 1.117l-1.451-51.084z"/>
        </g>
        <g>
            <path fill="#FFF" d="M311.263 335.397l7.585 15.015-2.14 33.612s-1.425 1.703-2.233 1.953-7.108.376-7.108.376l3.896-50.956z"/>
            <path fill="#9270EF" d="M311.45 326.32c.67.419 1.077 1.286 1.224 2.604.173 1.343-.076 2.223-.749 2.64-.612.401-.923.787-.934 1.158-.003.301.269.702.816 1.201.336.337.633.764.893 1.28.107.336.253.828.443 1.476.422 1.136 1.169 2.715 2.24 4.733 1.202 2.149 1.991 3.72 2.374 4.712.155.412.407 1.008.753 1.788.211.697.142 1.352-.206 1.966a7.55 7.55 0 0 1-1.113-1.233c-.34-.57-.608-.981-.811-1.236a4.443 4.443 0 0 0-2.468-1.758c-1.03-.248-2.08-.15-3.155.296l-1.046.587c-1.782 1.207-4.002 1.16-6.66-.142l-.69-.352c-1.322-.743-2.196-1.102-2.627-1.078-.484-.004-1.237.37-2.257 1.123-1.046.727-2.108.778-3.182.154-.754-.428-1.2-.661-1.339-.699-.607-.203-1.038-.295-1.298-.276-.433.047-.757.281-.971.7-.424.77-.915.962-1.473.577-.647-.37-.66-.917-.042-1.643l8.858-10.993c.924-1.181 1.08-2.397.47-3.647-.218-.371-.417-1.194-.597-2.468-.236-1.56.557-2.452 2.38-2.68 1.1-.162 1.872-.186 2.316-.07 2.21.419 4.844.742 7.9.97.423.045.74.148.951.31zm-1.29 8.198c-.764-1.684-2.217-2.639-4.362-2.864-1.356-.143-2.386-.1-3.096.127-.824.24-1.594.786-2.312 1.64l-7.484 9.325c-.26.299-.405.469-.438.512-.078.201-.029.404.15.609.462.49 1.214.79 2.259.9 1.043.109 1.817-.066 2.323-.524.945-.853 2.177-1.038 3.695-.553.827.274 1.707.715 2.642 1.324.852.578 1.744.904 2.679.98.99.08 1.883-.152 2.682-.695 1.686-1.101 3.646-1.43 5.88-.986-.254-.562-1.006-2.093-2.254-4.595-.894-1.814-1.492-3.307-1.797-4.478-.019-.095-.12-.21-.306-.346-.152-.18-.239-.305-.26-.376zm1.094 20.546c.305-.2.942-.284 1.909-.252.538.033 1.316.103 2.331.21.884 0 1.494-.11 1.832-.33.31-.224.5-.691.576-1.405.08-.758.068-1.33-.034-1.712-.165-.598.067-.91.698-.937.714-.018 1.064.32 1.049 1.016l-.377 4.807c-.474 7.482-.667 13.807-.584 18.976.086 2.985-.343 5.3-1.285 6.944a2.03 2.03 0 0 1-.213.396c-.045.157-.014.277.09.358.458.536.525.973.205 1.311-.131.149-.554.384-1.272.703-1.917.868-4.856 1.547-8.816 2.038-5.706.818-10.822.361-15.347-1.37a15.695 15.695 0 0 1-2.676-1.396c-.05-.076-.818-.644-2.303-1.707a1.574 1.574 0 0 1-.657-1.08c-.008-.187.016-.568.077-1.143.608-4.422 1.093-11.066 1.453-19.93.119-2.754.207-4.825.268-6.213.111-2.407.098-4.465-.036-6.176a4.1 4.1 0 0 1-.02-.63c.022-.206.193-.328.51-.364.691-.067 1.088.23 1.19.892-.012.115-.012 1.056.003 2.824.332.105.797.026 1.394-.237.596-.24 1.129-.288 1.599-.145-.233.324-.69.612-1.375.866-.71.25-1.152.519-1.324.802-.207.351-.316.827-.32 1.431.027.817.014 1.339-.039 1.565a2.472 2.472 0 0 0 1.44-.65 30.36 30.36 0 0 1 1-.976c.467-.37.839-.377 1.116-.022.146.224.039.445-.328.663l-.367.24c-2.953 1.503-3.898 3.705-2.834 6.606.587-.148 1.375-.6 2.37-1.355.989-.733 1.845-1.143 2.568-1.23-.548.873-1.59 1.693-3.126 2.461-1.628.829-2.403 1.956-2.325 3.382.04.167-.023 1.032-.187 2.596.456.002.867-.107 1.232-.324a9.52 9.52 0 0 0 .792-.614c.47-.392 1.115-.825 1.934-1.296l2.096-1.21c.492-.343.848-.34 1.069.008.121.2.104.36-.05.483a4.34 4.34 0 0 1-.584.253c-2.4 1.398-3.953 2.327-4.657 2.788-1.156.668-1.775 1.685-1.862 3.047a204.17 204.17 0 0 1-.344 4.914c-.168 1.866-.495 3.482-.982 4.848-.116.29-.182.516-.2.677 0 .279.09.52.267.725.516.798 1.17.948 1.964.45l8.023-5.084c.182-.097.472-.276.87-.536.358-.148.77-.14 1.237.026-4.13 2.379-7.135 4.248-9.019 5.607-.62.47-.942.819-.966 1.049.006.21.325.569.957 1.077.632.508 1.411.822 2.34.943.536.056 1.39.065 2.565.026-.203-.51-.183-.833.06-.97 2.104-1.57 4.636-3.127 7.594-4.676-.02.463-.17.807-.451 1.033-.13.149-.405.318-.822.506-.422.212-1.397.795-2.924 1.75-1.22.756-2.249 1.31-3.084 1.664-.296.108-.42.339-.373.693-.49.064-.746.177-.763.338-.047.181.136.328.552.441 1.057.274 2.389.496 3.996.664 1.044.11 2.284.124 3.72.043.774-.058 1.972-.177 3.587-.355l-.154-.156c1.65-2.407 3.804-3.889 6.458-4.447-.408.353-1.469 1.078-3.18 2.176-1.348.882-2.32 1.71-2.916 2.483 1.554-.115 2.816-.598 3.79-1.45 1.008-.916 2.395-1.48 4.157-1.69-.233.325-.709.635-1.424.932-.721.343-1.18.643-1.378.901 1.188.078 1.948.054 2.274-.075.387-.145.823-.622 1.308-1.431l.276-.599c.658-.837.926-1.343.802-1.52-.097-.172-.805-.351-2.127-.537-.591-.062-.978-.184-1.16-.366l-.26-.376c.29-.294.667-.383 1.142-.263.755.126 1.148.19 1.176.193.8-.009 1.23-.312 1.294-.91.16-.704-.155-1.097-.946-1.18-1.35-.188-2.362-.318-3.04-.39-1.665-.175-2.525-.823-2.577-1.944-.034-.492-.21-1.811-.525-3.96-.26-1.609-.29-2.949-.091-4.02.203-1.397.389-3.167.558-5.31l.391-5.364c.085-.804.266-1.308.545-1.512zm3.933-3.63c-.298.131-.527.002-.687-.386-.328-.685-.337-1.547-.028-2.583.688.513 1.07 1.344 1.15 2.492-.02.206-.167.365-.435.477zm-1.188 4.79c-1.194-.032-1.718.46-1.567 1.475.138.851.143 1.897.013 3.139l-.783 7.449c-.15.89-.167 1.982-.045 3.273.068.704.197 1.787.386 3.248.076.636.43 1.068 1.062 1.297.575.223 1.592.33 3.048.32.685.003 1.062-.201 1.134-.612a15.18 15.18 0 0 1-.1-1.092c-.059-2.423-.043-5.42.048-8.99.107-4.01.182-7.025.22-9.043-.429-.254-.97-.404-1.62-.449-.8.01-1.398.004-1.796-.014z"/>
            <path fill="#FFF" d="M290.104 355.619l27.062 1.174s-.478 20.014-.999 19.954c-.52-.06-27.257-2.776-27.257-2.776l1.194-18.352zM291.145 346.214l1.247-2.991 3.882-3.4 17.332 2.926 2.587 5.808.2 3.16-24.76-3.776z"/>
            <path stroke="#9270EF" stroke-width="2" d="M312.179 355.68s-21.22.268-22.746-1.141M317.293 376.579s-27.468-.267-28.994-1.677"/>
            <path stroke="#9270EF" stroke-linecap="round" stroke-linejoin="round" stroke-width="2" d="M301.098 325.867l.345-3.28 8.661.91-.375 3.568"/>
            <g fill="#9270EF">
                <path d="M306.79 367.432a2.87 2.87 0 0 0-1.2.541 1.926 1.926 0 0 0-.5.537 1.19 1.19 0 0 0-.123.28c-.021.073-.01.268-.065.302.1-.516-.057-1.156-.243-1.636-.146-.376-.428-1.106-.943-.974.471-.482-.027-.992-.399-1.303-.45-.377-.782-.926-1.356-1.133.248-.156.508-.292.776-.41-.134.614.386 1.089.887 1.326.608.288 1.341.395 2.005.29.491-.078 1.133-.37.976-.98-.101-.397-.527-.6-.87-.746-.41-.174-.794-.317-1.167-.564.217-.096.424-.21.616-.348.139-.101.163.027.313.075.106.035.218.03.326.009.406-.08.715-.41.928-.745.366-.577.541-1.3.428-1.98-.047-.278-.165-.592-.447-.707-.387-.158-.867.387-1.098.651-.313.357-.625.83-.734 1.298-.054.235-.022.495.04.725.05.185.08.189-.086.303a2.984 2.984 0 0 1-.33.193c.371-.638.232-1.275-.11-1.888-.238-.428-.628-1.06-1.21-.932-.663.145-.446.854-.542 1.346-.068.346-.246.69-.193 1.051.052.35.249.736.5.984a6.11 6.11 0 0 0-1.142.471c-.027-.735-.14-1.438-.548-2.069-.182-.28-.32-.49-.687-.364-.25.087-.422.315-.546.537a3.035 3.035 0 0 0-.39 1.556c.022.554.197 1.264.731 1.543-.252.316-.454.67-.657 1.02-.195-.46-.673-.753-.986-1.131-.324-.392-.552-.924-1.12-.986-.563-.061-.666.521-.662.965.01.998.608 2.867 1.905 2.712-.424.778-.91 1.375-1.688 1.82-.34.194-.697.354-1.056.506-.249.105-.715.205-.631.576.08.361.656-.008.83-.083a8.17 8.17 0 0 0 1.312-.675c.049-.033.14-.122.198-.117l.462.042c.269.025.537.051.805.088a6.226 6.226 0 0 1 1.511.414c-.295.462-.295 1.245-.08 1.74.222.512.724.889 1.217 1.123.428.202 1.15.301 1.301-.312.085-.343-.13-.668-.277-.96-.176-.352-.264-.742-.448-1.09.286.023.574.01.859-.03-.113.558.31 1.294.763 1.598.47.316 1.127.426 1.685.398.462-.023 1.248-.375.844-.965-.206-.3-.566-.502-.818-.766-.282-.294-.559-.614-.943-.774.105-.055.208-.113.31-.175.143-.088.104-.043.214.049.152.125.335.21.523.262.372.103.71.055 1.06-.096.39-.17.755-.407 1.072-.693.242-.22.767-.696.733-1.063-.072-.804-1.27-.738-1.835-.636zm-.759-2.951c-.424.258-1.111.15-1.574.06.034-.115.016-.51-.207-.324-.045.037-.08.1-.116.146-.089.114-.155.052-.288-.008.133-.086.287-.544-.015-.445-.204.067-.283.34-.462.098-.259-.35.068-.727.461-.648.344.069.631.323.917.509.312.202.997.212 1.284.612zm.649-3.852c-.025.322-.084.593-.26.87-.177-.157-.464-.126-.338.154.013.03.098.133.095.159-.123.128-.335.303-.52.187-.381-.236-.249-.858-.08-1.173.21-.39.555-.72.933-.947.296.102.184.566.17.75zm-3.277-.333c.071-.24.206-.034.296.096.177.255.293.552.383.848.086.285.074.555-.07.82-.082.151-.38.641-.583.611-.167-.024-.223-.292-.269-.42-.11-.31.004-.567.085-.867.045-.165.053-.736.158-1.088zm-.09 8.482c-.1-.345-.013-.76.086-1.097.05-.166.114-.354.243-.475.215-.203.338.15.429.32.29.546.647 1.305.16 1.767-.775.735-.797-.104-.918-.515zm-.45-3.154c.134.096.316.202.399.35.099.175-.413.137-.488.133a2.933 2.933 0 0 1-.902-.2.975.975 0 0 1-.545-.493c-.064-.132-.27-.605-.14-.727.12-.114.377-.019.514.012.3.07.495.219.684.461a2.5 2.5 0 0 0 .477.464zm-1.56-2.195c-.041.221-.21.616-.47.648-.251.032-.416-.316-.497-.5.152.036.486-.041.445-.268-.042-.237-.429-.1-.551-.019-.017-.059-.036-.118-.04-.18.32-.02.359-.508.02-.394.025-.225.108-1.122.471-1.088.242.29.731 1.22.622 1.8zm-.766 4.032c-.02-.126-.224-.282-.298-.107-.045.11-.104.222-.13.339-.17-.072-.748-.316-.524-.586.184-.222.54-.289.81-.274.609.03 1.209.392 1.63.815-.165.18-.57.187-.792.21-.287.031-.52.041-.798-.046.075-.103.138-.22.102-.351zm-2.763-1.95c-.096-.205-.117-.47-.161-.689-.011-.053-.087-.646-.124-.655.443.104.638.69.885 1.015.243.318.65.507.83.875.212.43-.27.768-.65.544-.387-.226-.598-.701-.78-1.09-.06-.126.19.407 0 0zm1.36 2.306c.614.877 2.26.934 3.077.338 1.332-.972-1.343-2.144-2.17-1.971.195-.35.41-.687.658-1 .116.516.366.988.836 1.26.517.297 1.29.425 1.862.23-.717.712-.819 2.178-.337 3.03-.829.065-1.529-.198-2.299-.452-.76-.25-1.545-.415-2.34-.506.272-.28.506-.597.714-.929zm3.4 4.329c.04.09-.415-.03-.46-.045-.287-.091-.583-.292-.808-.488.1-.024.239-.15.219-.264-.04-.218-.272-.109-.4-.079-.092.022-.188-.109-.118-.136.07-.027.12-.06.164-.124.138-.204-.072-.284-.242-.25.004-.186.009-.677.307-.615.214.045.484.265.617.434.158.203.185.463.282.695.126.301.308.574.44.872.055.125-.176-.398 0 0zm2.359-1.477c.234.302.561.506.846.754.12.105.022.286-.122.345-.128.053-.321-.007-.453-.02.13-.21-.155-.564-.293-.285-.053.107-.043.237-.177.196-.221-.067-.435-.175-.578-.362-.145-.192-.494-1.001-.15-1.097.289-.08.751.243.927.47.262.337-.087-.113 0 0zm2.317-1.652c-.054-.114-.347-.415-.384-.117-.009.07.025.142.017.212-.003.026.03.074.02.097-.025.049-.19.085-.245.1.056-.131-.014-.455-.204-.414-.15.03-.172.305-.19.43-.035.11-.648-.15-.684-.321-.046-.22.201-.43.35-.548.42-.335.86-.455 1.39-.468.221-.005.581-.02.745.165.117.132-.69.778-.815.864z"/>
            </g>
        </g>
        <g fill="#9270EF">
            <path d="M82.933 50.61c0-.166.004-.334.008-.502.02-.83.042-1.772-.5-2.595-.297-.452-.702-.771-1.094-1.08-.329-.258-.64-.502-.858-.804a1.966 1.966 0 0 1-.348-1.372 1.127 1.127 0 0 0 1.06-1.127v-.727c0-1.182-.95-2.143-2.12-2.143h-2.163c-1.169 0-2.12.961-2.12 2.143v.727c0 .604.471 1.095 1.06 1.127.058.48-.064.983-.347 1.372-.219.302-.53.546-.858.805-.392.308-.797.627-1.094 1.08-.542.823-.52 1.764-.5 2.595.005.167.009.335.008.5l-.026 10.251a.876.876 0 0 0 .868.88h8.182a.876.876 0 0 0 .868-.88l-.026-10.25zm-7.252-7.48v-.727c0-.69.555-1.251 1.237-1.251h2.163c.683 0 1.238.561 1.238 1.251v.727c0 .131-.11.242-.239.242h-4.16a.243.243 0 0 1-.24-.242zm-1.757 17.733l.025-10.25c0-.175-.003-.35-.008-.526-.018-.767-.035-1.491.352-2.08.218-.331.55-.593.902-.87.361-.284.736-.579 1.027-.98a2.88 2.88 0 0 0 .523-1.893h2.51a2.88 2.88 0 0 0 .523 1.893c.292.401.666.696 1.027.98.352.277.684.539.902.87.388.589.37 1.313.352 2.08-.005.176-.009.351-.008.543l.04 10.218-8.167.015z"/>
            <path d="M80.072 50.926h-4.144a.92.92 0 0 0-.913.923v2.056c0 .51.41.923.913.923h4.144a.92.92 0 0 0 .913-.923V51.85a.92.92 0 0 0-.913-.923zm.03 2.98c0 .016-.014.03-.03.03h-4.144a.032.032 0 0 1-.03-.03v-2.057c0-.016.015-.031.03-.031h4.144c.015 0 .03.015.03.03v2.057zM80.544 55.991h-5.088c-.243 0-.44.2-.44.446s.197.446.44.446h5.088c.243 0 .44-.2.44-.446a.444.444 0 0 0-.44-.446zM79.701 58.046H76.3c-.244 0-.441.2-.441.446s.197.446.44.446h3.403c.244 0 .441-.2.441-.446a.444.444 0 0 0-.44-.446z"/>
        </g>
        <g>
            <path fill="#FFF" d="M274 391c9.389 0 17-7.835 17-17.5s-7.611-17.5-17-17.5-18.725 7.835-18.725 17.5S264.611 391 274 391z"/>
            <g fill="#9270EF">
                <path d="M274.235 391.115c-1.538 0-3.065-.168-4.514-.671-2.308-.801-4.677-1.498-6.664-2.998-1.028-.778-2.018-1.609-2.996-2.449-1.55-1.33-2.784-2.937-3.937-4.604-.673-.975-1.103-2.05-1.447-3.195-.322-1.07-.501-2.15-.586-3.234-.084-1.082.05-2.183.1-3.274.056-1.238.355-2.436.778-3.586.303-.825.745-1.619 1.235-2.353.492-.736 1.1-1.402 1.697-2.062.855-.942 1.902-1.659 2.983-2.313 1.488-.902 3.041-1.681 4.626-2.41.895-.41 1.68-1.065 2.492-1.643.542-.387.782-.98.884-1.616.23-1.422.464-2.844.65-4.271.095-.743.058-.769-.64-1.041a2.742 2.742 0 0 1-1.37-1.138c-.195-.312-.383-.627-.582-.937-.339-.53-.323-1.19.06-1.674.113-.143.237-.293.388-.391 1.189-.772 2.343-1.617 3.797-1.852.699-.113 1.394-.275 2.098-.33 1.006-.077 1.874.476 2.81.726.429.115.842.304 1.246.493.565.265 1.028.632 1.203 1.277.053.197.18.378.294.553.246.383.227.703.047 1.16-.271.692-.643 1.274-1.226 1.68-.603.42-.695 1.027-.761 1.64-.041.382-.02.817.129 1.16.212.49.12.982.202 1.462.145.844.393 1.674.654 2.493.058.185.326.342.533.436.98.445 1.96.893 2.962 1.284.782.304 1.597.528 2.399.784 1.075.344 1.948 1.038 2.857 1.658 1.622 1.107 2.738 2.625 3.729 4.31 1.061 1.806 1.53 3.784 2.087 5.741.233.82.271 1.699.147 2.577-.272 1.928-.75 3.8-1.335 5.655-.466 1.473-.81 2.985-1.22 4.476-.674 2.46-2.262 4.14-4.527 5.248-.805.394-1.589.832-2.392 1.23-2.138 1.06-4.364 1.864-6.755 2.097-.702.068-1.423-.06-2.135-.098zm-.08-.951c1.66.08 3.268-.136 4.853-.593a26.512 26.512 0 0 0 6.146-2.664c1.124-.663 2.14-1.465 2.774-2.62.414-.753.79-1.55 1.028-2.372.687-2.363 1.287-4.75 1.937-7.124.768-2.801.155-5.477-.834-8.078-.557-1.464-1.279-2.87-2.399-4.043-1.171-1.228-2.4-2.342-4.014-2.974-1.786-.701-3.604-1.33-5.28-2.29-.647-.369-1.102-.833-1.354-1.553-.531-1.518-.787-3.088-.938-4.672-.104-1.09.133-2.033 1.095-2.838 1.015-.85.982-1.276.224-2.28-.72-.952-2.83-1.785-4.018-1.67-.494.048-.998-.017-1.498-.03-.286-.008-.577-.054-.857-.015-1.333.184-2.338 1.04-3.426 1.716-.28.175-.288.448-.11.759.395.696.821 1.338 1.633 1.618.168.058.314.194.456.31.536.445.854.963.748 1.712-.24 1.683-.42 3.374-.656 5.058-.071.512-.123 1.09-.396 1.498-.526.784-1.23 1.42-2.144 1.802-1.215.507-2.445 1-3.6 1.624-1.8.974-3.64 1.898-5.038 3.483-.502.57-1.117 1.031-1.4 1.769-.037.093-.125.166-.19.247-.8 1.002-1.346 2.125-1.585 3.382a16.536 16.536 0 0 0-.268 1.947c-.065.943-.167 1.9-.076 2.833.089.903.433 1.778.609 2.676.246 1.256.722 2.427 1.508 3.414.78.98 1.514 1.996 2.426 2.891 1.436 1.41 3.006 2.638 4.606 3.835.604.452 1.291.83 1.995 1.109 1.415.56 2.844 1.11 4.31 1.507 1.212.327 2.486.426 3.732.626z"/>
                <path d="M261.002 363.505c-.136.212-.262.43-.409.635-.594.83-1.171 1.675-1.8 2.479-.676.866-1.021 1.884-1.436 2.872-.065.156-.043.36-.024.537.21 2.003.426 4 .857 5.978.201.925.449 1.809.794 2.688.386.98 1.117 1.709 1.683 2.554a17.99 17.99 0 0 0 1.601 2.039c.383.423.869.757 1.324 1.11.643.5 1.277 1.017 1.96 1.458.584.378 1.232.66 1.925 1.023-.611.086-1.184.215-1.74-.182-1.006-.717-2.033-1.406-3.017-2.151-.835-.633-1.652-1.286-2.208-2.218-.347-.582-.826-1.087-1.258-1.616-1.052-1.289-1.686-2.781-2.039-4.377-.287-1.299-.458-2.625-.633-3.945-.078-.593-.057-1.202-.05-1.804.015-1.169.357-2.244.905-3.28.7-1.322 1.647-2.43 2.74-3.429.208-.189.459-.332.69-.497l.135.126zM289.368 372.897c.025.115.077.231.07.344a36.793 36.793 0 0 1-.422 3.51c-.27 1.616-.752 3.154-1.292 4.687-.533 1.512-1.382 2.823-2.491 3.975-.092.094-.205.173-.278.279-.546.788-1.319 1.289-2.19 1.624-.921.354-1.871.636-2.856.883.54-.38 1.077-.763 1.619-1.14.238-.166.474-.338.728-.476 1.408-.766 2.423-1.922 3.24-3.261.479-.784.923-1.59 1.361-2.397.888-1.635 1.308-3.418 1.67-5.222.19-.944.43-1.877.647-2.815l.194.009zM276.888 346.992c-.566.764-1.134 1.32-2.17 1.22-1.018-.097-2.054-.003-3.076-.081-.759-.058-1.504-.263-2.12-.767-.648-.53-.606-1.538.161-1.876.858-.377 1.757-.694 2.752-.466.484.11.997.103 1.498.127.91.045 1.707.281 2.247 1.095.182.275.458.488.708.748zm-1.429-.184c-.978-1.044-4.488-1.292-5.653-.444.78.968 4.253 1.263 5.653.444zM271.323 351.978c.28 1.66.24 3.325.054 4.991a.858.858 0 0 1-.187.423 9.864 9.864 0 0 1-2.685 2.274c-.08.047-.198.026-.48.056.473-.45.829-.795 1.19-1.132.83-.776 1.271-1.69 1.483-2.841.196-1.068.089-2.143.32-3.19.043-.195.093-.389.14-.583l.165.002z"/>
            </g>
        </g>
        <g fill="#9270EF">
            <path d="M252.02 373.528c-.382-.455-.978-.631-1.552-.58-.393.034-1.19.115-1.286.599-.027.135-.024.345.104.432.145.1.436-.088.583-.13.43-.124.916-.177 1.33.032.476.24.721.763.86 1.257.137.492.132 1.015-.083 1.484-.107.237-.26.45-.435.64-.188.204-.506.363-.55.658-.328-.18-.944-.3-1.085-.696-.185-.523.62-1.387-.008-1.745-.216-.123-.449-.032-.677-.1a.557.557 0 0 1-.365-.357c-.14-.383-.068-.826-.085-1.225-.015-.36-.14-.96-.62-.861-.412.084-.775.528-.929.904-.19.464-.124 1-.415 1.43-.173.255-.426.393-.682.55-.327.201-.587.485-.907.694-.56.368-1.257.424-1.812.797-.276.186-.513.424-.794.605a5.01 5.01 0 0 1-.87.444c-.29.115-.587.208-.886.295-.303.089-.597.145-.762.448-.26.479-.164.974.229 1.337.903.835 2.39-.052 3.29-.422a55.744 55.744 0 0 1 3.468-1.287c.354-.12.725-.291 1.104-.28.709.018 1.321.478 1.977.695.436.144 1.352.124 1.41-.509a.52.52 0 0 0-.13-.381c.138-.117.27-.242.393-.374a4.25 4.25 0 0 0 .659-.915c.35-.664.48-1.45.163-2.153-.329-.732-.327-.918-.636-1.286zm-1.826 4.969c-.492-.16-.93-.457-1.43-.595-.593-.163-1.203-.027-1.772.17-.034-.247-.268-.534-.54-.5-.365.045.092.529.184.634-.135.053-.27.109-.403.165-.024-.206-.078-.391-.224-.542-.096-.089-.395-.325-.454-.068-.027.123.125.337.185.442.036.075.063.15.088.23.037.098.058.089-.056.138l-.26.11c-.02-.172-.276-.464-.44-.256-.025.03-.094.272-.011.293.01.03.028.054.035.084.017.076-.278.144-.352.172-.023-.18-.249-.457-.424-.254-.023.027-.063.266-.024.275.004.036.02.07.021.105.004.068-.304.143-.372.168-.107.038-.538.252-.586.154-.05-.099-.126-.26-.253-.262-.18-.003-.166.176-.16.297.003.042.001.084.007.126.016.119-.154.143-.249.189.014-.13-.058-.28-.14-.376-.214-.247-.287.16-.3.295-.005.055.004.11-.004.165-.02.156-.067.146-.219.198-.263.091-.563.166-.84.092-.179-.047-.539-.29-.489-.515.047-.212.241-.343.424-.428.41-.191.872-.21 1.28-.402.614-.288 1.031-.865 1.661-1.106.589-.226 1.197-.31 1.703-.718.252-.202.476-.436.726-.641.24-.196.529-.32.74-.55.354-.381.54-.912.641-1.417.036-.176.062-.354.07-.533-.027.613-.119 1.383.229 1.926.202.317.477.304.797.408.255.082.312.277.244.522-.065.228-.188.449-.195.69-.012.353.336.493.599.631.222.118.444.235.656.372.052.034.168.089.191.154.016.046-.27-.038-.284-.042-.61-.198.775.25 0 0z"/>
            <path d="M251.107 375.831c0-.06-.446.187-.481.226-.07.078-.276.464-.138.543.112.064.278-.237.339-.296.13-.134.308-.072.46-.046.347.06.588-.232.46-.556-.145-.368-.313-.674-.655-.887-.341-.213-.762-.282-1.158-.242-.088-.052-.596.145-.463.22.151.086.376.052.543.077.248.038.49.112.717.222.327.166.463.434.6.756-.022 0-.225-.023-.224-.017zM244.75 373.555c.468-.535.946-1.013 1.665-1.142.594-.106 1.195-.075 1.758-.328.364-.164 1.078-.595.794-1.104-.19-.338-.702-.245-1.02-.243-.377.003-.773-.009-1.139-.11-.114-.032-.281-.082-.333-.203-.08-.19.195-.571.256-.75a1.36 1.36 0 0 0 .032-.823c-.09-.294-.319-.362-.593-.4a1.166 1.166 0 0 1-.703-.361 2.127 2.127 0 0 1-.23-.304 5.892 5.892 0 0 1-.104-.168c-.057-.096.051-.15.134-.2.247-.148.562-.142.827-.253.302-.126.585-.309.915-.351.182-.024.367 0 .55.006.173.005.361-.013.532.017.187.032.31.24.39.396.192.369.324.817.34 1.235.012.323-.02.646-.114.956-.049.156-.11.307-.18.454-.048.1-.154.235-.1.353.07.155.31.153.446.121.287-.066.373-.343.476-.592.269-.653.31-1.325.148-2.011-.11-.467-.248-1.326-.806-1.443-.6-.126-1.234-.235-1.847-.156-.312.04-.57.178-.86.293-.346.138-.707.245-1.029.438a1.98 1.98 0 0 0-.21.146 1.851 1.851 0 0 0-.173-.187.864.864 0 0 0-.308-.196c-.201-.067-.392.016-.532.165-.31.329-.451.856-.493 1.298-.05.533.157 1.002.225 1.519.087.662-.32 1.07-.705 1.545-.453.56-.689 1.22-.982 1.869-.594 1.312-1.91 2.132-2.441 3.483-.13.332-.213.7-.22 1.058-.007.347.606.616.89.645.798.079 1.526-.627 2.026-1.17 1.184-1.28 1.745-2.388 2.718-3.502zm-1.941-1.222c.236-.595.64-1.024 1.043-1.505.398-.473.626-.95.444-1.58-.106-.37-.23-.734-.292-1.115-.042-.257.211-.598-.008-.812.359.35.336.911.577 1.328.192.333.56.355.892.46.379.118.628.294.47.719-.097.257-.26.509-.22.796.035.245.183.383.399.478.481.212 1.014.23 1.529.255.016 0 .33.017.257.083-.084.075-.239.097-.343.122-.413.1-.831.05-1.244.153-.662.164-1.226.545-1.706 1.027-.11-.14-.483-.443-.655-.228-.128.159.074.276.167.372.013.014.115.09.114.091.092-.023.06.102.027.14-.056.064-.111.13-.166.195-.102-.124-.73-.636-.842-.286-.037.111.302.401.31.392.05.043.105.08.154.125.086.082.136.07.05.18l-.23.301c-.113-.106-.587-.295-.538.037.015.101.129.162.189.238.022.028.056.052.075.083-.072.092-.14.187-.207.283-.066-.147-.606-.592-.624-.195-.004.104.117.24.177.32.036.047.067.098.098.149.081.127.054.155-.03.273-.515.737-1.072 1.553-1.816 2.074-.239.167-.57.338-.858.193-.207-.104-.12-.336-.075-.533.055-.247.149-.483.271-.703.47-.844 1.288-1.406 1.851-2.178.42-.574.529-1.149.76-1.732z"/>
            <path d="M247.857 368.721c-.198.297-.516.523-.588.894-.033.17-.034.469.092.606.077.085.114-.17.118-.2.017-.143.031-.275.101-.403.107-.197.321-.343.476-.5.194-.198.273-.411.302-.689.041-.375-.063-1.085-.59-.984-.356.069-.515.48-.894.514-.151.014-.307.02-.454.057-.177.045-.168.147-.002.201.409.133.793.067 1.148-.158.161-.101.354-.277.354.053 0 .18.055.45-.063.61z"/>
        </g>
        <g>
            <path fill="#FFF" stroke="#9270EF" d="M228.128 364.646l.804 22.229 2.843 3.046 3.253 1.256 14.333-.711 2.447-.545s6.861-.95 6.861-8.843-2.735-20.429-2.735-20.429l-8.08-4.926.059-6.405-10.004-.402.757 3.12v4.742s-9.78 5.79-9.78 6.828"/>
            <g fill="#9270EF">
                <path stroke="#9270EF" stroke-opacity=".288" d="M243.108 341.322c.217-.054.434.054.651.107.434.054.814-.107 1.248 0 .38.054.76.108 1.085.215.38.054.759.215 1.084.376.543.215.868.59.977 1.181v.107c-.326.43-.326.967-.38 1.45 0 .376-.109.751-.109 1.18-.054.591-.054 1.236.055 1.826.054.161.054.376.054.59 0 .215.163.377.38.323.27-.054.488-.054.759-.054.38.054.65.537.434.86-.271.429-.705.804-.977 1.288-.108.16-.325.375-.325.536-.054.322-.217.645-.217 1.02 0 .376-.054.752-.163 1.128-.054.214 0 .43.055.59.108.644.162 1.289.434 1.88.162.375.488.697.813.966.217.16.434.268.65.429.326.268.76.322 1.194.483.976.322 2.061.322 3.037.644.434.108.868.269 1.302.322.326.054.543.323.76.537 0 0 .054.054.054.108.542.268.542.859.759 1.342.109.268.109.537.271.751.217.43.271.913.38 1.396.108.483.163 1.02.271 1.503.054.269.054.537.054.806 0 .375.109.751.109 1.127 0 .59.217 1.127.217 1.718 0 .322.054.644.108.966.054.59.054 1.181.163 1.772.108.751.108 1.503.163 2.254.054.591 0 1.182.054 1.718.054.59.108 1.181.163 1.718.054.43.054.806.054 1.235v2.094c0 .537-.109 1.073-.109 1.664-.054.698-.108 1.342-.162 2.04 0 .107-.055.16-.109.268-.163.215-.271.483-.38.752-.054.215-.216.376-.38.537-.216.268-.433.537-.704.751-.651.483-1.14 1.128-1.736 1.665-.488.429-1.03.805-1.573 1.127-.054.054-.162.107-.217.16-.27.377-.65.484-1.03.645-.271.108-.488.322-.76.43-.216.107-.38.268-.596.322-.217.053-.434.053-.705.107-1.14.215-2.332.43-3.471.644-.326.054-.651.054-.977.054-.488 0-.976 0-1.464.054-.163 0-.38-.054-.488.16-.054.054-.271.054-.38 0-.325-.16-.705 0-1.03 0-.814 0-1.682.162-2.495.108-.217 0-.488.054-.705.107-.434.054-.868-.053-1.248 0-.217 0-.434-.053-.65 0-.11 0-.272-.053-.326.162-.054.16-.271.053-.38 0-.108 0-.162-.054-.27 0-.815.107-1.574-.054-2.387-.108-.814-.054-1.519-.376-2.224-.751-.434-.215-.705-.43-.922-.86-.054-.053-.109-.16-.163-.214-.434-.161-.65-.59-.976-.86-.163-.16-.109-.375-.163-.59 0-.107-.054-.214-.054-.268-.217-.376-.271-.805-.326-1.235a47.415 47.415 0 0 1-.38-2.738c-.108-.536-.216-1.073-.27-1.61 0-.269 0-.483-.055-.752-.162-.644 0-1.234-.108-1.879-.109-.537-.054-1.073-.109-1.557 0-.16-.162-.268-.162-.429.054-.644-.163-1.288-.271-1.933-.055-.483-.109-1.02-.163-1.503-.054-.376.054-.751 0-1.127-.054-.537 0-1.074-.109-1.61-.054-.27 0-.591 0-.913 0-.269.055-.59 0-.86-.054-.321 0-.643-.054-.966-.054-.16.054-.322.054-.536 0-.43 0-.913.109-1.343.108-.536.217-1.073.38-1.556.162-.43.27-.86.38-1.289.053-.215.162-.322.27-.43.272-.321.326-.697.543-1.02.38-.59.868-1.073 1.356-1.556.325-.269.65-.537.976-.752.38-.214.76-.43 1.139-.59.271-.108.488-.215.705-.376.054-.054.163-.054.271-.107.217-.108.434-.161.597-.322.163-.215.434-.269.65-.323.597-.214 1.14-.483 1.628-.859.325-.268.65-.536 1.03-.751.326-.215.434-.537.651-.752.054-.053.054-.107.054-.16.109-.43.055-.86.055-1.29v-.268c.162-.644.108-1.342.162-1.986.055-.322 0-.59-.217-.913-.325-.429-.65-.912-.867-1.449a1.167 1.167 0 0 0-.272-.43c-.162-.214-.108-.375.109-.483.108-.053.163-.107.163-.214 0-.215.108-.322.325-.376.434-.108.922-.215 1.356-.376.325-.107.217-.322.217-.537-.054-.751-.109-1.503-.109-2.255 0-.751.055-1.503 0-2.2 0-.108 0-.269.163-.323.054 0 .054-.053.054-.107.163-.59.597-.966 1.194-1.127.217-.054.38-.161.596-.215.434-.108.868-.054 1.302-.108.163-.107.38-.214.596-.107zm-1.193 7.57c0-.054 0-.108-.054-.161-.271-.376-.65-.591-.868-1.02-.054-.108-.108-.162-.217-.054-.108.107 0 .16.055.215.108.16.27.268.433.375.217.215.326.537.651.645.054.16-.054.214-.217.16a1.188 1.188 0 0 1-.27-.16l-.489-.484c-.054-.053-.108-.053-.163-.053-.054 0-.054.053-.108.16-.054.162.108.27.217.323.27.215.542.43.868.43h.867c.163 0 .326 0 .488-.054.055.053.163.053.272.053h1.627c.38 0 .76-.16 1.085 0-.163-.16-.326-.268-.489-.43-.054-.053-.108-.106-.162-.053-.217.269-.38.054-.543-.053-.108-.054-.217-.162-.325-.269-.054-.054-.109-.054-.163 0-.054.054 0 .107.054.161.109.054.163.215.272.322.054.054.054.161 0 .161-.055.054-.109.054-.163 0-.163-.107-.271-.214-.434-.322a5.382 5.382 0 0 1-.597-.537c-.054.215.109.269.163.43.054.16 0 .16-.108.215-.109.053-.217-.054-.326-.108-.108-.16-.271-.268-.434-.376-.108-.107-.217-.16-.27-.322-.164-.214-.326-.43-.543-.644-.055-.054-.109-.054-.163-.054-.054 0-.054.054-.054.108.108.376.325.644.596.859.109.107.163-.054.217 0 .217 0 .488.59.326.805-.38-.215-.705-.483-.922-.805-.109-.161-.217-.376-.488-.376 0 .054.054.107.054.107.163.108.271.322.434.483.108.054.162.215.108.323-.054.107-.163.053-.271 0 .163 0 .108-.054.054 0zm-8.678 19.81c.163.16.326.214.488-.055.055-.107.163-.107.272-.16.488-.108.867.107 1.301.321.326.161.597.43.977.537.27.054.488 0 .759 0 .542-.053 1.085-.16 1.573-.43-.163 0-.326.054-.488.108-.109 0-.217 0-.217-.107-.055-.161.054-.161.162-.161.055 0 .109-.054.163-.054.434 0 .868-.268 1.302-.215.271 0 .596-.214.868-.107.325.161.542-.107.813-.054-.054-.107-.108-.107-.163-.107-.27-.054-.596-.107-.867-.215a1.335 1.335 0 0 0-.651 0c-.271.054-.597.108-.868-.054a1.092 1.092 0 0 0-.488-.107c.108.215-.054.322-.217.376-.271.107-.542.16-.76.322.163-.054.272 0 .435-.054.054 0 .108 0 .108.054s-.054.054-.054.107c-.326.054-.651.215-1.03.161-.11 0-.272.054-.272-.107-.054-.107.109-.107.217-.215-.163-.053-.325.054-.488.108-.109.053-.217.053-.38.053-.108 0-.163-.107-.163-.16-.054-.162.109-.054.163-.108.217-.054.38-.161.597-.215.271-.053.542-.268.813-.268.272.053.489 0 .76-.054-.217-.054-.38-.16-.597-.268a.417.417 0 0 0-.271-.108c-.326 0-.326 0-.217-.268.054-.161.271-.215.488-.054.326.215.65.322 1.03.322.163 0 .272.054.434.108.272.107.543.107.814.053.488-.107.976 0 1.41.161.38.108.76.323 1.14.323.433 0 .867 0 1.3.053.164 0 .272.108.435.054.542-.161 1.085-.054 1.627-.054.108 0 .217.054.271.108.163.16.38.16.597.16.217 0 .488-.053.705-.053.542-.054 1.085 0 1.627-.054.325-.053.65-.107 1.03 0 .272.054.543.054.868-.053.109-.054.217-.108.38-.054.054 0 .163.054.108.107-.217-.053-.217.054-.325.108-.325.107-.597.214-.922.16-.976-.16-2.007 0-2.983.054-.38 0-.705.161-1.085 0a1.102 1.102 0 0 0-.597-.16c-.38-.108-.759-.054-1.193 0 .055.053.217.053.217.214 0 .054-.054.107-.108.107-.163.054-.163-.107-.217-.16-.054-.108-.163-.108-.271-.108-.055 0-.109.054-.217 0-.597-.268-1.14-.107-1.627.215-.055.053-.109.053-.055.16 0 .054.055.054.109.054.162 0 .325.054.434.054.976-.054 1.898.161 2.712.644.216.161.38.108.596 0 .271-.107.543-.322.814-.483.162-.107.325 0 .325.215 0 .054-.108.107 0 .107.054 0 .109 0 .109-.053.162-.161.325-.161.596-.161-.217.214 0 .214.109.214.054 0 .162-.053.162.054 0 .054-.108.107-.162.107.434.108.813-.053 1.193-.107.325-.054.705 0 1.03.054.109 0 .109.053.055.16a.495.495 0 0 1-.38.162c-.488 0-1.03.107-1.519.16-.27.055-.542.055-.813-.107-.217-.107-.434-.214-.651-.107-.38.107-.76.107-1.085.322l-.976.644c.054-.107 0-.268.163-.375-.651.214-1.14.536-1.736.751.217-.322.488-.43.76-.59.379-.215.759-.43 1.193-.59.054 0 .162-.055.217-.162 0-.107-.109-.107-.163-.16a6.238 6.238 0 0 0-1.41-.484c-.597-.107-1.248-.054-1.844-.107h-.109c-.596.107-1.247.053-1.844-.054-.163-.054-.38 0-.542.054-.272.107-.597.214-.922.214-.163 0-.326.054-.488.108-.597.214-1.194.214-1.736-.161-.488-.323-1.03-.484-1.627-.323a1.81 1.81 0 0 1-.76 0c-.216-.053-.433-.214-.705-.16-.434.053-.867 0-1.301.053-.977.161-1.953.43-2.55 1.342-.054.054-.108.161-.162.161-.217 0-.271.108-.326.269-.054.214-.217.214-.38.053-.053-.053-.053-.16-.216-.16.108 1.02.054 2.093.271 3.167.217-.43.597-.59.814-.913.054-.107.162-.215.27-.322.706-.537 1.248-1.235 1.845-1.879.488-.537 1.085-.966 1.681-1.342.109-.054.217-.054.271.054.109.107 0 .16-.108.214-.38.215-.76.43-1.085.698-.38.376-.813.752-1.193 1.181-.542.59-1.14 1.074-1.681 1.664-.163.162-.326.376-.489.537-.217.161 0 .483-.325.645.054.268-.054.483.108.751.489-.644 1.031-1.127 1.628-1.61.217-.215.488-.376.65-.645.434-.59 1.085-.966 1.52-1.556.216-.269.541-.484.813-.752.325-.322.65-.59 1.084-.752.109-.053.217-.053.272.054.054.107.054.215-.109.322a1.648 1.648 0 0 0-.38.269c-.162.16-.38.053-.542.16-.325.27-.65.537-.976.806-.543.483-1.085 1.02-1.627 1.503l-1.465 1.45c-.217.268-.596.483-.65.858 0 .054-.055.108-.163.108-.271-.054-.163.107-.163.268 0 .161.108.322.163.483 0 .376.108.698.162 1.02.055.269.163.537.163.806.054.859.163 1.771.109 2.63 0 .698.162 1.396.217 2.148 0 .214.108.322.108.536a23.4 23.4 0 0 0 .217 1.933c.108.483.163.966.271 1.396.054.16.054.376.109.537.162.322.217.698.325 1.02.271.751.705 1.45 1.302 1.932.596.483 1.301.86 2.06 1.02.38.054.76.269 1.14.215.596-.107 1.193-.054 1.79-.054.38 0 .759-.053 1.139 0 .596.054 1.139 0 1.735 0 .76 0 1.519 0 2.278-.107.434-.054.868 0 1.302-.054.976-.214 1.952-.16 2.929-.214.705 0 1.41-.161 2.115-.269.65-.107 1.302-.268 2.007-.43.705-.16 1.356-.375 1.952-.805.109-.053.326-.107.109-.322-.055-.053 0-.107 0-.16.108-.377.27-.806.27-1.182 0-.107-.053-.268-.053-.376.054-.43 0-.912 0-1.342 0-.375-.109-.751 0-1.073.054-.215.054-.484.054-.698 0-.59-.054-1.128-.054-1.718v-1.718c-.109-.966-.109-1.879-.109-2.792 0-.698-.054-1.395-.108-2.093 0-.913-.109-1.772-.217-2.63-.109-.967 0-1.88 0-2.846v-1.181c-.055-.966-.109-1.933-.163-2.845-.054-.752-.108-1.45-.325-2.148-.055-.107-.055-.16-.163-.215-.217-.107-.434-.322-.488-.59-.163-.537-.543-.859-1.03-1.127-.218-.161-.489-.161-.76-.269-.488-.215-1.03-.268-1.573-.322-.597-.054-1.139-.054-1.736-.107-.596-.054-1.193-.108-1.79-.054-.325 0-.65.054-.921 0-.272 0-.489-.107-.76-.107-.813.107-1.681.053-2.495.053-.705 0-1.41.054-2.115-.053-.217-.054-.325.053-.325.268 0 .698-.055 1.342 0 2.04 0 .268-.055.59 0 .913.054.214.108.43.054.698v.751c.054.161 0 .322-.054.483 0 .054-.055.108-.109.108s-.163-.054-.163-.108c0-.16-.108-.322-.054-.537a.587.587 0 0 0 0-.429c-.054-.483.054-.966 0-1.45v-1.02c0-.429-.217-.805-.054-1.234.108-.269 0-.43-.217-.376-.542.107-1.03-.054-1.573.054-.488.107-.976-.108-1.464 0-.38.053-.705.053-1.085.16-.65.162-1.247.377-1.844.645-.325.161-.705.215-.814.698 0 .054-.054.054-.108.054-.217 0-.271.16-.326.268a26.53 26.53 0 0 0-.488 1.181l-.488 1.288c-.108.215-.108.43-.162.698-.109.376-.272.752-.217 1.128.054.375-.055.751-.055 1.127.055.376 0 .805 0 1.235 0 .16-.108.376.055.537.325-.376.759-.537 1.03-.967 0 0 .054 0 .109-.053.38-.269.813-.376 1.247-.59.434-.162.868-.323 1.356-.27h.65c.38-.053.706-.107 1.031.108zm-2.712-7.14c.38 0 .706-.108.977-.216.65-.268 1.356-.268 2.006-.322.38 0 .76.054 1.194.054.38 0 .759-.054 1.139-.107.27 0 .542-.054.813-.054.054 0 .163 0 .163-.108 0-.214 0-.483-.054-.644-.109-.214-.109-.483-.109-.698v-1.127c0-.161.054-.268.217-.268s.163.16.163.268c0 .215.054.483.054.698 0 .59.054 1.127 0 1.718 0 .16.054.215.271.215.163 0 .326-.054.488 0 .272.053.597.053.868.053.488 0 1.03 0 1.519-.053.434-.054.922 0 1.41 0h1.41c.651 0 1.248-.054 1.899 0 .596 0 1.193.107 1.844.107.705 0 1.41.107 2.06.268.218.054.489.108.706.215.434.161.705.537 1.03.805.163.161.271.108.271-.053 0-.215.109-.269.272-.376.108-.108.27-.161.38-.269.379-.43.921-.59 1.464-.805.542-.16 1.084-.322 1.518-.644.217-.161.434-.268.705-.268h.434c.109 0 .217-.108.109-.215-.217-.269-.434-.537-.76-.59l-.65-.162c-1.03-.376-2.061-.537-3.092-.698-.65-.107-1.193-.322-1.736-.59-.38-.161-.705-.537-1.03-.752-.217-.16-.488-.322-.597-.537-.108-.268-.217-.59-.325-.912-.217-.698-.163-1.396-.271-2.148-.38.269-.814.43-1.248.537-.705.108-1.356.215-2.06.215h-.76c-.597-.054-1.248.054-1.844-.054-.163-.053-.38-.053-.542-.107-.434-.054-.76-.269-.977-.698-.162-.268-.162-.59-.162-.913 0-.536 0-.536-.543-.536-.163 0-.217.107-.217.16.054.269-.108.537-.108.86 0 .483-.055.912-.109 1.395-.054.645.054 1.289-.108 1.88-.109.375-.271.697-.597.912-.325.268-.76.537-1.085.805-.38.376-.813.644-1.301.805-.705.269-1.356.698-2.007 1.02-.488.269-.976.43-1.41.752-.271.215-.543.268-.814.483-.325.215-.542.537-.868.698zm21.912 18.681c0-.215.109-.43.163-.644 0-.054.054-.107.108-.107.109.053 0 .107 0 .16-.108.27-.108.591-.325.86-.108.107 0 .322 0 .536 0 .806 0 1.61.054 2.416.055.59 0 1.181 0 1.772 0 .483.055.966.109 1.45.054.536.054 1.127-.109 1.663-.054.108-.054.215-.054.376.217 0 .38-.107.542-.214.597-.376 1.194-.698 1.682-1.182.434-.483.976-.858 1.41-1.342.38-.375.76-.751 1.139-1.18.434-.591.813-1.235.868-1.987l.162-3.06c.055-.805 0-1.61 0-2.47 0-.751-.108-1.556-.108-2.308 0-.537-.054-1.074-.054-1.61 0-.43 0-.86-.055-1.343l-.162-1.771c-.054-.86-.217-1.718-.217-2.577 0-.107-.054-.107-.109-.054-.27.215-.596.43-.976.43-.054 0-.054.054-.108.054-.326.322-.814.429-1.248.59-.705.215-1.41.215-2.115.483-.271.108-.65.161-.705.59 0 .054-.054.108-.163.162-.108.053-.108.107-.163.215-.108.751.055 1.503-.108 2.254 0 .054 0 .054.054.108.163-.054.163-.161.271-.269.326-.537.705-1.02 1.03-1.557.272-.375.597-.805.869-1.18.054-.054.108-.054.162-.108a.166.166 0 0 1 .217 0c.055.107-.054.107-.108.161-.217.268-.488.483-.705.752-.488.59-.922 1.18-1.302 1.825-.163.322-.434.537-.434.966 0 .43.163.805.109 1.235 0 .107-.055.268.054.376.108-.161.217-.322.271-.483.163-.376.38-.698.597-1.02.27-.376.488-.752.705-1.182.27-.429.596-.858.813-1.288.109-.215.326-.43.434-.644.163-.215.326-.483.488-.698.109-.107.272-.268.38-.161.108.107-.054.268-.163.376-.596.537-.922 1.234-1.41 1.825-.325.483-.705 1.02-.976 1.557-.326.537-.597 1.127-.922 1.664-.109.161 0 .43-.217.537v.054c.054.59.054 1.127.054 1.717.054.86 0 1.718.109 2.577.108.108.054.376.162.698zm3.797-12.991c-.054 0-.109 0-.109.107s-.108.161-.162.107c-.217-.107-.38 0-.543.108a5.935 5.935 0 0 0-.596.322c-.163.107-.271.107-.38 0-.108-.108-.054-.269.054-.376-.108 0-.162.054-.217.107-.325.108-.65.269-.867.59-.055.108-.163.108-.272.055-.108-.108-.054-.215 0-.269a2.62 2.62 0 0 1 1.085-.751c.109-.054.271-.054.271.053.055.161.109.054.217 0 .054-.053.163-.107.217-.16.054-.108.163-.108.271-.054.055 0 .109.053.109.107s-.054.16-.163.16c-.054 0-.054.055-.054.108.271-.16.65-.214.868-.43.108-.107.27-.16.38-.214.108-.054.162 0 .162.107 0 .108 0 .162-.108.269.162 0 .217-.054.325 0 .109.054 0 .215.054.268.217-.16.38-.214.488-.537.055-.214.109-.375.109-.59-.054-.268-.109-.59-.163-.859l-.163-1.61c-.054-.323-.162-.698-.216-1.02-.055-.323-.109-.698-.217-1.02-.109-.269-.217-.591-.326-.86-.054-.107-.054-.322-.217-.375-.596-.054-1.139 0-1.681.322-.109.054-.163.215-.326.215-.27.053-.542.107-.813.214-.651.215-1.302.376-1.736.967-.162.214-.38.375-.27.644.216.537.27 1.127.433 1.664.163.483.108.966.108 1.45 0 .268.055.536.055.858.054.645.054 1.235.108 1.88.054.214.109.268.217.107.109-.108.217-.108.326-.161.542-.215 1.084-.376 1.68-.43a4.65 4.65 0 0 0 1.682-.483c.271-.16.434-.322.38-.59zm-18.658-17.824c.163.484.38.86.597 1.289.217.376.596.537.976.644.271.054.326.054.326-.268 0-.376-.055-.752-.055-1.181 0-.215-.108-.215-.27-.269-.489-.054-1.031 0-1.574-.215zm8.19-5.26c-.217-.054-.325-.108-.434-.108a2.66 2.66 0 0 1-.922 0c-.108 0-.163 0-.271.054-.38.322-.705.644-1.085.912-.108.054-.108.161-.054.269.108.107.163.268.271.376.054.053.109.16.271.053.109-.107.217-.16.163-.322 0-.054-.108-.107-.054-.16.054-.055.108 0 .163.053.054.053.108.107.217 0 .054-.054.162-.054.108-.161 0-.108-.108-.215-.054-.269.108-.053.162.108.27.161h.055c.054-.107.054-.214 0-.268-.054-.054-.054-.107 0-.161.054-.054.109 0 .163.054.054.053.108.16.217.107.325-.161.596-.376.976-.59zm1.519 3.006c-.163 0-.217.053-.271.16-.055.108-.163.215-.272.323-.217.16-.217.215 0 .43.055.053.109.053.163.107.109.107.163.214 0 .322-.108.053-.163.107-.108.268.054.054 0 .108-.055.108-.108.053-.27.053-.38.107v-.054c.055-.214-.108-.268-.216-.43-.054-.107-.163-.16-.271-.053-.109.107-.055.215.054.269.108.107.271.16.38.268.216.268.759.322 1.084.268.054 0 .054-.053.054-.16 0-.323 0-.591-.108-.913-.217-.322 0-.645-.054-1.02zm-2.766-5.369c.054.108.27.161.108.322-.054.054-.163.108-.054.161a.166.166 0 0 0 .217 0c.054-.053.163-.107.271-.16h.163c.054.053 0 .107-.055.16a.748.748 0 0 1-.216.161c-.109.108-.109.162 0 .269.108.107.162.107.27 0 .163-.161.38-.269.543-.376.109-.054.217-.107.326-.107.054 0 .108 0 .108.053 0 .054 0 .054-.054.108a1.183 1.183 0 0 1-.434.268c-.054.054-.109.108 0 .161.054.054.108.161.217.054.325-.215.65-.43 1.085-.644-.814-.269-1.628-.322-2.495-.43zm.65 10.093c-.542-.107-1.03-.054-1.518-.107-.271 0-.488 0-.76.053-.162 0-.216.054-.108.108.109.107.163.214.217.322.108.16.217.16.271 0a.65.65 0 0 1 .271-.269c.109-.053.217-.053.217.108 0 .16-.108.268-.27.375-.11.054-.218.161-.11.323.11.16.272.322.435.429l.054-.054c.271-.214.434-.483.325-.805-.054-.107-.054-.268.054-.322.109-.054.272 0 .326.107.054.215.163.108.217.054.108-.161.217-.215.38-.322zm-1.301-7.73c-.271 0-.434-.054-.597-.054-.325.053-.65.107-.976.107-.326-.054-.542.054-.76.268-.108.054-.216.162-.054.269.109.054.163.376.434.16.217-.16.38-.429.597-.536.108-.054.163-.16.271 0 .054.107-.054.161-.108.215l-.055.054c-.108.053-.108.107 0 .214.109.108.163.269.326.161.27-.268.596-.537.922-.859zm3.471 8.428c-.108-.108 0-.269-.054-.43 0-.16-.054-.322-.271-.322-.163 0-.38-.215-.434.108 0 .053-.055.053-.109 0-.054-.054-.108-.054-.163 0-.162.16-.325.268-.433.483-.055.16.108.214.162.322.109.054.109-.054.163-.108.163-.16.271-.322.325-.536.055-.108.109-.108.217-.108.109 0 .109.108.109.161 0 .108 0 .215-.054.269a2.954 2.954 0 0 1-.38.483c-.054.054-.217.16-.163.322.109.161.217 0 .326-.054.054 0 .054 0 .108-.053a.838.838 0 0 0 .651-.537zm-1.302-7.516c0 .107.055.161.109.215.108.107.162.376.434.268.054-.054.108.054.054.108-.217.268 0 .429.108.59.217.322.272.322-.054.59l-.054.054c-.109 0-.109.108-.054.215.108.107.162.054.217-.054.108-.107.162-.268.27-.268.164 0 .164-.107.164-.215-.055-.322 0-.644.054-1.02 0-.268 0-.268-.271-.215.108.161.217.323.162.59-.434-.267-.705-.697-1.139-.858zm.922-1.557c.272-.107.434-.16.543-.483.054-.215-.055-.322-.109-.43-.054-.107-.162-.053-.271 0-.163.108-.38.215-.542.323-.055.053-.109.053-.109.107s.434.483.488.483zm.868 7.248c.271-.43.542-.752.814-1.128.054-.054.108-.107.054-.16-.054-.055-.109-.055-.163 0-.217.053-.434.16-.65.16-.055 0-.11.054-.11.161-.053.322-.053.644.055.967zm-9.925-1.88c0 .054.054.054.054.108.38.161.813.161 1.247.215.055 0 .109 0 .109-.054 0-.161.054-.322-.054-.483-.109-.108-.272-.108-.434-.054-.055 0-.109 0-.163.054-.217.054-.488.16-.76.215zm1.735 19.917c.597.269 1.14.108 1.682.108.054 0 .108-.054.054-.108-.109-.268.108-.268.271-.375-.705.107-1.356.214-2.007.375zm7.702-23.674c.054-.43.054-.752.108-1.128 0-.107-.054-.16-.162-.16-.109 0-.109.053-.109.16 0 .215-.054.215-.162.161-.055 0-.109-.053-.163-.107-.054-.054-.109-.054-.217 0-.054.107 0 .107.054.161.054.054.163.107.217.215.054.268.271.43.434.698zm-.705 6.227l-.163-.161c-.108-.107-.271-.322-.434-.054-.054.054-.108.054-.108 0-.054-.053-.054-.107 0-.16.217-.27-.054-.323-.163-.43-.054-.054-.108-.108-.163 0-.054.107-.217.16-.108.322.271.268.542.698 1.139.483zm-7.105-4.402c-.054.161 0 .268 0 .376.054.214.325.214.434.322l.054-.054c-.054-.16-.163-.215-.271-.322-.109-.054-.163-.107-.109-.268.055-.161.163-.108.271-.108.163 0 .217-.053.109-.214-.109-.108-.217-.269-.325-.376-.055-.054-.055-.108-.109-.108-.054.054-.054.108-.054.161v.59zm2.278 4.51c.271 0 .434-.108.488-.269 0-.107-.271-.43-.434-.43-.108 0-.325.215-.38.323 0 .16.163.375.326.375zm-1.302-7.463a3.467 3.467 0 0 1-.76-.43c-.162-.214-.27-.16-.27.108v.054c0 .107-.055.215.054.268.108.054.108-.107.163-.16a.264.264 0 0 1 .38 0c.162.16 0 .214-.11.268-.054.053-.108.107-.054.214.055.054.163.108.217 0 .109-.053.272-.16.38-.322zm2.387 8.75c0-.053-.38-.482-.434-.482-.109.107-.272.16-.272.268-.054.107.055.161.109.269l.163.16c.108.054.108.215.217.162.108-.108.217-.269.217-.376zm.813-3.113c-.163 0-.325-.054-.488-.107-.163 0-.38-.054-.434.053-.054.162.109.269.271.376l.109.108c.054 0 .108.053.162 0 .109-.161.326-.215.38-.43zm-.488-3.65c-.054-.108-.054-.161-.163-.215-.054-.054-.162-.107-.217-.215-.108-.107-.162-.107-.325 0-.109.108-.109.161-.054.269.108.16.27.214.38.322.108.107.379-.054.379-.161zm-2.495 5.422c.109 0 .217 0 .271-.054.054 0 .109-.107.054-.161 0-.054-.054-.107-.108-.054-.108.215-.325 0-.434.054-.217.054-.325 0-.271-.268 0-.161-.163-.269-.326-.269-.216.054 0 .161 0 .269v.107c0 .161.109.215.217.268.217.054.434.054.597.108zm2.658-4.295c-.055-.215-.217-.322-.38-.483-.054-.054-.163-.108-.217 0-.054.054-.163.107-.054.268.054.108.163.269.271.322.054.054.054.161.163.108.054-.054.108-.161.217-.215zm.27 6.496c-.162-.215-.325-.376-.433-.537-.054-.054-.109-.054-.163 0-.054.107-.162.215-.217.376-.054.107 0 .16.109.16h.705zm-1.735-.698c-.054.054-.108.054-.108.107 0 .054-.109.108-.054.215a.79.79 0 0 0 .488.322c.108 0 .217 0 .217-.16 0 0-.489-.43-.543-.484zm2.061-11.06c-.054 0-.162-.053-.217 0-.054.162-.162.216-.27.323v.107c.162.215.325.161.433-.053a.421.421 0 0 1 .217-.215c.108 0 .217.054.217-.054 0-.107-.109-.053-.163-.107-.054-.054-.108 0-.217 0zm-2.115 4.35c-.108.053-.217.053-.163.214.055.161.109.322.271.43.055.053.163.053.272 0 .054 0 .108-.054.108-.108-.054-.107-.38-.483-.488-.537zm2.929.697c-.163-.107-.163-.322-.326-.43-.108-.053-.162-.053-.27 0-.11.108-.055.162 0 .27a.65.65 0 0 0 .27.268c.055 0 .055.107.109.053.054 0 .108-.053.217-.16zm.868-1.503a.299.299 0 0 0-.272.161c0 .054.38.483.38.483.109-.053.217-.107.217-.214.054-.108-.217-.43-.325-.43zm-2.712 2.094c-.163-.161-.217-.322-.326-.43-.054-.107-.162-.16-.27-.053-.055.107-.11.16-.055.268.108.161.217.268.38.43 0 0 .054.107.108.053.054 0 .054-.053.054-.107-.108-.108-.054-.161.109-.161zm-.651-1.61c-.109 0-.217.053-.163.16.109.161.217.322.38.483.054.054.108.054.163 0 .054-.053.108-.107.108-.16-.054-.054-.434-.484-.488-.484zm1.573 1.77c-.054-.16-.163-.214-.271-.321-.109-.108-.163-.108-.272 0-.217.214 0 .322.109.43.054.053.054.16.163.107.108 0 .217-.054.27-.215zm1.193 5.906c-.163-.215-.325-.376-.488-.537 0-.053-.054-.053-.109 0-.108.054-.217.161-.217.269.055.107.109.322.272.268.217 0 .38.054.542 0zm1.139-7.462c-.108 0-.163.054-.163.161 0 .054.271.483.326.483.108-.053.217-.107.27-.215 0-.053-.325-.429-.433-.429zm-5.532-2.47c.217.108.163-.16.271-.214.108-.054.163-.108.054-.269-.108-.107-.162-.16-.271 0l-.163.161c-.054.054-.162.108-.162.215.054.108.162.054.27.108zm3.091 3.06c0-.107-.325-.483-.434-.483-.108 0-.108.161-.217.161-.054.054 0 .108 0 .108.163.053.163.215.272.268.054.054.054.161.162.108.109 0 .163-.108.217-.161zm1.627 5.96c-.054-.108-.108-.215-.217-.215-.162 0-.27.107-.325.268-.054.108.217.43.271.376.163-.107.109-.322.271-.43zm-3.85-2.04c0-.162-.109-.215-.217-.269-.109-.054-.38.215-.38.322 0 .161.163.269.271.269.217 0 .217-.215.326-.323zm1.084-5.369c-.108-.107-.108-.322-.27-.322-.164 0-.326.107-.326.268 0 .161.162.269.325.269.054.053.163-.108.271-.215zm1.356 1.235c.055-.054.163-.108.163-.215.054-.107 0-.215-.108-.268-.109-.054-.109-.269-.326-.215-.108.054-.217.054-.163.16.109.27.326.377.434.538zm-2.766 5.368c-.325-.053-.434.108-.542.269-.109.107-.054.16.054.268.109.107.163.054.217-.054.108-.107.163-.214.271-.322.054-.053.109-.053.054-.107l-.054-.054zm2.712-4.939c-.163 0-.217.054-.163.215.055.161.163.268.272.376.054.053.108 0 .162 0 .054-.054.109-.054.109-.161 0-.108-.271-.43-.38-.43zm-2.875-2.845c-.216-.054-.27.054-.325.161 0 .161.163.215.271.322 0 0 .38-.268.38-.322-.054-.161-.217-.107-.326-.161zm2.441 7.462c-.108-.268-.38-.322-.542-.537-.054-.053-.163-.053-.217.054-.054.054 0 .161.054.161.109.054.109.107.109.215 0 .053 0 .107.108.107h.488zm-2.44-1.396c-.163-.107-.272-.43-.543-.16-.163.16-.054.268.054.321.217.322.272-.053.488-.16zm6.183 1.128c0-.054 0-.108-.055-.161-.217-.108-.325-.322-.542-.376-.054 0-.109-.108-.163 0-.054.054 0 .107.054.16.163.216.38.323.543.484.108 0 .163 0 .163-.107zm-5.804 1.127c-.108 0-.325.215-.325.322.054.161.217.269.325.269.109 0 .163-.161.163-.323.054-.107-.054-.214-.163-.268zm1.681-1.61s0 .053.055.053c.108.054.217.161.325.269.054 0 .109.107.163.053.054-.053.108-.16 0-.268l-.326-.322c-.054-.054-.217.053-.217.215zm1.248-2.524c-.054-.16-.163-.322-.325-.375-.109-.054-.272.107-.217.214 0 .161.217.269.38.322.108.054.108-.053.162-.16zm-3.363-3.167c-.108 0-.162.054-.162.215 0 .107.216.43.325.43.108 0 .163-.108.217-.162 0-.16-.271-.483-.38-.483zm-.976.59c-.054-.16-.109-.375-.271-.375-.217 0-.217.268-.217.376-.054.16.163.16.271.16.163.054.163-.107.217-.16zm2.603 4.295c-.108-.053-.108.054-.162.108-.055.053-.109.053-.055.107.109.107.217.215.38.322.054.054.163 0 .217-.054.054-.053.108-.107.054-.16a3.006 3.006 0 0 1-.434-.323zm2.604-2.416a.836.836 0 0 0-.326-.429h-.108c-.054.107-.217.161-.109.268.055.108.109.269.326.269a.413.413 0 0 0 .217-.108zm.868-.644c-.055-.16-.163-.322-.326-.376-.054 0-.108-.053-.163.054-.108.161.055.269.109.376.054.054.054.107.108.107.055.054.109.054.163 0 0-.053.054-.107.109-.16zm-.055-3.22c-.054-.162-.162-.216-.27-.323-.11-.107-.164-.215-.272-.268-.054-.054-.054-.108-.163-.054-.054.054-.054.107 0 .161.054.054.163.161.163.215.108.268.271.322.542.268zm-1.139 4.401c-.054 0-.108 0-.162.054-.055.054 0 .107.054.161.108.107.271.215.434.322.054.054.162 0 .162-.054 0-.053-.38-.429-.488-.483zm.922-3.758c-.054.108-.217.108-.217.269 0 .16.109.268.217.268.109 0 .272-.107.326-.268 0-.108-.217-.161-.326-.269zm-.488 3.436c-.108 0-.163.054-.217.108-.054.053 0 .107.054.16.055.108.163.162.217.27.055.053.109.053.163.053.054-.054.109-.054.109-.161.054-.108-.217-.376-.326-.43zm-.76.322c.11 0 .164-.107.164-.16.054-.108-.217-.377-.326-.377-.108 0-.163.108-.217.215 0 0 .271.269.38.322zm-4.392-2.2c-.055.107-.163.16-.163.268 0 .16.108.268.271.322.109 0 .271-.108.217-.215a1.009 1.009 0 0 0-.325-.376zm5.37.375c0-.107-.38-.483-.435-.43-.108.054-.162.108-.054.215.108.108.163.215.271.322.054.054.054.108.163.054-.054-.054 0-.107.054-.16zm-.814-.107c-.055 0-.163.053-.163.16.054.215.163.323.325.43.109.054.163 0 .217-.107.054-.108-.27-.483-.38-.483zm-2.116 4.617c0-.108-.38-.43-.488-.376-.108.053-.163.107-.108.214.108.108.217.215.38.269.108.054.162-.054.216-.107zm-1.301 2.684c.054-.161-.109-.215-.217-.322-.055-.054-.109-.108-.163-.108-.054.054-.108.108-.163.215 0 .107.055.107.163.161.108.054.163 0 .271.054.054.16.109.053.109 0zm3.959-8.053c.271-.215.271-.322.108-.483-.108-.161-.27-.054-.325 0-.163.268.163.268.217.483zm-4.61-3.275c-.271 0-.705.376-.814.698 0 .054 0 .108.054.108.055.053.055 0 .109-.054.108-.161.217-.322.38-.43.054-.107.217-.16.27-.322zm6.02 7.57c-.163 0-.434.107-.434.215 0 .107.163.16.271.214.055.054.326-.268.326-.322 0-.16-.109-.107-.163-.107zm-3.796-6.496c-.055-.161-.163-.215-.326-.268-.108 0-.271.053-.217.214 0 .108.109.269.271.269.109 0 .163-.108.272-.215zm-2.116 1.664c-.054-.16-.108-.322-.27-.322-.11 0-.218.108-.218.215 0 .16.163.215.271.268.055 0 .163-.107.217-.16zm4.719 6.657c.054 0 .163.054.163-.054.054-.053 0-.107-.055-.16-.108-.108-.217-.162-.325-.27-.109-.106-.109 0-.163.055-.054.053-.162.107-.054.16.163.108.271.215.434.27zm-5.64-1.235c.053-.214.053-.375.325-.375.054 0 .054-.054.054-.108 0-.053-.054-.053-.109-.107-.325-.108-.433 0-.38.322.055.054 0 .161.11.268zm5.586 3.007c.38.16.38.16.65.053-.054-.053-.162-.107-.162-.214 0-.054.054-.108 0-.161-.109-.054-.163 0-.217.053-.109.161-.163.269-.271.269zm-2.007-9.502a.408.408 0 0 0-.109-.269c-.054-.054-.162-.215-.27-.16-.11.053-.218.106-.218.214 0 .107.163.16.271.215h.326zm1.79 3.006c-.109 0-.109.054-.055.16l.163.323c.054.054.054.107.163.054.054-.054.108-.108.108-.161 0-.108-.217-.376-.38-.376zm.108-3.06c-.054-.161-.163-.215-.271-.322-.108-.108-.163-.054-.217 0-.054.053-.163.107-.108.215.054.107.108.16.217.16.108-.053.216 0 .38-.053zm-1.898-1.02c-.054-.107-.163-.215-.271-.215-.109 0-.271 0-.271.161s.108.215.27.269c.11 0 .218-.108.272-.215zm.813 7.623c.055-.054.163-.107.163-.161-.054-.107-.054-.322-.271-.376-.108 0-.163.108-.217.161-.054.054.271.376.325.376zm-2.766-4.67c-.162 0-.217.107-.217.214 0 .161.055.269.217.322.109 0 .217-.053.217-.16 0-.215-.108-.27-.217-.376zm4.122 1.878c.055.162.109.269.272.376.054.054.108.108.217 0 .054-.053.108-.107 0-.214-.163-.162-.272-.269-.489-.162zm-1.247-3.865c0-.107-.325-.483-.38-.43-.054 0-.217.054-.108.215.054.108.163.215.217.269.054.054.162.054.27-.054zm-2.983-.59c.108-.108.217-.161.217-.269 0-.16-.109-.268-.271-.268-.109 0-.163.107-.163.215-.054.16.108.16.217.322zm4.935 4.08c-.108 0-.27.107-.27.16 0 .108.108.27.216.27.163 0 .163-.216.271-.27-.054-.053-.108-.16-.217-.16zm-1.41 3.543c0-.161-.108-.215-.217-.269-.108-.053-.162 0-.162.108 0 .053.217.376.27.376.164 0 .055-.161.11-.215zm-.434-7.838c-.108 0-.217.054-.162.161.054.161.108.268.27.268.11 0 .218-.053.218-.16a.554.554 0 0 0-.326-.27zm-2.549 8.965c-.108.054-.217-.107-.27.054 0 .16.108.268.216.322.108 0 .271-.107.271-.268 0-.108-.163-.054-.217-.108zm2.332-6.335c-.054 0-.108.054-.108.108 0 .107.163.376.271.376.109 0 .163-.054.163-.108.054-.053-.217-.376-.326-.376zm.706 5.96c-.163-.215-.38-.376-.597-.591-.054-.054-.109-.054-.163 0-.054.054-.054.107 0 .16.217.162.434.323.76.43zm-3.417-4.403c0 .108.054.269.217.269.108 0 .162-.054.162-.108 0-.16-.108-.268-.27-.322-.11-.053-.11.054-.11.161zm-.597 2.201a.487.487 0 0 0-.325-.322c-.109-.053-.217-.053-.272.054-.054.107.055.161.109.215.163.053.325.053.488.053zm4.23.698c-.108.054-.216.108-.216.161 0 .108.054.215.162.269.109.053.217-.108.217-.161.054-.161-.108-.161-.163-.269zm-4.393-3.006c.055 0 .109-.054.109-.161a.295.295 0 0 0-.163-.269c-.108-.053-.271.054-.271.162.054.16.163.214.325.268zm.76.59c-.055-.16-.109-.322-.326-.322-.108 0-.163 0-.163.108 0 .107.217.322.326.322.108.054.163-.054.163-.108zm1.844-5.69c-.217-.054-.597.215-.705.59.217-.214.433-.375.705-.59zm3.959 8.965c.054-.268-.108-.376-.217-.483-.054-.054-.108-.107-.217 0-.054.054-.054.161.054.215.109.053.217.16.38.268zm-4.61-9.019c-.163-.107-.271 0-.38 0-.054 0-.163.054-.163.108 0 .053 0 .107.109.16.108.054.163 0 .217-.053l.217-.215zm3.58 8.59c0-.108-.217-.376-.272-.376-.108 0-.162.054-.162.161 0 .161.108.215.27.322.11 0 .163-.054.163-.107zm-4.014-6.657c0-.161-.109-.215-.217-.269-.054-.053-.163 0-.217.108 0 .16.108.215.217.268.163.054.163-.053.217-.107zm1.356 6.496c-.054 0-.163 0-.163.107a.487.487 0 0 0 .326.322c.108.054.108-.054.162-.054.055-.107-.27-.375-.325-.375zm-3.254 2.362c-.163.053-.055.215-.109.322 0 0 0 .16.109.16.162 0 .217-.16.217-.267 0-.108-.109-.162-.217-.215zm0-4.67c-.055.053-.163-.054-.163.053s.108.161.163.215c.054.053.108.107.162.053.055-.053.163-.053.109-.16-.054-.054-.163-.162-.271-.162zm3.634 3.596c.108 0 .27.054.27-.054 0-.107-.108-.214-.27-.214-.109 0-.217.107-.272.214.055.108.217 0 .272.054zm2.277-3.436c-.108 0-.216 0-.162.108 0 .16.162.214.27.268.11.054.11-.107.11-.107.054-.161-.11-.215-.218-.269zm-1.627 1.503c-.108.054-.217-.107-.27.054 0 .108.108.215.27.269.109 0 .217-.108.217-.161 0-.162-.162-.108-.217-.162zm1.14 2.363c-.163.053-.272-.054-.38-.108-.055 0-.109-.053-.109 0-.054.054 0 .108 0 .108.109.268.271.268.488 0zm-5.262-6.389c-.108 0-.108.054-.162.108 0 .053.27.375.38.375.054 0 .108-.053.108-.107-.109-.161-.163-.322-.326-.376zm4.285.108c.054 0 .109-.108.109-.108-.109-.107-.109-.268-.272-.322-.054 0-.108 0-.108.054-.054.107.163.376.271.376zm-2.983-3.114c.054-.054.108-.108.108-.161 0-.108-.108-.215-.216-.215-.055 0-.163 0-.163.107a.65.65 0 0 0 .271.269zm3.96 7.194c-.055-.108-.163-.108-.272-.108-.108 0-.217 0-.163.108 0 .107.109.214.217.214.163 0 .163-.107.217-.214zm-3.743-4.027c0-.053-.271-.322-.325-.322-.055 0-.055.054-.055.107 0 .162.109.269.271.323.055 0 .109-.054.109-.108zm-2.224-.644c0 .054.38.322.434.322.054 0 .054-.054.054-.107-.108-.108-.162-.269-.38-.269-.054-.053-.108-.053-.108.054zm1.465 1.342c0-.054-.217-.268-.272-.268-.054 0-.108.053-.054.107.054.107.054.268.271.268 0 0 .055-.053.055-.107zm2.332-3.49c-.109.108-.217.054-.271.215 0 .054.054.161.162.161.109 0 .163-.107.217-.214.055 0-.054-.108-.108-.161zm-1.953 7.033c-.108 0-.217.054-.217.161 0 .108.109.161.217.161.109 0 .163 0 .163-.107.054-.161-.108-.161-.163-.215zm-.759-.268c.271.322.325.268.434 0-.109 0-.217-.108-.434 0zm1.356-.054c0-.054-.109-.054-.217-.054-.054 0-.163 0-.163.054 0 .108.054.161.163.161.108.054.217-.053.217-.16zm-2.44-1.02c.108.054.162.215.325.108.054-.054.108-.162.054-.215-.217-.161-.217.107-.38.107zm8.623.376c-.271-.054-.488 0-.76.161.326.054.543-.107.76-.161zm-8.95-4.026c.055-.108.272-.108.218-.269 0-.053-.054-.107-.109-.053-.162.053-.108.16-.108.322zm1.031-2.255l-.054-.054c-.108.161-.271.322-.38.483l.055.054c.108-.107.325-.268.38-.483zm3.58.107c.108 0 .163-.053.163-.107s-.055-.161-.109-.161-.162 0-.162.107c0 .054 0 .108.108.161zm-2.278.376c-.054-.054-.054-.161-.163-.107-.054 0-.162.053-.108.16 0 .054.054.108.108.108.055-.054.109-.054.163-.16zm-2.224 4.617c-.054 0-.108.054-.054.054 0 .107.054.214.163.214.054 0 .054-.053.054-.107 0-.107-.108-.107-.163-.161zm-.65 20.937c.108.053.216 0 .325 0 .054 0 .108.053.108-.054 0-.054-.054-.107-.162-.107-.055.107-.163.107-.272.16z"/>
                <path d="M237.36 370.526c-.326.054-.543.269-.923.269.163-.269.434-.322.651-.43.271-.107.543-.268.814-.43a.337.337 0 0 1 .38.054c.054.108 0 .269-.11.323-.487.375-1.03.697-1.464 1.073-.542.483-1.139.913-1.68 1.396-.543.483-1.14.966-1.682 1.396-.434.376-.868.751-1.302 1.18a4.873 4.873 0 0 1-.542.484c-.271.268-.543.537-.868.805-.054.054-.217.108-.109.322.055.054-.596.645-.705.645-.108 0-.162 0-.217-.108-.054-.107 0-.214.055-.268.217-.161.38-.376.596-.537.488-.43.922-.859 1.41-1.288.705-.59 1.356-1.181 2.061-1.772.543-.483 1.14-.913 1.682-1.396.38-.376.813-.698 1.193-1.073.217-.269.488-.43.76-.645zM242.024 385.343c.108-.376.434-.537.705-.751.271-.269.65-.43.922-.752.163-.268.488-.43.705-.644a70.185 70.185 0 0 1 2.278-1.88c.217-.16.488-.321.705-.536-.65.107-1.139.644-1.844.698.217-.107.38-.269.542-.376.597-.322 1.194-.537 1.79-.859.109-.054.271-.107.38 0 .054.108 0 .269-.109.322-.38.215-.759.537-1.139.86-.596.482-1.301.912-1.898 1.449-.488.43-.922.859-1.41 1.234-.488.43-.976.86-1.519 1.235h-.108zM235.515 374.821c1.79-1.396 3.471-2.899 5.316-4.134 0 0 0-.053-.055-.053-.217.053-.434.16-.65.268-.651.269-1.302.59-2.007.86-.055.053-.163.053-.163-.055-.054-.107.054-.107.108-.16.217-.162.543-.162.814-.376.217-.162.434-.215.65-.323.489-.214.923-.375 1.411-.59l.488-.161c.109 0 .217-.054.271.107.055.161 0 .215-.162.269-.651.375-1.248.859-1.899 1.234-.759.537-1.464 1.128-2.223 1.665-.543.43-1.14.859-1.682 1.288-.054.215-.108.215-.217.161zM241.264 383.196c.272-.215.434-.483.76-.59.108-.054.108-.215.217-.27l1.952-1.61c.217-.16.38-.43.651-.59.38-.269.76-.59 1.14-.913.216-.16.487-.322.704-.483.434-.322.922-.537 1.302-.966.108-.108.217-.054.271 0 .054.053.054.16-.054.268-.217.215-.488.376-.76.537-.542.322-.976.698-1.464 1.02-.434.322-.922.644-1.302 1.02-.434.376-.867.752-1.301 1.074-.38.322-.705.698-1.194.859l-.054.053c-.108.43-.542.483-.868.644.055 0 .055-.053 0-.053zM242.675 387.061c1.356-1.342 2.766-2.577 4.339-3.597-.38 0-.706.269-1.085.322.163-.322.488-.43.76-.537.27-.107.542-.268.867-.268.108 0 .217-.054.217.054.054.107 0 .214-.109.322-.325.16-.542.43-.867.59a25.099 25.099 0 0 0-2.278 1.718c-.543.43-1.085.913-1.627 1.342 0 .054-.109.108-.217.054zM230.363 374.821c-.109-.054 0-.054 0-.107.054-.161.27-.269.38-.43.27-.376.704-.644 1.03-.966.488-.483.976-.86 1.464-1.289.434-.429.922-.805 1.465-1.18.38-.269.813-.484 1.139-.806.108-.054.162-.107.27-.16.11-.055.218-.055.218.053.054.107.054.215-.109.268-.434.161-.813.43-1.193.644-.488.269-.868.645-1.247.913-.597.43-1.194.966-1.736 1.45-.542.483-1.085.966-1.573 1.503 0 .053 0 .107-.108.107zM246.742 372.083c-.922.161-1.627.752-2.495.913a.79.79 0 0 1 .489-.322c.38-.161.759-.376 1.193-.537.65-.269 1.247-.483 1.898-.752.163-.053.217 0 .271.108.109.16-.054.16-.108.214-.543.269-1.03.59-1.519.86-.488.268-.922.59-1.356.858.326-.644 1.03-.912 1.627-1.342zM233.725 376.378c-.705.59-1.41 1.127-2.115 1.771 0 .054.054.054.054.054.109 0 .163-.107.272 0 .054.108-.055.161-.109.215-.325.322-.705.59-1.085.913-.054.053-.108.107-.217.107-.108 0-.27.054-.27-.107-.055-.108 0-.215.108-.323.596-.483 1.139-1.02 1.79-1.45.38-.267.65-.59 1.03-.804.163-.215.325-.376.542-.376zM250.05 374.177c-.053.16-.162.215-.27.268-.326.161-.651.269-.922.43-.814.43-1.627.912-2.441 1.45-.38.268-.76.482-1.085.75a.166.166 0 0 1-.217 0c-.054-.107.054-.107.109-.16.542-.376 1.084-.806 1.627-1.128.488-.322 1.03-.59 1.518-.912.434-.322.923-.537 1.41-.752.11-.054.218-.107.272.054zM243.054 376.432c.054-.215.109-.376.326-.376.162 0 .217-.215.325-.322.488-.483 1.085-.913 1.627-1.342.543-.43 1.03-.913 1.573-1.343.163-.16.38-.268.597-.375.054-.054.108-.054.217-.054.108-.054.27 0 .27.054.055.107-.108.16-.162.214-.65.376-1.247.752-1.79 1.235-.27.269-.65.483-.922.752a6.23 6.23 0 0 0-.922.751 1.136 1.136 0 0 1-.325.215c-.326.107-.434.43-.814.59zM237.522 383.464c-.434.376-.868.698-1.247 1.128-.489.483-1.085.859-1.52 1.45-.216.267-.487.429-.704.697-.109.107-.38.215-.054.43.054.053 0 .107-.055.16-.108.054-.162.162-.27.108-.11 0-.164-.108-.164-.161 0-.108 0-.161.055-.269.27-.483.705-.912 1.139-1.288.488-.43 1.03-.913 1.573-1.288.27-.215.488-.484.759-.645.163-.107.325-.322.542-.322-.108-.053-.054 0-.054 0zM233.237 368.701c-.162-.215-.108-.268.109-.43.705-.536 1.573-.644 2.386-.805.109-.053.271-.107.434-.053.109.053.217.107.217.214 0 .161-.163.215-.217.161-.325-.107-.597.054-.868.161-.325.108-.705.215-1.03.323-.271.053-.488.268-.705.43h-.326c0-.055 0 0 0 0zM231.936 369.184c0 .108-.109.108-.163.161-1.085.644-1.953 1.557-2.82 2.416-.163.161-.217.322-.38.43-.054.053-.109.214-.217.107-.163-.107-.054-.215 0-.322.217-.322.488-.483.76-.752.379-.376.813-.644 1.138-1.02.163-.16.163-.43.38-.537.271-.16.488-.375.705-.59a.337.337 0 0 1 .38-.054c.162.054.217.108.217.161zM235.786 378.15c-.38.322-.705.644-1.084.966-.76.644-1.573 1.235-2.224 1.986-.109.107-.217.107-.271 0-.054-.107-.163-.215 0-.322.434-.268.76-.752 1.301-.913.163-.053.272-.16.38-.322.217-.268.543-.43.868-.644.271-.161.434-.43.705-.59.108-.054.217-.162.325-.162zM239.095 385.236c-.271.16-.434.483-.705.644-.109.054-.109.107-.163.161-.705.59-1.302 1.181-1.952 1.772a2.954 2.954 0 0 0-.38.483c-.054.053-.054.107-.109.107-.108.108-.27.215-.38.108-.108-.108-.053-.269.055-.376a6.23 6.23 0 0 1 .922-.752c.217-.16.434-.43.65-.59.489-.376.923-.806 1.357-1.235.108-.107.271-.215.434-.322.108-.054.162 0 .27 0zM240.56 386.632c-.163.053-.272.214-.435.16 0 .162-.108.215-.162.27-.163.214-.38.375-.597.536l-.488.483c-.38.215-.542.644-.868.966-.108.054-.163.161-.271.054-.108-.107-.054-.215 0-.322.38-.43.868-.859 1.356-1.127.271-.161.542-.43.813-.59.163-.108.217-.323.434-.43 0-.054.055-.054.217 0zM231.122 383.733c-.108 0-.163-.054-.163-.161-.054-.108 0-.161.109-.215.325-.269.65-.537 1.03-.698.271-.107.488-.376.76-.43.108-.375.596-.322.759-.644 0-.053.054-.053.108-.053.055 0 .109-.054.163 0 .054.053-.054.107-.054.107-.217.161-.488.322-.65.483-.49.483-1.086.805-1.574 1.289-.217.16-.325.322-.488.322zM235.407 382.713c.054.107 0 .214-.054.268-.326.268-.543.59-.922.859-.163.107-.272.268-.38.376-.109.16-.271.215-.38.322-.054.054-.217.054-.271-.054-.054-.053-.108-.215 0-.268.217-.161.38-.43.705-.483.109 0 .217-.161.326-.269.27-.322.596-.59.976-.751zM245.82 386.954c-.38.43-.867.805-1.301 1.18-.217.162-.38.323-.543.538-.054.053-.162.16-.054.214.109.054.109.161.054.215-.054.054-.162 0-.27 0-.11 0-.11-.054-.11-.161.055-.161.055-.322.218-.43.325-.214.596-.59.922-.805.27-.16.542-.376.759-.644.054-.107.163-.161.325-.107zM250.702 370.097c-.271 0-.488-.215-.76-.161-.108 0-.108-.108-.054-.161.054-.108.109-.215.271-.269.109 0 .272 0 .326.108.162.16.325.16.488.107.163-.054.434-.107.488.054.054.16-.217.16-.325.268-.163.054-.326.054-.434.054zM245.766 386.9c.109-.215.271-.376.434-.483.705-.376 1.302-.805 1.953-1.235.054-.054.108-.16.162-.054.054.108-.054.161-.054.161-.163.108-.325.269-.488.376-.542.376-1.14.752-1.681 1.128-.055.053-.163.107-.326.107.054.054 0 0 0 0zM239.203 385.128c-.108 0-.108-.053-.054-.107s.054-.107.109-.161c.325-.215.596-.483.922-.698 0 0 .054-.054.054 0 .054.054.054.107 0 .161-.271.269-.705.483-1.03.805zM243.108 374.767c.38-.322.706-.805 1.248-.912l.054.053c-.434.323-.868.59-1.247.913l-.055-.054z"/>
                <path d="M241.264 383.196c0 .107.109.215 0 .268-.325.161-.488.483-.813.644-.054 0-.054.054-.163.054.054-.16.109-.322.271-.376.109-.053.109-.107.217-.16.163-.162.326-.27.488-.43zM244.681 377.505c0 .108-.108.108-.162.161-.217.161-.434.322-.705.483-.055 0-.109.054-.109 0-.054-.053 0-.107 0-.107.271-.268.542-.483.868-.644.108 0 .163 0 .108.107zM242.403 387.383c-.217.269-.488.483-.596.86 0 .053-.109.053-.109.053-.054-.054-.054-.054-.054-.161 0-.161.163-.215.271-.322.163-.161.326-.322.488-.43 0-.054 0-.054 0 0zM241.915 385.397c-.108.268-.488.59-.922.805.217-.43.597-.59.922-.805zM235.732 382.552l-.054-.054c0-.054 0-.107.054-.107.163-.162.326-.376.597-.484.054 0 .054-.053.108 0 .055.054 0 .054 0 .108-.162.214-.434.322-.596.537h-.109zM245.766 369.345c-.108 0-.163 0-.217-.053 0-.054.054-.054.054-.108l.055-.053c.108-.108.27-.162.434-.108.054 0 .054.054.054.054-.109.16-.217.268-.38.268zM243.434 371.6c.108-.483.434-.59.813-.644l-.813.644zM249.183 369.13c-.38.269-.65.323-.868.215.271-.16.543-.16.868-.214zM238.227 382.713c-.108.214-.217.375-.38.483-.054.053-.108.107-.216 0-.055-.054 0-.108.054-.161.217-.054.325-.269.542-.322zM237.305 381.156c-.054 0-.054-.054-.054-.108 0-.107.054-.107.108-.16.109-.108.217-.215.38-.162v.054c0 .054-.38.376-.434.376zM237.088 381.37c0 .054-.325.323-.38.269l-.054-.054c0-.107.217-.322.326-.322.108.054.108.054.108.108zM235.84 378.15c.055-.269.218-.484.597-.537-.217.268-.434.375-.596.536-.055 0 0 0 0 0zM241.698 372.835c.109-.161.217-.322.488-.322-.054.214-.325.268-.488.322zM238.715 379.975a.65.65 0 0 1-.27.268c-.055 0-.11-.054-.055-.054.108-.107.163-.214.271-.268.054 0 .054 0 .054.054zM247.664 368.97c.163-.054.326-.108.597 0-.271.107-.434.053-.597 0zM233.834 376.27v-.053c.054-.108.108-.215.271-.161.054 0 .054.053.054.053-.108.108-.217.162-.325.162zM241.97 377.237c0-.108.054-.269.216-.269 0 0 .109.054.055.108 0 .16-.163.107-.272.16zM253.468 377.935c-.054-.269.108-.43.217-.644.217-.43.488-.806.705-1.235.163-.322.325-.644.488-.913.271-.483.597-.966.868-1.45.162-.321.38-.644.65-.966.055-.053.11-.214.218-.16.108.053 0 .214 0 .268-.055.16-.217.268-.326.43-.38.429-.65.966-.976 1.449-.271.43-.488.859-.814 1.288-.27.43-.488.913-.759 1.396-.054.215-.108.43-.271.537zM256.993 375.573c-.488.59-.922 1.18-1.301 1.825-.326.644-.706 1.235-1.031 1.879-.271.537-.542 1.02-.76 1.61a.988.988 0 0 0-.108.376c0 .054-.054.108-.108.108s0-.054 0-.108l.325-.805c.38-.966.76-1.88 1.356-2.738.163-.215.271-.537.434-.805.271-.483.542-.967 1.03-1.289.055-.053.109-.053.109-.053h.054zM254.173 382.713c.163-.322.271-.645.434-.913.488-.859.922-1.718 1.41-2.577.163-.268.325-.537.597-.698.054-.053.108-.16.217-.053.054.107 0 .16-.109.214-.271.215-.434.483-.597.752-.38.644-.705 1.288-1.084 1.933-.272.429-.488.858-.76 1.288 0 .054 0 .107-.108.054zM253.902 385.29c-.055-.376.162-.591.27-.806.272-.43.597-.859.814-1.288.272-.483.597-.967.977-1.396.054-.107.162-.161.27-.215a.166.166 0 0 1 .218 0c.054.054 0 .108-.109.161-.325.215-.488.537-.705.806-.542.751-1.084 1.556-1.518 2.415-.055.054-.109.161-.217.322zM254.119 374.445c0-.268.162-.483.325-.698.434-.751.922-1.395 1.356-2.093.325-.483.65-.967.922-1.503.054-.054.054-.162.163-.108.108.054 0 .161 0 .215-.326.537-.651 1.02-1.03 1.557-.597.805-1.031 1.664-1.628 2.47 0 .107-.054.16-.108.16zM253.468 377.935c-.054.322-.271.59-.38.912l-.163.322c0 .054-.054.162-.108.108-.109-.054-.054-.108-.054-.161.108-.322.27-.644.434-.967.054-.053.054-.214.27-.214z"/>
                <path d="M254.119 374.445c0 .215-.217.376-.272.59 0 .054-.054.054-.108 0 0 0-.054-.053-.054-.107.162-.16.162-.375.325-.483h.109zM253.685 375.197a.88.88 0 0 1-.38.59c.054-.214.163-.483.38-.59zM254.281 367.144c-.65-.107-1.139.161-1.573.644-.108.108-.216.108-.325.054-.108-.054-.054-.16 0-.268.271-.43.705-.59 1.139-.806.38-.16.76 0 1.139-.16.108-.054.271-.108.38-.162.434-.268.922-.375 1.356-.644.108-.054.217-.054.325-.054.054 0 .109.054.109.108 0 .107 0 .16-.109.215-.271.107-.488.268-.76.375-.487.215-1.03.43-1.518.645 0 .053-.108.107-.163.053z"/>
            </g>
        </g>
        <g>
            <path fill="#FFF" d="M32.118 375.827l1.575 1.443 18.836.159 4.91-2.294.39-8.054-10.727-1.691-2.092-1.436 2.784-1.401-.184-3.772-3.58-4.722-2.597 5.203.686 3.32 3.675 3.548-3.447.573-8.998 1.702-1.304 2.405z"/>
            <g fill="#9270EF">
                <path d="M45.56 365.383c1.968 0 3.578-.093 5.18 0 1.917.143 3.825.386 5.717.729a4.673 4.673 0 0 1 1.944 1c.347.323.544.774.545 1.247-.11 2.465-.304 4.921-.475 7.525-2.878 1.318-5.919 2.581-9.287 2.535-4.962-.039-9.94-.194-14.91-.326a5.885 5.885 0 0 1-.777-.077c-2.536-.388-2.598-.496-2.411-3.038.116-1.604.14-3.216.225-4.828.086-1.612.335-1.822 1.851-2.325a52.104 52.104 0 0 1 9.668-1.946c.397-.054.778-.186 1.501-.364a7.92 7.92 0 0 0-1.089-.72c-3.11-1.233-3.173-3.922-2.41-6.348.291-.687.645-1.345 1.057-1.968.482-.9 1.33-1.69.848-2.899-.063-.17.225-.659.42-.697.345-.083.71-.016 1.003.186a19.96 19.96 0 0 1 2.396 2.572c.692.946 1.135 2.062 1.765 3.054 1.221 1.922.56 4.177-1.229 5.595-.38.334-.84.62-1.532 1.093zm-2.893 11.765h7.28c2.244-.101 4.434-.716 6.4-1.798.359-.179.864-.512.887-.775.148-1.682.436-3.38.07-4.89-4.2.612-8.228 1.48-12.288 1.72-4.06.24-8.276-.155-12.46-.294-.078.496-.18 1.038-.234 1.55-.334 3.495-.124 3.774 3.29 4.347.101 0 .226-.07.342-.108 1.688-3.526 1.688-3.526 2.614-3.72l-1.097 3.929c2.108-.364 1.042-2.86 2.761-3.348.778 1.194-.778 2.108-.233 3.247 1.019.465 1.369-.317 1.742-1.023.257-.488.241-1.286 1.291-.984l-.365 2.147zm-9.186-7.929c3.889 1.271 7.887.876 11.822.946 3.936.07 10.174-1.24 11.527-2.511a25.192 25.192 0 0 0-10.928-.961l-.66 1.968h-.374l-.825-1.666c-3.71-.108-7.1 1.155-10.562 2.224zm10.5-14.337c-.731 1.318-1.361 2.441-1.983 3.573a3.959 3.959 0 0 0-.257.697c-.63 2.07.148 3.666 2.147 4.348l.412-1.403c1.439-.364.926 1.077 1.478 1.457 2.092-1.364 2.38-2.441 1.283-4.464a22.149 22.149 0 0 1-.863-1.844 5.285 5.285 0 0 0-2.217-2.364z"/>
                <path d="M52.264 361.617l1.618-3.147c.84 1.271.226 2.643-1.618 3.147zM39.517 349.86c.777-1.434 1.01-1.496 3.585-1.108-1.058.907-2.2.852-3.585 1.108zM46.439 349.24c1.058-.891 2.1-.574 3.018.922-.895.163-1.385 0-3.018-.922zM51.93 352.456c1.602-.1 2.1.884 1.283 2.62l-1.283-2.62zM35.044 356.432c-.684-1.178-.342-1.713 1.953-2.868l-1.953 2.868zM35.511 361.408l1.781 2.208c-1.555 0-1.695-.147-2.108-1.914l.327-.294z"/>
            </g>
            <path fill="#FFF" d="M13.118 383.827l1.575 1.443 18.836.159 4.91-2.294.39-8.054-10.727-1.691-2.092-1.436 2.784-1.401-.184-3.772-3.58-4.722-2.597 5.203.686 3.32 3.675 3.548-3.447.573-8.998 1.702-1.304 2.405z"/>
            <g fill="#9270EF">
                <path d="M26.56 373.383c1.968 0 3.578-.093 5.18 0 1.917.143 3.825.386 5.717.729a4.673 4.673 0 0 1 1.944 1c.347.323.544.774.545 1.247-.11 2.465-.304 4.921-.475 7.525-2.878 1.318-5.919 2.581-9.287 2.535-4.962-.039-9.94-.194-14.91-.326a5.885 5.885 0 0 1-.777-.077c-2.536-.388-2.598-.496-2.411-3.038.116-1.604.14-3.216.225-4.828.086-1.612.335-1.822 1.851-2.325a52.104 52.104 0 0 1 9.668-1.946c.397-.054.778-.186 1.501-.364a7.92 7.92 0 0 0-1.089-.72c-3.11-1.233-3.173-3.922-2.41-6.348.291-.687.645-1.345 1.057-1.968.482-.9 1.33-1.69.848-2.899-.063-.17.225-.659.42-.697.345-.083.71-.016 1.003.186a19.96 19.96 0 0 1 2.396 2.572c.692.946 1.135 2.062 1.765 3.054 1.221 1.922.56 4.177-1.229 5.595-.38.334-.84.62-1.532 1.093zm-2.893 11.765h7.28c2.244-.101 4.434-.716 6.4-1.798.359-.179.864-.512.887-.775.148-1.682.436-3.38.07-4.89-4.2.612-8.228 1.48-12.288 1.72-4.06.24-8.276-.155-12.46-.294-.078.496-.18 1.038-.234 1.55-.334 3.495-.124 3.774 3.29 4.347.101 0 .226-.07.342-.108 1.688-3.526 1.688-3.526 2.614-3.72l-1.097 3.929c2.108-.364 1.042-2.86 2.761-3.348.778 1.194-.778 2.108-.233 3.247 1.019.465 1.369-.317 1.742-1.023.257-.488.241-1.286 1.291-.984l-.365 2.147zm-9.186-7.929c3.889 1.271 7.887.876 11.822.946 3.936.07 10.174-1.24 11.527-2.511a25.192 25.192 0 0 0-10.928-.961l-.66 1.968h-.374l-.825-1.666c-3.71-.108-7.1 1.155-10.562 2.224zm10.5-14.337c-.731 1.318-1.361 2.441-1.983 3.573a3.959 3.959 0 0 0-.257.697c-.63 2.07.148 3.666 2.147 4.348l.412-1.403c1.439-.364.926 1.077 1.478 1.457 2.092-1.364 2.38-2.441 1.283-4.464a22.149 22.149 0 0 1-.863-1.844 5.285 5.285 0 0 0-2.217-2.364z"/>
                <path d="M33.264 369.617l1.618-3.147c.84 1.271.226 2.643-1.618 3.147zM20.517 357.86c.777-1.434 1.01-1.496 3.585-1.108-1.058.907-2.2.852-3.585 1.108zM27.439 357.24c1.058-.891 2.1-.574 3.018.922-.895.163-1.385 0-3.018-.922zM32.93 360.456c1.602-.1 2.1.884 1.283 2.62l-1.283-2.62zM16.044 364.432c-.684-1.178-.342-1.713 1.953-2.868l-1.953 2.868zM16.511 369.408l1.781 2.208c-1.555 0-1.695-.147-2.108-1.914l.327-.294z"/>
            </g>
            <g>
                <path fill="#FFF" d="M54.118 380.827l1.575 1.443 18.836.159 4.91-2.294.39-8.054-10.727-1.691-2.092-1.436 2.784-1.401-.184-3.772-3.58-4.722-2.597 5.203.686 3.32 3.675 3.548-3.447.573-8.998 1.702-1.304 2.405z"/>
                <g fill="#9270EF">
                    <path d="M67.56 370.383c1.968 0 3.578-.093 5.18 0 1.917.143 3.825.386 5.717.729a4.673 4.673 0 0 1 1.944 1c.347.323.544.774.545 1.247-.11 2.465-.304 4.921-.475 7.525-2.878 1.318-5.919 2.581-9.287 2.535-4.962-.039-9.94-.194-14.91-.326a5.885 5.885 0 0 1-.777-.077c-2.536-.388-2.598-.496-2.411-3.038.116-1.604.14-3.216.225-4.828.086-1.612.335-1.822 1.851-2.325a52.104 52.104 0 0 1 9.668-1.946c.397-.054.778-.186 1.501-.364a7.92 7.92 0 0 0-1.089-.72c-3.11-1.233-3.173-3.922-2.41-6.348.291-.687.645-1.345 1.057-1.968.482-.9 1.33-1.69.848-2.899-.063-.17.225-.659.42-.697.345-.083.71-.016 1.003.186a19.96 19.96 0 0 1 2.396 2.572c.692.946 1.135 2.062 1.765 3.054 1.221 1.922.56 4.177-1.229 5.595-.38.334-.84.62-1.532 1.093zm-2.893 11.765h7.28c2.244-.101 4.434-.716 6.4-1.798.359-.179.864-.512.887-.775.148-1.682.436-3.38.07-4.89-4.2.612-8.228 1.48-12.288 1.72-4.06.24-8.276-.155-12.46-.294-.078.496-.18 1.038-.234 1.55-.334 3.495-.124 3.774 3.29 4.347.101 0 .226-.07.342-.108 1.688-3.526 1.688-3.526 2.614-3.72l-1.097 3.929c2.108-.364 1.042-2.86 2.761-3.348.778 1.194-.778 2.108-.233 3.247 1.019.465 1.369-.317 1.742-1.023.257-.488.241-1.286 1.291-.984l-.365 2.147zm-9.186-7.929c3.889 1.271 7.887.876 11.822.946 3.936.07 10.174-1.24 11.527-2.511a25.192 25.192 0 0 0-10.928-.961l-.66 1.968h-.374l-.825-1.666c-3.71-.108-7.1 1.155-10.562 2.224zm10.5-14.337c-.731 1.318-1.361 2.441-1.983 3.573a3.959 3.959 0 0 0-.257.697c-.63 2.07.148 3.666 2.147 4.348l.412-1.403c1.439-.364.926 1.077 1.478 1.457 2.092-1.364 2.38-2.441 1.283-4.464a22.149 22.149 0 0 1-.863-1.844 5.285 5.285 0 0 0-2.217-2.364z"/>
                    <path d="M74.264 366.617l1.618-3.147c.84 1.271.226 2.643-1.618 3.147zM61.517 354.86c.777-1.434 1.01-1.496 3.585-1.108-1.058.907-2.2.852-3.585 1.108zM68.439 354.24c1.058-.891 2.1-.574 3.018.922-.895.163-1.385 0-3.018-.922zM73.93 357.456c1.602-.1 2.1.884 1.283 2.62l-1.283-2.62zM57.044 361.432c-.684-1.178-.342-1.713 1.953-2.868l-1.953 2.868zM57.511 366.408l1.781 2.208c-1.555 0-1.695-.147-2.108-1.914l.327-.294z"/>
                </g>
            </g>
        </g>
        <g fill="#9270EF">
            <path d="M278.093 374.733a2.87 2.87 0 0 0-1.136.664 1.926 1.926 0 0 0-.442.586 1.19 1.19 0 0 0-.093.292c-.013.074.018.267-.033.306.045-.523-.178-1.143-.413-1.601-.184-.359-.541-1.055-1.04-.87.419-.529-.13-.984-.533-1.254-.486-.328-.874-.84-1.466-.985.23-.181.475-.344.728-.49-.068.625.498 1.043 1.021 1.227a3.515 3.515 0 0 0 2.025.078c.48-.128 1.087-.486.868-1.077-.142-.383-.587-.541-.944-.65-.425-.13-.822-.232-1.219-.44.205-.117.4-.252.576-.41.128-.115.165.01.319.043.109.023.22.006.326-.026.395-.122.667-.482.844-.838.305-.612.403-1.348.219-2.013-.076-.272-.226-.572-.518-.657-.401-.116-.822.475-1.024.762-.274.388-.535.89-.594 1.368-.03.24.03.494.116.717.068.179.1.18-.055.31-.097.082-.2.157-.307.226.301-.673.096-1.291-.307-1.866-.282-.4-.736-.988-1.3-.8-.645.213-.356.896-.4 1.395-.03.352-.172.712-.081 1.066.087.342.323.706.598.926a6.11 6.11 0 0 0-1.085.588c-.104-.728-.29-1.416-.761-2-.21-.26-.37-.455-.722-.29-.238.112-.387.356-.487.59a3.035 3.035 0 0 0-.225 1.589c.08.548.329 1.236.889 1.457-.218.341-.382.715-.547 1.084-.242-.438-.749-.678-1.1-1.022-.362-.356-.644-.861-1.216-.863-.566-.002-.608.588-.557 1.029.114.99.904 2.787 2.177 2.497-.34.82-.76 1.463-1.488 1.987a9.806 9.806 0 0 1-.998.613c-.236.13-.689.279-.567.639.118.351.652-.076.818-.169a8.17 8.17 0 0 0 1.233-.809c.045-.037.127-.135.185-.136l.463-.007c.27-.004.54-.005.81.004a6.226 6.226 0 0 1 1.547.254c-.245.49-.164 1.269.102 1.738.274.486.813.808 1.328.99.446.156 1.175.18 1.261-.446.049-.35-.2-.651-.376-.926-.212-.332-.34-.711-.56-1.037.287-.008.573-.05.852-.12-.054.567.444 1.254.926 1.51.5.265 1.165.306 1.717.22.457-.073 1.202-.504.738-1.049-.236-.277-.615-.44-.893-.676-.31-.263-.62-.552-1.018-.672.098-.065.195-.134.289-.206.133-.102.1-.053.218.026.164.109.355.174.548.206.38.064.712-.02 1.043-.206.372-.21.71-.484.994-.802.218-.243.69-.772.618-1.133-.155-.792-1.34-.601-1.891-.44zm-1.063-2.855c-.395.3-1.09.265-1.56.224.023-.118-.037-.51-.24-.3-.04.041-.068.107-.099.157-.077.123-.149.067-.288.022.124-.099.23-.57-.061-.44-.196.087-.246.367-.45.145-.293-.32-.008-.73.392-.693.349.032.66.256.965.41.33.168 1.013.108 1.341.475zm.242-3.899c.009.323-.021.599-.167.892-.193-.137-.475-.076-.32.19.016.027.111.121.111.147-.11.14-.301.336-.498.241-.403-.195-.337-.827-.201-1.159.167-.41.476-.774.828-1.039.305.07.242.543.247.728zm-3.293.011c.045-.246.2-.055.304.065.203.235.35.519.47.803.115.274.13.544.016.822-.066.16-.311.678-.516.67-.169-.007-.252-.267-.311-.39-.143-.296-.056-.564-.006-.871.027-.17-.025-.737.043-1.099zm.797 8.446c-.136-.333-.092-.755-.029-1.1.031-.17.076-.364.192-.499.192-.223.352.114.46.273.346.513.78 1.231.344 1.742-.694.812-.804-.02-.967-.416zm-.778-3.09c.143.08.336.168.434.306.116.164-.397.18-.472.183a2.933 2.933 0 0 1-.918-.104.975.975 0 0 1-.593-.433c-.077-.125-.331-.574-.216-.71.108-.125.374-.057.513-.04.307.037.516.165.729.387a2.5 2.5 0 0 0 .523.411zm-1.78-2.02c-.018.224-.145.635-.4.694-.246.057-.446-.271-.546-.445.154.019.478-.093.414-.314-.066-.231-.437-.054-.55.039-.024-.057-.049-.114-.06-.175.317-.053.305-.543-.02-.394.002-.226-.01-1.127.355-1.131.27.263.854 1.136.807 1.726zm-.34 4.09c-.033-.124-.253-.257-.308-.075-.033.114-.08.231-.095.35-.176-.053-.776-.236-.581-.528.16-.24.506-.343.776-.357.61-.033 1.243.264 1.707.64-.145.196-.547.246-.766.292-.283.06-.513.095-.799.038.064-.111.114-.233.065-.36zm-2.953-1.651c-.116-.193-.165-.455-.232-.668-.016-.052-.153-.634-.192-.638.452.057.708.62.987.916.275.291.699.436.917.784.255.405-.188.791-.59.61-.408-.186-.668-.636-.89-1.004-.072-.119.233.385 0 0zm1.595 2.152c.701.807 2.344.692 3.094.014 1.224-1.106-1.559-1.992-2.363-1.734.157-.367.335-.725.55-1.063.168.501.467.945.962 1.165.545.243 1.328.288 1.876.035-.638.783-.586 2.251-.019 3.048-.816.152-1.54-.037-2.333-.209-.783-.17-1.58-.25-2.38-.258.241-.307.441-.647.613-.998zm3.833 3.95c.05.085-.415.012-.463.003-.294-.061-.61-.23-.854-.402.098-.034.222-.173.19-.284-.061-.214-.281-.08-.405-.037-.09.031-.2-.089-.132-.123a.314.314 0 0 0 .15-.14c.116-.218-.102-.275-.267-.223-.015-.186-.062-.675.241-.644.218.022.51.212.659.366.179.186.233.442.354.662.156.286.366.539.527.821.069.119-.216-.377 0 0zm2.192-1.716c.264.276.61.444.92.662.131.091.051.282-.086.356-.12.065-.32.026-.453.026.108-.222-.212-.544-.32-.252-.042.112-.018.24-.156.213-.227-.043-.451-.128-.612-.3-.165-.175-.596-.944-.263-1.075.278-.11.771.163.97.37.296.309-.098-.102 0 0zm2.131-1.885c-.065-.108-.388-.376-.394-.076-.001.07.04.138.04.208 0 .027.038.07.03.095-.02.051-.18.105-.234.125.042-.137-.062-.451-.246-.39-.146.046-.139.32-.143.448-.025.112-.66-.082-.715-.249-.069-.214.155-.448.291-.582.382-.376.807-.541 1.333-.61.22-.028.576-.08.759.087.13.119-.606.846-.72.944z"/>
        </g>
        <g fill="#9270EF">
            <path d="M245.093 380.733a2.87 2.87 0 0 0-1.136.664 1.926 1.926 0 0 0-.442.586 1.19 1.19 0 0 0-.093.292c-.013.074.018.267-.033.306.045-.523-.178-1.143-.413-1.601-.184-.359-.541-1.055-1.04-.87.419-.529-.13-.984-.533-1.254-.486-.328-.874-.84-1.466-.985.23-.181.475-.344.728-.49-.068.625.498 1.043 1.021 1.227a3.515 3.515 0 0 0 2.025.078c.48-.128 1.087-.486.868-1.077-.142-.383-.587-.541-.944-.65-.425-.13-.822-.232-1.219-.44.205-.117.4-.252.576-.41.128-.115.165.01.319.043.109.023.22.006.326-.026.395-.122.667-.482.844-.838.305-.612.403-1.348.219-2.013-.076-.272-.226-.572-.518-.657-.401-.116-.822.475-1.024.762-.274.388-.535.89-.594 1.368-.03.24.03.494.116.717.068.179.1.18-.055.31-.097.082-.2.157-.307.226.301-.673.096-1.291-.307-1.866-.282-.4-.736-.988-1.3-.8-.645.213-.356.896-.4 1.395-.03.352-.172.712-.081 1.066.087.342.323.706.598.926a6.11 6.11 0 0 0-1.085.588c-.104-.728-.29-1.416-.761-2-.21-.26-.37-.455-.722-.29-.238.112-.387.356-.487.59a3.035 3.035 0 0 0-.225 1.589c.08.548.329 1.236.889 1.457-.218.341-.382.715-.547 1.084-.242-.438-.749-.678-1.1-1.022-.362-.356-.644-.861-1.216-.863-.566-.002-.608.588-.557 1.029.114.99.904 2.787 2.177 2.497-.34.82-.76 1.463-1.488 1.987a9.806 9.806 0 0 1-.998.613c-.236.13-.689.279-.567.639.118.351.652-.076.818-.169a8.17 8.17 0 0 0 1.233-.809c.045-.037.127-.135.185-.136l.463-.007c.27-.004.54-.005.81.004a6.226 6.226 0 0 1 1.547.254c-.245.49-.164 1.269.102 1.738.274.486.813.808 1.328.99.446.156 1.175.18 1.261-.446.049-.35-.2-.651-.376-.926-.212-.332-.34-.711-.56-1.037.287-.008.573-.05.852-.12-.054.567.444 1.254.926 1.51.5.265 1.165.306 1.717.22.457-.073 1.202-.504.738-1.049-.236-.277-.615-.44-.893-.676-.31-.263-.62-.552-1.018-.672.098-.065.195-.134.289-.206.133-.102.1-.053.218.026.164.109.355.174.548.206.38.064.712-.02 1.043-.206.372-.21.71-.484.994-.802.218-.243.69-.772.618-1.133-.155-.792-1.34-.601-1.891-.44zm-1.063-2.855c-.395.3-1.09.265-1.56.224.023-.118-.037-.51-.24-.3-.04.041-.068.107-.099.157-.077.123-.149.067-.288.022.124-.099.23-.57-.061-.44-.196.087-.246.367-.45.145-.293-.32-.008-.73.392-.693.349.032.66.256.965.41.33.168 1.013.108 1.341.475zm.242-3.899c.009.323-.021.599-.167.892-.193-.137-.475-.076-.32.19.016.027.111.121.111.147-.11.14-.301.336-.498.241-.403-.195-.337-.827-.201-1.159.167-.41.476-.774.828-1.039.305.07.242.543.247.728zm-3.293.011c.045-.246.2-.055.304.065.203.235.35.519.47.803.115.274.13.544.016.822-.066.16-.311.678-.516.67-.169-.007-.252-.267-.311-.39-.143-.296-.056-.564-.006-.871.027-.17-.025-.737.043-1.099zm.797 8.446c-.136-.333-.092-.755-.029-1.1.031-.17.076-.364.192-.499.192-.223.352.114.46.273.346.513.78 1.231.344 1.742-.694.812-.804-.02-.967-.416zm-.778-3.09c.143.08.336.168.434.306.116.164-.397.18-.472.183a2.933 2.933 0 0 1-.918-.104.975.975 0 0 1-.593-.433c-.077-.125-.331-.574-.216-.71.108-.125.374-.057.513-.04.307.037.516.165.729.387a2.5 2.5 0 0 0 .523.411zm-1.78-2.02c-.018.224-.145.635-.4.694-.246.057-.446-.271-.546-.445.154.019.478-.093.414-.314-.066-.231-.437-.054-.55.039-.024-.057-.049-.114-.06-.175.317-.053.305-.543-.02-.394.002-.226-.01-1.127.355-1.131.27.263.854 1.136.807 1.726zm-.34 4.09c-.033-.124-.253-.257-.308-.075-.033.114-.08.231-.095.35-.176-.053-.776-.236-.581-.528.16-.24.506-.343.776-.357.61-.033 1.243.264 1.707.64-.145.196-.547.246-.766.292-.283.06-.513.095-.799.038.064-.111.114-.233.065-.36zm-2.953-1.651c-.116-.193-.165-.455-.232-.668-.016-.052-.153-.634-.192-.638.452.057.708.62.987.916.275.291.699.436.917.784.255.405-.188.791-.59.61-.408-.186-.668-.636-.89-1.004-.072-.119.233.385 0 0zm1.595 2.152c.701.807 2.344.692 3.094.014 1.224-1.106-1.559-1.992-2.363-1.734.157-.367.335-.725.55-1.063.168.501.467.945.962 1.165.545.243 1.328.288 1.876.035-.638.783-.586 2.251-.019 3.048-.816.152-1.54-.037-2.333-.209-.783-.17-1.58-.25-2.38-.258.241-.307.441-.647.613-.998zm3.833 3.95c.05.085-.415.012-.463.003-.294-.061-.61-.23-.854-.402.098-.034.222-.173.19-.284-.061-.214-.281-.08-.405-.037-.09.031-.2-.089-.132-.123a.314.314 0 0 0 .15-.14c.116-.218-.102-.275-.267-.223-.015-.186-.062-.675.241-.644.218.022.51.212.659.366.179.186.233.442.354.662.156.286.366.539.527.821.069.119-.216-.377 0 0zm2.192-1.716c.264.276.61.444.92.662.131.091.051.282-.086.356-.12.065-.32.026-.453.026.108-.222-.212-.544-.32-.252-.042.112-.018.24-.156.213-.227-.043-.451-.128-.612-.3-.165-.175-.596-.944-.263-1.075.278-.11.771.163.97.37.296.309-.098-.102 0 0zm2.131-1.885c-.065-.108-.388-.376-.394-.076-.001.07.04.138.04.208 0 .027.038.07.03.095-.02.051-.18.105-.234.125.042-.137-.062-.451-.246-.39-.146.046-.139.32-.143.448-.025.112-.66-.082-.715-.249-.069-.214.155-.448.291-.582.382-.376.807-.541 1.333-.61.22-.028.576-.08.759.087.13.119-.606.846-.72.944z"/>
        </g>
    </g>
</svg>
