<svg xmlns="http://www.w3.org/2000/svg" width="92" height="19" viewBox="0 0 92 19">
    <path fill="#9270EF" fill-rule="evenodd" d="M8.702 1.238c.132 4.98.024 9.144-.324 12.492a.633.633 0 0 1-.243.432.642.642 0 0 1-.477.135.602.602 0 0 1-.432-.234.675.675 0 0 1-.144-.477c.216-2.004.342-4.206.378-6.606l-.936.144-1.08.18-.918.162c-1.176.192-2.124.33-2.844.414.048 1.392.12 3.108.216 5.148a.608.608 0 0 1-.162.468.644.644 0 0 1-.45.216.608.608 0 0 1-.468-.162.644.644 0 0 1-.216-.45 407.266 407.266 0 0 1-.216-5.22.667.667 0 0 1-.306-.504.592.592 0 0 1 .27-.576C.302 5.108.278 3.53.278 2.066c0-.18.063-.333.189-.459a.625.625 0 0 1 .459-.189c.18 0 .333.063.459.189a.625.625 0 0 1 .189.459c0 1.404.024 2.91.072 4.518a71.845 71.845 0 0 0 2.682-.396c2.028-.336 3.072-.51 3.132-.522.012-1.308-.006-2.772-.054-4.392 0-.18.06-.336.18-.468a.583.583 0 0 1 .45-.198c.18 0 .336.06.468.18s.198.27.198.45zm2.808 9.468c1.452-.048 2.418-.348 2.898-.9.228-.264.369-.555.423-.873.054-.318.027-.579-.081-.783-.228-.504-.678-.678-1.35-.522-.792.18-1.35.564-1.674 1.152-.324.588-.396 1.23-.216 1.926zm-1.134.702a4.44 4.44 0 0 1-.234-1.188 4.041 4.041 0 0 1 .117-1.224c.102-.408.267-.783.495-1.125.228-.342.543-.648.945-.918.402-.27.873-.465 1.413-.585.648-.156 1.224-.114 1.728.126s.87.618 1.098 1.134c.216.456.273.966.171 1.53a3.125 3.125 0 0 1-.729 1.512c-.66.744-1.728 1.176-3.204 1.296.312.324.672.546 1.08.666.828.24 1.758.006 2.79-.702a.635.635 0 0 1 .477-.099c.174.03.312.12.414.27a.641.641 0 0 1-.171.909c-1.356.936-2.646 1.224-3.87.864a3.539 3.539 0 0 1-1.422-.792 3.93 3.93 0 0 1-.954-1.332.586.586 0 0 1-.144-.342zm12.762.522c.072-.348.132-.666.18-.954a3.07 3.07 0 0 0-1.116-.531c-.384-.09-.72-.111-1.008-.063a2.24 2.24 0 0 0-.792.288c-.324.192-.516.414-.576.666-.048.216.036.432.252.648.42.372.855.603 1.305.693.45.09.807.057 1.071-.099.288-.144.516-.36.684-.648zM21.05 4.208c.012 0 .099.009.261.027.162.018.261.033.297.045l.27.036c.156.024.267.048.333.072.066.024.165.057.297.099.132.042.243.087.333.135a5.9 5.9 0 0 1 .297.171c.108.066.21.141.306.225.996.864 1.446 2.31 1.35 4.338-.024.396-.066.822-.126 1.278.036.636-.06 1.212-.288 1.728-.048.18-.144.6-.288 1.26a.606.606 0 0 1-.279.396.65.65 0 0 1-.495.09.55.55 0 0 1-.414-.306c-.564.24-1.179.285-1.845.135-.666-.15-1.281-.489-1.845-1.017-.6-.54-.816-1.17-.648-1.89.144-.612.54-1.11 1.188-1.494a3.494 3.494 0 0 1 1.719-.468c.63-.012 1.299.15 2.007.486.012-.084.018-.174.018-.27.072-1.596-.234-2.694-.918-3.294a1.58 1.58 0 0 0-.477-.261 3.3 3.3 0 0 0-.468-.135 10.122 10.122 0 0 0-.729-.09.666.666 0 0 1-.441-.243.595.595 0 0 1-.135-.477.666.666 0 0 1 .243-.441.595.595 0 0 1 .477-.135zm6.336-2.16c.072.66.114 1.5.126 2.52.012 1.44.024 2.244.036 2.412.108 2.508.108 4.746 0 6.714a.644.644 0 0 1-.216.45.608.608 0 0 1-.468.162.644.644 0 0 1-.45-.216.608.608 0 0 1-.162-.468c.108-1.92.108-4.11 0-6.57 0-.108-.012-.936-.036-2.484-.012-.972-.054-1.764-.126-2.376a.675.675 0 0 1 .144-.477.602.602 0 0 1 .432-.234.642.642 0 0 1 .477.135.633.633 0 0 1 .243.432zm2.916 5.454c0 .672.027 1.683.081 3.033.054 1.35.081 2.361.081 3.033 0 .18-.063.333-.189.459a.625.625 0 0 1-.459.189.625.625 0 0 1-.459-.189.625.625 0 0 1-.189-.459c0-.672-.027-1.683-.081-3.033a83.118 83.118 0 0 1-.081-3.033c0-.18.063-.333.189-.459a.625.625 0 0 1 .459-.189c.18 0 .333.063.459.189a.625.625 0 0 1 .189.459zm-.198-3.33c0 .18-.063.333-.189.459a.625.625 0 0 1-.459.189.625.625 0 0 1-.459-.189.625.625 0 0 1-.189-.459c0-.18.063-.333.189-.459a.625.625 0 0 1 .459-.189c.18 0 .333.063.459.189a.625.625 0 0 1 .189.459zm3.078 4.626c.516-.78 1.128-1.242 1.836-1.386a1.812 1.812 0 0 1 1.584.396c.444.36.78.918 1.008 1.674.312 1.056.36 2.388.144 3.996a.622.622 0 0 1-.252.432.64.64 0 0 1-.486.126.622.622 0 0 1-.432-.252.64.64 0 0 1-.126-.486c.192-1.428.156-2.58-.108-3.456-.144-.492-.336-.834-.576-1.026a.555.555 0 0 0-.486-.126c-.24.048-.486.204-.738.468s-.462.618-.63 1.062c-.12.3-.195.633-.225.999a7.91 7.91 0 0 0-.018 1.062c.018.342.009.753-.027 1.233a.25.25 0 0 1-.018.108c0 .06-.006.12-.018.18a.704.704 0 0 1-.09.162c-.18.252-.42.336-.72.252a.637.637 0 0 1-.234-.126.555.555 0 0 1-.144-.162l-.036-.072-.036-.108-.018-.126v-.612c.012-.672.012-1.11 0-1.314-.072-1.152-.306-2.37-.702-3.654a.597.597 0 0 1 .036-.495.63.63 0 0 1 .378-.324.623.623 0 0 1 .495.045c.162.084.267.21.315.378.132.396.24.78.324 1.152zm11.466-2.826c.06.408.198 1.164.414 2.268.204 1.08.36 1.956.468 2.628.336 2.172.39 3.858.162 5.058-.132.744-.399 1.329-.801 1.755a2.085 2.085 0 0 1-1.485.675c-.504.012-1.008-.126-1.512-.414a4.896 4.896 0 0 1-1.35-1.152.672.672 0 0 1-.135-.486.602.602 0 0 1 .234-.432.642.642 0 0 1 .477-.135c.18.018.324.093.432.225.288.36.597.633.927.819.33.186.627.279.891.279.54-.024.894-.486 1.062-1.386.18-1.008.138-2.43-.126-4.266-.396.444-.906.744-1.53.9-1.2.3-2.166.066-2.898-.702-.636-.66-.924-1.494-.864-2.502.072-1.044.492-1.83 1.26-2.358.84-.588 1.89-.648 3.15-.18l-.072-.378a.64.64 0 0 1 .126-.486.65.65 0 0 1 .423-.261.596.596 0 0 1 .477.117.684.684 0 0 1 .27.414zm-1.602 1.836c-.864-.348-1.542-.348-2.034 0-.42.288-.654.744-.702 1.368-.036.636.132 1.146.504 1.53.384.408.93.522 1.638.342.384-.096.684-.27.9-.522.216-.252.414-.618.594-1.098 0-.012.006-.024.018-.036l-.324-1.656a.657.657 0 0 1-.594.072zm18.072-6.57c.132 4.98.024 9.144-.324 12.492a.633.633 0 0 1-.243.432.642.642 0 0 1-.477.135.602.602 0 0 1-.432-.234.675.675 0 0 1-.144-.477c.216-2.004.342-4.206.378-6.606l-.936.144-1.08.18-.918.162c-1.176.192-2.124.33-2.844.414.048 1.392.12 3.108.216 5.148a.608.608 0 0 1-.162.468.644.644 0 0 1-.45.216.608.608 0 0 1-.468-.162.644.644 0 0 1-.216-.45 407.266 407.266 0 0 1-.216-5.22.667.667 0 0 1-.306-.504.592.592 0 0 1 .27-.576c-.048-1.692-.072-3.27-.072-4.734 0-.18.063-.333.189-.459a.625.625 0 0 1 .459-.189c.18 0 .333.063.459.189a.625.625 0 0 1 .189.459c0 1.404.024 2.91.072 4.518a71.845 71.845 0 0 0 2.682-.396c2.028-.336 3.072-.51 3.132-.522.012-1.308-.006-2.772-.054-4.392 0-.18.06-.336.18-.468a.583.583 0 0 1 .45-.198c.18 0 .336.06.468.18s.198.27.198.45zm2.808 9.468c1.452-.048 2.418-.348 2.898-.9.228-.264.369-.555.423-.873.054-.318.027-.579-.081-.783-.228-.504-.678-.678-1.35-.522-.792.18-1.35.564-1.674 1.152-.324.588-.396 1.23-.216 1.926zm-1.134.702a4.44 4.44 0 0 1-.234-1.188 4.041 4.041 0 0 1 .117-1.224c.102-.408.267-.783.495-1.125.228-.342.543-.648.945-.918.402-.27.873-.465 1.413-.585.648-.156 1.224-.114 1.728.126s.87.618 1.098 1.134c.216.456.273.966.171 1.53a3.125 3.125 0 0 1-.729 1.512c-.66.744-1.728 1.176-3.204 1.296.312.324.672.546 1.08.666.828.24 1.758.006 2.79-.702a.635.635 0 0 1 .477-.099c.174.03.312.12.414.27a.641.641 0 0 1-.171.909c-1.356.936-2.646 1.224-3.87.864a3.539 3.539 0 0 1-1.422-.792 3.93 3.93 0 0 1-.954-1.332.586.586 0 0 1-.144-.342zm9.36-2.79c.3-.588.642-1.086 1.026-1.494.948-1.02 1.932-1.326 2.952-.918.204.072.42.204.648.396l.162.153c.096.09.174.153.234.189a.622.622 0 0 1 .252.432.64.64 0 0 1-.126.486.622.622 0 0 1-.432.252.64.64 0 0 1-.486-.126 43.799 43.799 0 0 0-.45-.396 1.356 1.356 0 0 0-.27-.198c-.468-.18-.978.024-1.53.612a5.323 5.323 0 0 0-1.152 1.926c-.084.252-.15.495-.198.729a5.497 5.497 0 0 0-.09.54c-.012.126-.021.363-.027.711-.006.348-.015.618-.027.81 0 .024.003.057.009.099a3.536 3.536 0 0 1 .027.441c.012.192.006.342-.018.45-.084.3-.27.468-.558.504-.228.036-.432-.036-.612-.216-.252-.24-.342-.57-.27-.99a3.517 3.517 0 0 1 .063-.261.148.148 0 0 0 .009-.045v-.054a10.496 10.496 0 0 0-.072-1.134 46.743 46.743 0 0 0-.432-3.168 16.085 16.085 0 0 0-.666-2.538.619.619 0 0 1 .027-.495.63.63 0 0 1 .369-.333.619.619 0 0 1 .495.027.63.63 0 0 1 .333.369c.336.948.606 2.028.81 3.24zm7.866.576a82.87 82.87 0 0 1 .162 3.672c.504-.06.957-.168 1.359-.324s.732-.339.99-.549c.258-.21.474-.438.648-.684.174-.246.294-.498.36-.756s.099-.51.099-.756-.03-.477-.09-.693a1.978 1.978 0 0 0-.468-.81 1.206 1.206 0 0 0-.702-.36c-.708-.108-1.494.312-2.358 1.26zm0-7.542c-.18 1.512-.21 3.462-.09 5.85.9-.708 1.776-.996 2.628-.864.552.084 1.02.318 1.404.702.384.384.66.846.828 1.386.12.36.171.732.153 1.116a5.57 5.57 0 0 1-.171 1.134 3.122 3.122 0 0 1-.531 1.08 5.201 5.201 0 0 1-.909.945c-.348.282-.78.525-1.296.729a7.28 7.28 0 0 1-1.71.432.628.628 0 0 1-.522-.162.678.678 0 0 1-.27.054.625.625 0 0 1-.459-.189.625.625 0 0 1-.189-.459c0-.78-.027-1.74-.081-2.88-.054-1.14-.108-2.151-.162-3.033a45.168 45.168 0 0 1-.072-2.979c.006-1.104.057-2.106.153-3.006a.633.633 0 0 1 .243-.432.642.642 0 0 1 .477-.135c.18.018.324.096.432.234a.675.675 0 0 1 .144.477zm10.656 5.454a4.7 4.7 0 0 1-.396-.09l-.324-.072a1.78 1.78 0 0 0-.252-.018c-.144 0-.333.06-.567.18-.234.12-.441.282-.621.486-.372.396-.486.732-.342 1.008.108.168.456.348 1.044.54.204.06.351.108.441.144.09.036.237.102.441.198a1.664 1.664 0 0 1 .846.828c.24.564.309 1.071.207 1.521-.102.45-.321.849-.657 1.197a2.71 2.71 0 0 1-1.116.684 2.14 2.14 0 0 1-1.314-.018 2.666 2.666 0 0 1-.684-.414 2.972 2.972 0 0 1-.216-.144l-.252-.216a.641.641 0 0 1-.171-.909c.102-.15.24-.24.414-.27a.635.635 0 0 1 .477.099c.012.012.192.15.54.414.144.108.264.18.36.216.132.048.294.045.486-.009s.372-.171.54-.351c.372-.372.45-.78.234-1.224-.084-.168-.408-.342-.972-.522a.296.296 0 0 1-.09-.018c-.24-.084-.435-.156-.585-.216a2.93 2.93 0 0 1-.567-.333 1.668 1.668 0 0 1-.522-.585 1.36 1.36 0 0 1-.234-.927 2.47 2.47 0 0 1 .243-.864c.126-.246.291-.477.495-.693a3.55 3.55 0 0 1 1.017-.792c.39-.204.765-.306 1.125-.306.132 0 .279.015.441.045.162.03.321.063.477.099.156.036.246.06.27.072.18.024.321.111.423.261a.641.641 0 0 1-.162.9.596.596 0 0 1-.477.099z"/>
</svg>
