<svg xmlns="http://www.w3.org/2000/svg" width="144" height="18" viewBox="0 0 144 18">
    <path fill="#9270EF" fill-rule="evenodd" d="M3.824 8.492l.18.126c1.38 1.044 2.736 2.532 4.068 4.464a.635.635 0 0 1 .099.477.608.608 0 0 1-.27.414.641.641 0 0 1-.909-.171c-1.272-1.836-2.532-3.216-3.78-4.14a24.441 24.441 0 0 0-.954-.648l-.414-.27c0 .276-.006.594-.018.954a33.904 33.904 0 0 1-.126 1.944c-.072.912-.114 1.53-.126 1.854 0 .18-.066.33-.198.45a.673.673 0 0 1-.468.18.583.583 0 0 1-.45-.198.673.673 0 0 1-.18-.468c.012-.444.054-1.092.126-1.944.072-.864.114-1.482.126-1.854.024-.24.027-.648.009-1.224a45.198 45.198 0 0 1-.027-1.224c0-.24-.021-.648-.063-1.224a61.988 61.988 0 0 1-.081-1.224c-.012-.24-.042-.654-.09-1.242A79.404 79.404 0 0 0 .17 2.282a.655.655 0 0 1 .153-.477.601.601 0 0 1 .441-.225c.276-.024.486.09.63.342 1.26-.192 2.19-.258 2.79-.198.6.06 1.173.234 1.719.522.546.288.975.654 1.287 1.098.384.468.546 1.02.486 1.656-.048.624-.336 1.212-.864 1.764-.792.828-1.788 1.404-2.988 1.728zM2.726 7.376c.264-.024.504-.066.72-.126.984-.264 1.794-.726 2.43-1.386.588-.612.678-1.2.27-1.764-.204-.288-.498-.528-.882-.72a2.973 2.973 0 0 0-1.188-.36c-.492-.048-1.338.012-2.538.18.156 1.836.246 3.204.27 4.104a.16.16 0 0 0 .072-.018c.144-.024.306-.018.486.018a.63.63 0 0 1 .153.027.633.633 0 0 0 .135.027l.072.018zm8.208 3.33c1.452-.048 2.418-.348 2.898-.9.228-.264.369-.555.423-.873.054-.318.027-.579-.081-.783-.228-.504-.678-.678-1.35-.522-.792.18-1.35.564-1.674 1.152-.324.588-.396 1.23-.216 1.926zm-1.134.702a4.44 4.44 0 0 1-.234-1.188 4.041 4.041 0 0 1 .117-1.224c.102-.408.267-.783.495-1.125.228-.342.543-.648.945-.918.402-.27.873-.465 1.413-.585.648-.156 1.224-.114 1.728.126s.87.618 1.098 1.134c.216.456.273.966.171 1.53a3.125 3.125 0 0 1-.729 1.512c-.66.744-1.728 1.176-3.204 1.296.312.324.672.546 1.08.666.828.24 1.758.006 2.79-.702a.635.635 0 0 1 .477-.099c.174.03.312.12.414.27a.641.641 0 0 1-.171.909c-1.356.936-2.646 1.224-3.87.864a3.539 3.539 0 0 1-1.422-.792 3.93 3.93 0 0 1-.954-1.332.586.586 0 0 1-.144-.342zM23.426 7.34v-.486a.824.824 0 0 0-.018-.216c-.096-.276-.378-.408-.846-.396-.54.024-.984.18-1.332.468-.156.12-.384.39-.684.81-1.044 1.452-1.464 2.76-1.26 3.924.12.636.558 1.08 1.314 1.332.36.12.732.171 1.116.153a2.633 2.633 0 0 0 1.026-.243c.072-.036.138-.075.198-.117.06-.042.108-.081.144-.117.036-.036.084-.09.144-.162.06-.072.102-.126.126-.162l.18-.252c.072-.108.132-.192.18-.252a.592.592 0 0 1 .414-.261.63.63 0 0 1 .486.108.623.623 0 0 1 .261.423.61.61 0 0 1-.117.486c0 .012-.057.102-.171.27a6.363 6.363 0 0 1-.243.342c-.048.06-.132.153-.252.279-.12.126-.24.234-.36.324a2.28 2.28 0 0 1-.414.243 3.857 3.857 0 0 1-1.539.387A3.981 3.981 0 0 1 20.186 14a3.524 3.524 0 0 1-1.422-.864 2.629 2.629 0 0 1-.738-1.476c-.276-1.512.216-3.144 1.476-4.896.36-.504.66-.858.9-1.062.252-.204.57-.375.954-.513a3.736 3.736 0 0 1 1.152-.225c.456-.024.882.06 1.278.252s.678.522.846.99c.06.18.09.396.09.648v.414a.608.608 0 0 1-.162.468.644.644 0 0 1-.45.216.608.608 0 0 1-.468-.162.644.644 0 0 1-.216-.45zm4.32-.666a.608.608 0 0 1 .45-.54c.348-.108.624-.186.828-.234.204-.048.489-.075.855-.081a2.94 2.94 0 0 1 1.017.153 3.183 3.183 0 0 1 1.665 1.449c.378.678.555 1.413.531 2.205a4.323 4.323 0 0 1-.684 2.214c-.432.684-1.044 1.176-1.836 1.476-1.128.42-2.1.366-2.916-.162-.708-.468-1.164-1.194-1.368-2.178a4.841 4.841 0 0 1 .153-2.349 3.94 3.94 0 0 1 1.305-1.953zm1.314.702c-.588.276-1.02.738-1.296 1.386a3.354 3.354 0 0 0-.198 1.962c.12.624.39 1.068.81 1.332.444.3 1.02.312 1.728.036a2.354 2.354 0 0 0 1.224-.972c.288-.456.444-.972.468-1.548a2.73 2.73 0 0 0-.333-1.485c-.246-.438-.591-.735-1.035-.891-.3-.12-.672-.132-1.116-.036a.555.555 0 0 1-.252.216zm10.62.864c.204-.396.438-.756.702-1.08.696-.864 1.482-1.242 2.358-1.134.684.084 1.2.54 1.548 1.368.228.54.384 1.266.468 2.178.06.636.084 1.386.072 2.25 0 .204-.003.48-.009.828-.006.348-.009.576-.009.684 0 .18-.063.333-.189.459a.625.625 0 0 1-.459.189.625.625 0 0 1-.459-.189.625.625 0 0 1-.189-.459c0-.096.003-.321.009-.675.006-.354.009-.639.009-.855a19.117 19.117 0 0 0-.072-2.124c-.072-.78-.192-1.38-.36-1.8-.156-.348-.324-.534-.504-.558a.917.917 0 0 0-.612.099c-.18.102-.378.291-.594.567-.708.864-1.218 2.196-1.53 3.996v.36c0 .312-.06.576-.18.792-.036.048-.072.09-.108.126a.644.644 0 0 1-.45.216.619.619 0 0 1-.612-.342.56.56 0 0 1-.09-.234 1.313 1.313 0 0 1 .018-.36l.018-.306c.012-.096.018-.156.018-.18v-1.062l.009-.594c.006-.336.006-.636 0-.9a10.736 10.736 0 0 0-.045-.774c-.084-.84-.264-1.332-.54-1.476a.484.484 0 0 0-.36-.036c-.132.036-.276.15-.432.342-.336.432-.642 1.122-.918 2.07a15.883 15.883 0 0 0-.414 1.836c-.012.624-.03 1.092-.054 1.404-.012.216-.03.372-.054.468a1.183 1.183 0 0 1-.09.27.647.647 0 0 1-.306.288c-.252.108-.48.078-.684-.09a.756.756 0 0 1-.252-.378 6.277 6.277 0 0 1-.036-.198v-.342c.012-.252.042-.57.09-.954.024-.204.054-.402.09-.594v-.468c0-.084.003-.312.009-.684.006-.372.009-.618.009-.738s.003-.351.009-.693a43.074 43.074 0 0 1 .045-1.449 16.206 16.206 0 0 1 .117-1.449c.03-.258.057-.501.081-.729A.622.622 0 0 1 35 4.694a.64.64 0 0 1 .486-.126c.18.024.324.108.432.252a.64.64 0 0 1 .126.486c-.084.54-.144 1.134-.18 1.782.072-.12.15-.234.234-.342.312-.384.648-.636 1.008-.756.456-.156.912-.12 1.368.108.636.312 1.038 1.026 1.206 2.142zm11.736 0c.204-.396.438-.756.702-1.08.696-.864 1.482-1.242 2.358-1.134.684.084 1.2.54 1.548 1.368.228.54.384 1.266.468 2.178.06.636.084 1.386.072 2.25 0 .204-.003.48-.009.828-.006.348-.009.576-.009.684 0 .18-.063.333-.189.459a.625.625 0 0 1-.459.189.625.625 0 0 1-.459-.189.625.625 0 0 1-.189-.459c0-.096.003-.321.009-.675.006-.354.009-.639.009-.855a19.117 19.117 0 0 0-.072-2.124c-.072-.78-.192-1.38-.36-1.8-.156-.348-.324-.534-.504-.558a.917.917 0 0 0-.612.099c-.18.102-.378.291-.594.567-.708.864-1.218 2.196-1.53 3.996v.36c0 .312-.06.576-.18.792-.036.048-.072.09-.108.126a.644.644 0 0 1-.45.216.619.619 0 0 1-.612-.342.56.56 0 0 1-.09-.234 1.313 1.313 0 0 1 .018-.36l.018-.306c.012-.096.018-.156.018-.18v-1.062l.009-.594c.006-.336.006-.636 0-.9a10.736 10.736 0 0 0-.045-.774c-.084-.84-.264-1.332-.54-1.476a.484.484 0 0 0-.36-.036c-.132.036-.276.15-.432.342-.336.432-.642 1.122-.918 2.07a15.883 15.883 0 0 0-.414 1.836c-.012.624-.03 1.092-.054 1.404-.012.216-.03.372-.054.468a1.183 1.183 0 0 1-.09.27.647.647 0 0 1-.306.288c-.252.108-.48.078-.684-.09a.756.756 0 0 1-.252-.378 6.277 6.277 0 0 1-.036-.198v-.342c.012-.252.042-.57.09-.954.024-.204.054-.402.09-.594v-.468c0-.084.003-.312.009-.684.006-.372.009-.618.009-.738s.003-.351.009-.693a43.074 43.074 0 0 1 .045-1.449 16.206 16.206 0 0 1 .117-1.449c.03-.258.057-.501.081-.729a.622.622 0 0 1 .252-.432.64.64 0 0 1 .486-.126c.18.024.324.108.432.252a.64.64 0 0 1 .126.486c-.084.54-.144 1.134-.18 1.782.072-.12.15-.234.234-.342.312-.384.648-.636 1.008-.756.456-.156.912-.12 1.368.108.636.312 1.038 1.026 1.206 2.142zm7.902 2.466c1.452-.048 2.418-.348 2.898-.9.228-.264.369-.555.423-.873.054-.318.027-.579-.081-.783-.228-.504-.678-.678-1.35-.522-.792.18-1.35.564-1.674 1.152-.324.588-.396 1.23-.216 1.926zm-1.134.702a4.44 4.44 0 0 1-.234-1.188 4.041 4.041 0 0 1 .117-1.224c.102-.408.267-.783.495-1.125.228-.342.543-.648.945-.918.402-.27.873-.465 1.413-.585.648-.156 1.224-.114 1.728.126s.87.618 1.098 1.134c.216.456.273.966.171 1.53a3.125 3.125 0 0 1-.729 1.512c-.66.744-1.728 1.176-3.204 1.296.312.324.672.546 1.08.666.828.24 1.758.006 2.79-.702a.635.635 0 0 1 .477-.099c.174.03.312.12.414.27a.641.641 0 0 1-.171.909c-1.356.936-2.646 1.224-3.87.864a3.539 3.539 0 0 1-1.422-.792 3.93 3.93 0 0 1-.954-1.332.586.586 0 0 1-.144-.342zm9.396-2.61c.516-.78 1.128-1.242 1.836-1.386A1.812 1.812 0 0 1 71 7.808c.444.36.78.918 1.008 1.674.312 1.056.36 2.388.144 3.996a.622.622 0 0 1-.252.432.64.64 0 0 1-.486.126.622.622 0 0 1-.432-.252.64.64 0 0 1-.126-.486c.192-1.428.156-2.58-.108-3.456-.144-.492-.336-.834-.576-1.026a.555.555 0 0 0-.486-.126c-.24.048-.486.204-.738.468s-.462.618-.63 1.062c-.12.3-.195.633-.225.999s-.036.72-.018 1.062c.018.342.009.753-.027 1.233a.25.25 0 0 1-.018.108c0 .06-.006.12-.018.18a.704.704 0 0 1-.09.162c-.18.252-.42.336-.72.252a.637.637 0 0 1-.234-.126.555.555 0 0 1-.144-.162l-.036-.072-.036-.108-.018-.126v-.612c.012-.672.012-1.11 0-1.314-.072-1.152-.306-2.37-.702-3.654a.597.597 0 0 1 .036-.495.63.63 0 0 1 .378-.324.623.623 0 0 1 .495.045c.162.084.267.21.315.378.132.396.24.78.324 1.152zm10.566-.396c-.924-.072-1.668.15-2.232.666-.552.516-.858 1.14-.918 1.872-.06.66.096 1.158.468 1.494.432.372 1.068.426 1.908.162.492-.156.834-.372 1.026-.648.144-.204.312-.66.504-1.368a.49.49 0 0 1 .126-.216c0-.852.027-2.301.081-4.347.054-2.046.081-3.621.081-4.725 0-.18.063-.333.189-.459a.625.625 0 0 1 .459-.189c.18 0 .333.063.459.189a.625.625 0 0 1 .189.459c0 .984-.036 2.898-.108 5.742-.072 2.844-.084 5.04-.036 6.588 0 .18-.06.336-.18.468a.583.583 0 0 1-.45.198.673.673 0 0 1-.468-.18.583.583 0 0 1-.198-.45c0-.156-.006-.318-.018-.486-.312.264-.732.48-1.26.648-1.32.42-2.37.282-3.15-.414-.708-.624-1.014-1.482-.918-2.574.036-.492.165-.966.387-1.422.222-.456.516-.867.882-1.233.366-.366.837-.645 1.413-.837.564-.204 1.188-.282 1.872-.234.18.012.327.087.441.225a.655.655 0 0 1 .153.477.601.601 0 0 1-.225.441.655.655 0 0 1-.477.153zm5.094 2.304c1.452-.048 2.418-.348 2.898-.9.228-.264.369-.555.423-.873.054-.318.027-.579-.081-.783-.228-.504-.678-.678-1.35-.522-.792.18-1.35.564-1.674 1.152-.324.588-.396 1.23-.216 1.926zm-1.134.702a4.44 4.44 0 0 1-.234-1.188 4.041 4.041 0 0 1 .117-1.224c.102-.408.267-.783.495-1.125.228-.342.543-.648.945-.918.402-.27.873-.465 1.413-.585.648-.156 1.224-.114 1.728.126s.87.618 1.098 1.134c.216.456.273.966.171 1.53a3.125 3.125 0 0 1-.729 1.512c-.66.744-1.728 1.176-3.204 1.296.312.324.672.546 1.08.666.828.24 1.758.006 2.79-.702a.635.635 0 0 1 .477-.099c.174.03.312.12.414.27a.641.641 0 0 1-.171.909c-1.356.936-2.646 1.224-3.87.864a3.539 3.539 0 0 1-1.422-.792 3.93 3.93 0 0 1-.954-1.332.586.586 0 0 1-.144-.342zm12.546-3.006c-.924-.072-1.668.15-2.232.666-.552.516-.858 1.14-.918 1.872-.06.66.096 1.158.468 1.494.432.372 1.068.426 1.908.162.492-.156.834-.372 1.026-.648.144-.204.312-.66.504-1.368a.49.49 0 0 1 .126-.216c0-.852.027-2.301.081-4.347.054-2.046.081-3.621.081-4.725 0-.18.063-.333.189-.459a.625.625 0 0 1 .459-.189c.18 0 .333.063.459.189a.625.625 0 0 1 .189.459c0 .984-.036 2.898-.108 5.742-.072 2.844-.084 5.04-.036 6.588 0 .18-.06.336-.18.468a.583.583 0 0 1-.45.198.673.673 0 0 1-.468-.18.583.583 0 0 1-.198-.45c0-.156-.006-.318-.018-.486-.312.264-.732.48-1.26.648-1.32.42-2.37.282-3.15-.414-.708-.624-1.014-1.482-.918-2.574.036-.492.165-.966.387-1.422.222-.456.516-.867.882-1.233.366-.366.837-.645 1.413-.837.564-.204 1.188-.282 1.872-.234.18.012.327.087.441.225a.655.655 0 0 1 .153.477.601.601 0 0 1-.225.441.655.655 0 0 1-.477.153zm13.482-1.296a4.7 4.7 0 0 1-.396-.09l-.324-.072a1.78 1.78 0 0 0-.252-.018c-.144 0-.333.06-.567.18-.234.12-.441.282-.621.486-.372.396-.486.732-.342 1.008.108.168.456.348 1.044.54.204.06.351.108.441.144.09.036.237.102.441.198a1.664 1.664 0 0 1 .846.828c.24.564.309 1.071.207 1.521-.102.45-.321.849-.657 1.197a2.71 2.71 0 0 1-1.116.684 2.14 2.14 0 0 1-1.314-.018 2.666 2.666 0 0 1-.684-.414 2.972 2.972 0 0 1-.216-.144l-.252-.216a.641.641 0 0 1-.171-.909c.102-.15.24-.24.414-.27a.635.635 0 0 1 .477.099c.012.012.192.15.54.414.144.108.264.18.36.216.132.048.294.045.486-.009s.372-.171.54-.351c.372-.372.45-.78.234-1.224-.084-.168-.408-.342-.972-.522a.296.296 0 0 1-.09-.018c-.24-.084-.435-.156-.585-.216a2.93 2.93 0 0 1-.567-.333 1.668 1.668 0 0 1-.522-.585 1.36 1.36 0 0 1-.234-.927 2.47 2.47 0 0 1 .243-.864c.126-.246.291-.477.495-.693a3.55 3.55 0 0 1 1.017-.792c.39-.204.765-.306 1.125-.306.132 0 .279.015.441.045.162.03.321.063.477.099.156.036.246.06.27.072.18.024.321.111.423.261a.641.641 0 0 1-.162.9.596.596 0 0 1-.477.099zm3.69-1.026c.012.888.036 1.932.072 3.132.9.156 1.644.096 2.232-.18.792-.372 1.332-.798 1.62-1.278.288-.48.378-.906.27-1.278-.108-.36-.405-.642-.891-.846-.486-.204-1.149-.216-1.989-.036-.576.132-1.014.294-1.314.486zm-.81-1.008c.456-.324 1.068-.57 1.836-.738 1.092-.24 2.043-.198 2.853.126s1.329.87 1.557 1.638c.228.756.108 1.512-.36 2.268-.468.756-1.212 1.374-2.232 1.854-.78.36-1.68.468-2.7.324.12 2.796.18 4.782.18 5.958 0 .18-.063.333-.189.459a.625.625 0 0 1-.459.189.625.625 0 0 1-.459-.189.625.625 0 0 1-.189-.459c0-1.188-.051-2.889-.153-5.103-.102-2.214-.159-3.807-.171-4.779a.321.321 0 0 1-.09-.09.644.644 0 0 1-.216-.45.531.531 0 0 1 .18-.45c.06-.072.126-.144.198-.216a.596.596 0 0 1 .414-.342zm9.036 2.43c0 .672.027 1.683.081 3.033.054 1.35.081 2.361.081 3.033 0 .18-.063.333-.189.459a.625.625 0 0 1-.459.189.625.625 0 0 1-.459-.189.625.625 0 0 1-.189-.459c0-.672-.027-1.683-.081-3.033a83.118 83.118 0 0 1-.081-3.033c0-.18.063-.333.189-.459a.625.625 0 0 1 .459-.189c.18 0 .333.063.459.189a.625.625 0 0 1 .189.459zm-.198-3.33c0 .18-.063.333-.189.459a.625.625 0 0 1-.459.189.625.625 0 0 1-.459-.189.625.625 0 0 1-.189-.459c0-.18.063-.333.189-.459a.625.625 0 0 1 .459-.189c.18 0 .333.063.459.189a.625.625 0 0 1 .189.459zm7.308 3.168v-.486a.824.824 0 0 0-.018-.216c-.096-.276-.378-.408-.846-.396-.54.024-.984.18-1.332.468-.156.12-.384.39-.684.81-1.044 1.452-1.464 2.76-1.26 3.924.12.636.558 1.08 1.314 1.332.36.12.732.171 1.116.153a2.633 2.633 0 0 0 1.026-.243c.072-.036.138-.075.198-.117.06-.042.108-.081.144-.117.036-.036.084-.09.144-.162.06-.072.102-.126.126-.162l.18-.252c.072-.108.132-.192.18-.252a.592.592 0 0 1 .414-.261.63.63 0 0 1 .486.108.623.623 0 0 1 .261.423.61.61 0 0 1-.117.486c0 .012-.057.102-.171.27a6.364 6.364 0 0 1-.243.342c-.048.06-.132.153-.252.279-.12.126-.24.234-.36.324a2.28 2.28 0 0 1-.414.243 3.857 3.857 0 0 1-1.539.387A3.981 3.981 0 0 1 123.92 14a3.524 3.524 0 0 1-1.422-.864 2.629 2.629 0 0 1-.738-1.476c-.276-1.512.216-3.144 1.476-4.896.36-.504.66-.858.9-1.062.252-.204.57-.375.954-.513a3.736 3.736 0 0 1 1.152-.225c.456-.024.882.06 1.278.252s.678.522.846.99c.06.18.09.396.09.648v.414a.608.608 0 0 1-.162.468.644.644 0 0 1-.45.216.608.608 0 0 1-.468-.162.644.644 0 0 1-.216-.45zm4.212 3.366c1.452-.048 2.418-.348 2.898-.9.228-.264.369-.555.423-.873.054-.318.027-.579-.081-.783-.228-.504-.678-.678-1.35-.522-.792.18-1.35.564-1.674 1.152-.324.588-.396 1.23-.216 1.926zm-1.134.702a4.44 4.44 0 0 1-.234-1.188 4.041 4.041 0 0 1 .117-1.224c.102-.408.267-.783.495-1.125.228-.342.543-.648.945-.918.402-.27.873-.465 1.413-.585.648-.156 1.224-.114 1.728.126s.87.618 1.098 1.134c.216.456.273.966.171 1.53a3.125 3.125 0 0 1-.729 1.512c-.66.744-1.728 1.176-3.204 1.296.312.324.672.546 1.08.666.828.24 1.758.006 2.79-.702a.635.635 0 0 1 .477-.099c.174.03.312.12.414.27a.641.641 0 0 1-.171.909c-1.356.936-2.646 1.224-3.87.864a3.539 3.539 0 0 1-1.422-.792 3.93 3.93 0 0 1-.954-1.332.586.586 0 0 1-.144-.342zm12.42-4.302a4.7 4.7 0 0 1-.396-.09l-.324-.072a1.78 1.78 0 0 0-.252-.018c-.144 0-.333.06-.567.18-.234.12-.441.282-.621.486-.372.396-.486.732-.342 1.008.108.168.456.348 1.044.54.204.06.351.108.441.144.09.036.237.102.441.198a1.664 1.664 0 0 1 .846.828c.24.564.309 1.071.207 1.521-.102.45-.321.849-.657 1.197a2.71 2.71 0 0 1-1.116.684 2.14 2.14 0 0 1-1.314-.018 2.666 2.666 0 0 1-.684-.414 2.972 2.972 0 0 1-.216-.144l-.252-.216a.641.641 0 0 1-.171-.909c.102-.15.24-.24.414-.27a.635.635 0 0 1 .477.099c.012.012.192.15.54.414.144.108.264.18.36.216.132.048.294.045.486-.009s.372-.171.54-.351c.372-.372.45-.78.234-1.224-.084-.168-.408-.342-.972-.522a.296.296 0 0 1-.09-.018c-.24-.084-.435-.156-.585-.216a2.93 2.93 0 0 1-.567-.333 1.668 1.668 0 0 1-.522-.585 1.36 1.36 0 0 1-.234-.927 2.47 2.47 0 0 1 .243-.864c.126-.246.291-.477.495-.693a3.55 3.55 0 0 1 1.017-.792c.39-.204.765-.306 1.125-.306.132 0 .279.015.441.045.162.03.321.063.477.099.156.036.246.06.27.072.18.024.321.111.423.261a.641.641 0 0 1-.162.9.596.596 0 0 1-.477.099z"/>
</svg>
