<svg xmlns="http://www.w3.org/2000/svg" width="49" height="37" viewBox="0 0 49 37">
    <path fill="#9270EF" fill-rule="evenodd" d="M40.045 19.24a8.69 8.69 0 0 0-2.085.261l-3.139-8.967c-.677-2.03-1.048-2.346.119-4.095.982-1.473.542-2.179.188-3.95-.184-.92-.307-1.531-.951-1.531-.516 0-4.727-.73-6.32-.958.984 1.969 1.046 1.654 3.252 1.654h2.842s.24 1.049.328 1.397c.562 2.247.557 2.201-1.086 3.845-.408.408-1.067.752-.873 1.334.254.76.507 1.532.76 2.293l.377 1.08-15.715 2.378-1.202-3.412h3.378v-.906L11.264 7.94l.923 2.63H14.8l1.398 3.978-3.719 5.57a8.654 8.654 0 0 0-3.773-.873A8.703 8.703 0 0 0 0 27.947c0 4.808 3.897 8.774 8.705 8.774 4.514 0 8.225-3.31 8.661-7.767h1.945c.36 1.115 1.316 1.672 2.452 1.672.491 0 .946-.3 1.339-.537l.75 1.094h-.783c-.24 0-.435.317-.435.557 0 .24.195.557.435.557h2.612c.24 0 .435-.316.435-.557 0-.24-.195-.557-.435-.557h-1.306l-.91-1.394c.553-.48.91-1.116.91-1.905 0-.263-.05-.48-.122-.719L35.11 16.322l1.297 3.713c-2.99 1.378-5.07 4.398-5.07 7.905a8.706 8.706 0 0 0 17.412.004 8.704 8.704 0 0 0-8.705-8.705zm-23.148-2.713l3.275 9.464c-.392.304-.692.735-.86 1.292h-1.946c-.246-2.786-1.547-4.766-3.443-6.19l2.974-4.566zm-6.693 10.756c-.051-.557-.109-.274-.174-.351l2.927-4.338c1.43 1.106 2.416 2.46 2.652 4.689h-5.405zm-1.5 7.696c-3.845 0-6.963-3.153-6.963-7 0-3.846 3.118-6.981 6.964-6.981.996 0 1.942.204 2.798.58l-3.11 4.661a1.736 1.736 0 0 0-1.43 1.708c0 .961.78 1.81 1.742 1.81.642 0 1.198-.245 1.5-.803h5.404c-.429 3.343-3.353 6.025-6.904 6.025zm14.906-8.881a2.601 2.601 0 0 0-1.847-.765c-.014 0-.027.004-.041.004l-3.401-9.716 15.715-2.357.625 1.784-11.051 11.05zm16.435 8.811a6.965 6.965 0 0 1-6.965-6.964 6.958 6.958 0 0 1 3.907-6.25l2.187 6.25a.87.87 0 1 0 1.742 0 .861.861 0 0 0-.187-.533l-2.193-6.263a6.97 6.97 0 0 1 1.509-.169 6.965 6.965 0 0 1 0 13.93z"/>
</svg>
