<svg xmlns="http://www.w3.org/2000/svg" width="38" height="34" viewBox="0 0 38 34">
    <g fill="#9270EF" fill-rule="evenodd">
        <path d="M10.179 8.995c3.726 0 6.785 3.065 6.785 6.8 0 1.45-.466 2.786-1.254 3.899a.681.681 0 0 0 .382 1.052c.878.232 1.691.397 2.46.35.701-.042 1.484-.21 2.258-.757.774-.545 1.536-1.426 2.415-2.86a1.362 1.362 0 0 1 .114-.17c1.441-1.733 3.53-2.88 5.84-2.88 4.642 0 8.143 4.409 8.143 9.52 0 5.11-3.5 9.52-8.143 9.52-2.31 0-4.399-1.144-5.84-2.877-.326-.392-.387-.726-.34-1.046.049-.321.237-.639.513-.869.275-.23.622-.358.946-.348.323.014.639.13.965.52 1.003 1.207 2.329 1.903 3.756 1.903 2.898 0 5.428-2.919 5.428-6.8 0-3.882-2.53-6.8-5.428-6.8-1.427 0-2.753.698-3.756 1.904a.68.68 0 0 0-.05.07c-2.014 3.154-4.413 4.542-6.651 4.677h-.106a.678.678 0 0 0-.623.88c.201.651.329 1.308.329 1.986 0 3.73-3.033 6.8-6.744 6.8h-1.442C4.93 33.47.68 29.21.68 23.992v-.014c-.007-.519.158-.818.4-1.036.242-.218.595-.345.957-.345s.715.128.957.345c.242.218.407.517.4 1.036v.014a6.736 6.736 0 0 0 6.743 6.757h1.442c2.229 0 4.03-1.817 4.03-4.08 0-2.262-1.801-4.08-4.03-4.08a1.34 1.34 0 0 1-.39-.055.677.677 0 0 0-.267-.025c-.313.034-.55.08-.742.08h-.008c-.518.014-.817-.158-1.034-.4a1.455 1.455 0 0 1-.345-.96c0-.363.127-.713.345-.956.217-.243.516-.41 1.034-.404h.008a4.068 4.068 0 0 0 4.071-4.08c0-2.259-1.817-4.08-4.071-4.08a4.047 4.047 0 0 0-2.887 1.212c-.36.378-.69.476-1.015.46-.326-.017-.665-.179-.923-.436-.258-.258-.42-.598-.437-.925-.017-.326.078-.654.453-1.017a.68.68 0 0 0 .008-.014 6.795 6.795 0 0 1 4.8-2v.006zM15.858 3.556c1.713 4.462 5.205 7.329 9.104 7.475 1.778.063 3.547-.445 5.146-1.478l-1.412-3.191c-1.542.65-3.193.949-4.855.876-2.952-.144-5.784-1.45-7.983-3.682zM21.286 2.604L22.915.156l2.443 1.632-1.629 2.448z"/>
    </g>
</svg>
